<svg width="393" height="1470" viewBox="0 0 393 1470" fill="none" xmlns="http://www.w3.org/2000/svg">
<g clip-path="url(#clip0_74_1142)">
<path d="M393.21 1344.79L393.21 -2.00024C392.518 -2.00024 392.21 -3.1647 392.21 -2.5C392.21 -1.8353 390.002 -2.00024 390.694 -2.00024V0.41687L390.694 1344.79C390.694 1345.46 391.26 1346 391.952 1346C392.644 1346 393.21 1345.46 393.21 1344.79Z" fill="url(#paint0_linear_74_1142)"/>
<path d="M382.516 1344.79L383.208 -1.7915C383.208 -2.45621 382.705 -3 381.95 -3C381.258 -3 380.692 -2.45621 380.692 -1.7915L380 1344.79C380 1345.46 380.519 1346 381.21 1346C381.965 1346 382.516 1345.46 382.516 1344.79Z" fill="url(#paint1_linear_74_1142)"/>
<path d="M4.57764e-05 1343.79L4.57764e-05 -3.00024C0.69202 -3.00024 0.999954 -4.1647 0.999954 -3.5C0.999954 -2.8353 3.20829 -3.00024 2.51631 -3.00024V-0.58313L2.51631 1343.79C2.51631 1344.46 1.95015 1345 1.25818 1345C0.566205 1345 4.57764e-05 1344.46 4.57764e-05 1343.79Z" fill="url(#paint2_linear_74_1142)"/>
<path d="M10.6942 1343.79L10.0022 -2.7915C10.0022 -3.45621 10.5055 -4 11.2603 -4C11.9523 -4 12.5185 -3.45621 12.5185 -2.7915L13.2104 1343.79C13.2104 1344.46 12.6919 1345 12 1345C11.2451 1345 10.6942 1344.46 10.6942 1343.79Z" fill="url(#paint3_linear_74_1142)"/>
</g>
<defs>
<linearGradient id="paint0_linear_74_1142" x1="394.588" y1="2804.93" x2="273.855" y2="2803.77" gradientUnits="userSpaceOnUse">
<stop stop-color="#EEDEBC"/>
<stop offset="0.14" stop-color="#C9A885"/>
<stop offset="0.258" stop-color="#9A7A5F"/>
<stop offset="0.36" stop-color="#C9A885"/>
<stop offset="0.489" stop-color="#EEDEBC"/>
<stop offset="0.613" stop-color="#C9A885"/>
<stop offset="0.72" stop-color="#9A7A5F"/>
<stop offset="0.839" stop-color="#C9A885"/>
<stop offset="1" stop-color="#EEDEBC"/>
</linearGradient>
<linearGradient id="paint1_linear_74_1142" x1="1298.91" y1="2218.28" x2="-6101.38" y2="-1997.24" gradientUnits="userSpaceOnUse">
<stop stop-color="#EEDEBC"/>
<stop offset="0.14" stop-color="#C9A885"/>
<stop offset="0.258" stop-color="#9A7A5F"/>
<stop offset="0.36" stop-color="#C9A885"/>
<stop offset="0.489" stop-color="#EEDEBC"/>
<stop offset="0.613" stop-color="#C9A885"/>
<stop offset="0.72" stop-color="#9A7A5F"/>
<stop offset="0.839" stop-color="#C9A885"/>
<stop offset="1" stop-color="#EEDEBC"/>
</linearGradient>
<linearGradient id="paint2_linear_74_1142" x1="-1.37757" y1="2803.93" x2="119.355" y2="2802.77" gradientUnits="userSpaceOnUse">
<stop stop-color="#EEDEBC"/>
<stop offset="0.14" stop-color="#C9A885"/>
<stop offset="0.258" stop-color="#9A7A5F"/>
<stop offset="0.36" stop-color="#C9A885"/>
<stop offset="0.489" stop-color="#EEDEBC"/>
<stop offset="0.613" stop-color="#C9A885"/>
<stop offset="0.72" stop-color="#9A7A5F"/>
<stop offset="0.839" stop-color="#C9A885"/>
<stop offset="1" stop-color="#EEDEBC"/>
</linearGradient>
<linearGradient id="paint3_linear_74_1142" x1="-905.702" y1="2217.28" x2="6494.59" y2="-1998.24" gradientUnits="userSpaceOnUse">
<stop stop-color="#EEDEBC"/>
<stop offset="0.14" stop-color="#C9A885"/>
<stop offset="0.258" stop-color="#9A7A5F"/>
<stop offset="0.36" stop-color="#C9A885"/>
<stop offset="0.489" stop-color="#EEDEBC"/>
<stop offset="0.613" stop-color="#C9A885"/>
<stop offset="0.72" stop-color="#9A7A5F"/>
<stop offset="0.839" stop-color="#C9A885"/>
<stop offset="1" stop-color="#EEDEBC"/>
</linearGradient>
<clipPath id="clip0_74_1142">
<rect width="393" height="1470" fill="white"/>
</clipPath>
</defs>
</svg>
