<svg width="393" height="1470" viewBox="0 0 393 1470" fill="none" xmlns="http://www.w3.org/2000/svg">
<g clip-path="url(#clip0_74_1142)">
<path d="M393 367.975C393 368.169 393 368.362 393 368.555C393 369.569 392.882 378.911 383.485 385.211C380.47 387.311 377.574 390.208 376.038 392.67L375.801 393.033C373.733 396.147 373.083 400.419 374.087 404.258C375.092 408.023 377.397 410.703 380.411 411.717C380.648 411.765 380.904 411.837 381.18 411.934C383.366 412.441 385.553 411.717 387.444 410.051C390.163 407.516 391.345 404.258 390.695 400.999C390.163 398.102 388.213 395.784 385.79 395.205C384.489 394.915 383.189 395.35 382.066 396.291C380.47 397.74 379.761 399.695 380.116 401.65C380.411 403.316 381.534 404.692 382.953 404.982C384.43 405.344 385.908 404.185 386.144 402.375L388.213 402.882C387.74 406.068 385.199 408.168 382.598 407.516C380.352 407.009 378.52 404.909 378.047 402.23C377.515 399.261 378.579 396.291 380.825 394.264C382.421 392.815 384.312 392.308 386.144 392.67C389.454 393.467 392.054 396.509 392.764 400.419C393.591 404.692 392.054 409.037 388.745 412.079C386.381 414.251 383.544 415.12 380.766 414.396C380.451 414.348 380.155 414.276 379.879 414.179C376.156 412.948 373.319 409.617 372.078 405.054C370.837 400.347 371.605 395.205 374.146 391.367L374.383 391.077C376.097 388.325 379.17 385.284 382.48 382.966C391.109 377.1 390.872 368.7 390.872 368.555V368.482V368.41C390.991 366.962 390.577 365.513 389.808 364.427C389.04 363.268 387.917 362.544 386.617 362.472C384.726 362.254 383.071 363.992 382.894 366.237C382.834 367.034 383.071 367.903 383.603 368.555C384.371 369.496 385.258 369.858 386.026 369.496C386.735 369.207 387.208 368.41 387.267 367.613L389.336 367.758C389.217 369.641 388.213 371.234 386.735 371.886C385.199 372.61 383.425 372.031 382.066 370.365C381.18 369.207 380.707 367.541 380.825 366.02C381.061 362.327 383.78 359.575 386.794 359.865C388.626 360.082 390.281 361.096 391.404 362.761C392.468 364.21 393 366.093 393 367.975Z" fill="url(#paint0_linear_74_1142)"/>
<path d="M393 354.361C393 356.244 392.468 358.054 391.404 359.575C390.281 361.24 388.626 362.254 386.794 362.399C383.78 362.689 381.061 359.937 380.825 356.243C380.707 354.723 381.18 353.129 382.066 351.971C383.425 350.305 385.199 349.653 386.735 350.378C388.213 351.029 389.217 352.623 389.336 354.505L387.267 354.723C387.208 353.854 386.735 353.129 386.026 352.84C385.258 352.478 384.371 352.767 383.603 353.781C383.071 354.361 382.834 355.23 382.894 356.026C383.071 358.344 384.726 360.009 386.617 359.864C387.917 359.72 389.04 358.995 389.808 357.909C390.577 356.75 390.991 355.302 390.872 353.854V353.781V353.709C390.872 353.347 391.05 345.091 382.48 339.297C379.17 336.98 376.097 334.011 374.383 331.259L374.146 330.897C371.605 327.059 370.837 321.917 372.078 317.209C373.319 312.647 376.156 309.316 379.879 308.085C380.155 307.988 380.451 307.916 380.766 307.867C383.544 307.216 386.381 308.012 388.745 310.185C392.054 313.299 393.591 317.644 392.764 321.844C392.054 325.827 389.454 328.797 386.144 329.593C384.312 330.028 382.421 329.448 380.825 328.072C378.579 325.972 377.515 323.003 378.047 320.106C378.52 317.427 380.352 315.327 382.598 314.747C385.199 314.168 387.74 316.268 388.213 319.382L386.144 319.889C385.908 318.151 384.43 316.992 382.953 317.282C381.534 317.644 380.411 318.948 380.116 320.686C379.761 322.569 380.47 324.524 382.066 325.972C383.189 326.986 384.489 327.348 385.79 327.058C388.213 326.479 390.163 324.234 390.695 321.265C391.345 318.006 390.163 314.747 387.444 312.285C385.553 310.547 383.366 309.895 381.18 310.402C380.904 310.45 380.648 310.523 380.411 310.619C377.397 311.561 375.092 314.313 374.087 318.006C373.083 321.917 373.733 326.117 375.801 329.304L376.038 329.593C377.574 332.128 380.47 334.952 383.485 337.052C392.882 343.425 393 352.695 393 353.709C393 353.95 393 354.167 393 354.361Z" fill="url(#paint1_linear_74_1142)"/>
<path fill-rule="evenodd" clip-rule="evenodd" d="M381.298 361.168C381.298 363.196 380.116 364.861 378.461 365.223C374.56 366.165 369.655 362.399 369.419 362.254L368 361.168L369.419 360.082C369.655 359.864 374.56 356.099 378.461 357.04C380.116 357.475 381.298 359.068 381.298 361.168ZM378.047 362.689C378.875 362.544 379.17 361.747 379.17 361.168C379.17 360.516 378.875 359.792 378.047 359.575C376.156 359.14 373.792 360.227 372.196 361.168C373.792 362.037 376.156 363.196 378.047 362.689Z" fill="url(#paint2_linear_74_1142)"/>
<path fill-rule="evenodd" clip-rule="evenodd" d="M384.123 11.002C384.123 11.5328 384.084 12.0396 384.006 12.5221C383.716 14.5488 382.378 15.9241 380.692 15.9241C379.005 15.9241 377.668 14.5488 377.377 12.5221C376.621 7.81729 379.703 1.88187 379.819 1.59234L380.692 -3.92199e-05L381.564 1.59234C381.68 1.88187 384.123 6.58672 384.123 11.002ZM379.412 12.0154C379.529 13.0288 380.168 13.3907 380.692 13.3907C381.215 13.3907 381.855 13.0288 381.971 12.0154C382.32 9.84394 381.506 7.02106 380.692 4.99436C379.877 7.02106 379.063 9.84394 379.412 12.0154Z" fill="url(#paint3_linear_74_1142)"/>
<path fill-rule="evenodd" clip-rule="evenodd" d="M381.739 20.7736C381.739 20.8701 381.739 20.9666 381.739 21.0631C381.739 21.9317 381.506 26.6366 376.854 29.8938C375.4 30.9072 374.062 32.21 373.364 33.3681L373.248 33.5853C372.318 34.9606 372.027 36.8425 372.492 38.5797C372.899 40.2445 373.888 41.4026 375.225 41.8369C375.342 41.8852 375.439 41.9093 375.516 41.9093C376.447 42.1264 377.377 41.8369 378.191 41.1131C379.354 40.0274 379.878 38.6521 379.587 37.2768C379.354 36.1187 378.598 35.1777 377.61 34.9606C377.144 34.8158 376.621 34.9606 376.214 35.3225C375.574 35.9016 375.283 36.6253 375.4 37.3492C375.516 37.9282 375.923 38.3625 376.447 38.5073C376.854 38.5796 377.261 38.2178 377.377 37.7111L379.413 38.2178C379.122 40.0997 377.61 41.4026 376.04 41.0406C374.702 40.6787 373.713 39.4483 373.423 37.8559C373.074 36.1911 373.655 34.4539 374.993 33.2958C375.865 32.4996 376.97 32.1377 377.959 32.4272C379.761 32.7891 381.215 34.5262 381.622 36.6977C382.03 39.0863 381.215 41.475 379.471 43.1397C378.191 44.3702 376.621 44.8046 375.109 44.4427C374.954 44.3944 374.818 44.3461 374.702 44.2978C372.725 43.6464 371.154 41.8369 370.515 39.3759C369.875 36.8425 370.282 34.0196 371.62 31.9929L371.736 31.7758C372.608 30.4005 374.12 28.808 375.807 27.6499C378.482 25.8404 379.296 23.5241 379.529 22.1489C379.238 22.6556 378.831 23.0898 378.366 23.307C377.377 23.7413 376.33 23.3794 375.516 22.3661C374.935 21.7146 374.644 20.7013 374.76 19.7603C374.876 17.5888 376.447 15.924 378.249 16.0687C379.238 16.2135 380.169 16.7926 380.866 17.7336C381.448 18.6022 381.739 19.6879 381.739 20.7736ZM376.796 20.0498C376.796 20.1945 376.854 20.4117 377.028 20.6289C377.203 20.846 377.435 20.9908 377.668 20.9184C377.726 20.846 377.9 20.7013 377.9 20.4841L379.645 20.7012C379.645 20.1946 379.529 19.7603 379.296 19.3984C378.947 18.9641 378.54 18.747 378.075 18.6746C377.435 18.6022 376.854 19.1812 376.796 19.9774C376.796 19.9774 376.796 20.0015 376.796 20.0498Z" fill="url(#paint4_linear_74_1142)"/>
<path fill-rule="evenodd" clip-rule="evenodd" d="M391.219 36.9149C391.219 37.7353 391.102 38.5556 390.87 39.376C390.23 41.837 388.718 43.6465 386.741 44.2979C386.585 44.3462 386.43 44.3945 386.275 44.4427C384.763 44.8046 383.193 44.3703 381.972 43.1398C380.169 41.475 379.355 39.0864 379.82 36.6978C380.227 34.5263 381.623 32.7892 383.426 32.4273C384.472 32.1377 385.577 32.4996 386.45 33.2958C387.729 34.4539 388.311 36.1912 388.02 37.856C387.729 39.4484 386.682 40.6788 385.345 41.0407C383.833 41.4026 382.321 40.0998 382.03 38.2179L384.007 37.7111C384.124 38.2178 384.531 38.5797 384.996 38.5073C385.461 38.3626 385.868 37.9283 385.985 37.3492C386.101 36.6254 385.81 35.9016 385.228 35.3226C384.763 34.9607 384.298 34.8159 383.833 34.9607C382.844 35.1778 382.03 36.1187 381.797 37.2769C381.565 38.6521 382.088 40.0274 383.193 41.1132C384.007 41.837 384.938 42.1265 385.868 41.9093C385.985 41.9093 386.101 41.8852 386.217 41.837C387.497 41.4027 388.485 40.2446 388.95 38.5798C389.358 36.8426 389.067 34.9606 388.194 33.5854L388.078 33.4406C387.322 32.2101 385.985 30.9072 384.589 29.8939C379.82 26.6367 379.704 21.8594 379.646 21.0632C379.587 19.8327 379.936 18.6746 380.576 17.7336C381.216 16.7927 382.146 16.2136 383.193 16.0688C384.938 15.924 386.508 17.5889 386.682 19.7604C386.741 20.7013 386.45 21.7147 385.868 22.3661C385.112 23.3795 384.007 23.7413 383.077 23.307C382.553 23.0899 382.146 22.6556 381.855 22.1489C382.088 23.5242 382.902 25.8404 385.577 27.65C387.264 28.8081 388.834 30.4005 389.706 31.8482L389.765 31.9929C390.695 33.3682 391.219 35.1778 391.219 36.9149ZM381.739 20.7013L383.542 20.4842C383.542 20.7013 383.658 20.8461 383.775 20.9185C383.949 20.9909 384.182 20.8461 384.414 20.6289C384.531 20.4118 384.647 20.1946 384.589 19.9775C384.531 19.1813 384.007 18.6023 383.309 18.6746C382.844 18.747 382.437 18.9642 382.146 19.3985C381.914 19.7604 381.739 20.1946 381.739 20.7013Z" fill="url(#paint5_linear_74_1142)"/>
<path d="M381.739 38.3624L381.739 309H379.715L379.715 38.3624H381.739Z" fill="url(#paint6_linear_74_1142)"/>
<path fill-rule="evenodd" clip-rule="evenodd" d="M384.124 712.551C384.124 716.894 381.681 721.671 381.565 721.888L380.692 723.553L379.82 721.888C379.704 721.671 376.621 715.663 377.377 710.958C377.668 708.932 379.006 707.557 380.692 707.557C382.379 707.557 383.716 708.932 384.007 710.958C384.085 711.489 384.124 712.02 384.124 712.551ZM380.692 718.559C381.507 716.532 382.321 713.637 381.972 711.465C381.855 710.524 381.216 710.162 380.692 710.162C380.169 710.162 379.529 710.524 379.413 711.465C379.064 713.637 379.878 716.532 380.692 718.559Z" fill="url(#paint7_linear_74_1142)"/>
<path fill-rule="evenodd" clip-rule="evenodd" d="M381.739 702.779C381.739 703.865 381.448 704.879 380.867 705.747C380.169 706.76 379.239 707.34 378.25 707.412C376.447 707.557 374.877 705.964 374.761 703.793C374.702 702.852 374.935 701.838 375.517 701.115C376.331 700.101 377.378 699.739 378.366 700.174C378.831 700.391 379.239 700.825 379.529 701.332C379.297 700.029 378.483 697.713 375.807 695.903C374.121 694.673 372.609 693.153 371.736 691.705L371.62 691.56C370.283 689.461 369.875 686.711 370.515 684.177C371.155 681.716 372.725 679.834 374.702 679.183C374.857 679.135 374.993 679.086 375.109 679.038C376.622 678.676 378.192 679.183 379.471 680.341C381.216 682.006 382.03 684.467 381.623 686.783C381.216 689.027 379.762 690.692 377.959 691.126C376.912 691.343 375.865 691.053 374.993 690.257C373.656 689.027 373.074 687.362 373.423 685.625C373.714 684.032 374.702 682.802 376.04 682.512C377.61 682.15 379.122 683.381 379.413 685.263L377.378 685.77C377.261 685.263 376.854 684.901 376.447 685.046C375.924 685.118 375.517 685.625 375.4 686.204C375.284 686.928 375.575 687.579 376.214 688.158C376.622 688.52 377.145 688.737 377.61 688.592C378.599 688.375 379.355 687.434 379.587 686.204C379.82 684.829 379.355 683.453 378.192 682.44C377.378 681.644 376.447 681.354 375.517 681.571C375.439 681.62 375.342 681.668 375.226 681.716C373.888 682.15 372.9 683.309 372.492 684.973C372.027 686.638 372.318 688.52 373.248 689.895L373.365 690.112C374.063 691.271 375.4 692.646 376.854 693.659C381.565 696.916 381.739 701.621 381.739 702.417C381.739 702.562 381.739 702.683 381.739 702.779ZM376.796 703.503C376.796 703.503 376.796 703.527 376.796 703.576C376.854 704.299 377.436 704.879 378.075 704.879C378.541 704.806 378.948 704.517 379.297 704.082C379.529 703.72 379.646 703.286 379.646 702.852L377.901 702.997C377.901 702.779 377.726 702.635 377.668 702.635C377.436 702.562 377.203 702.635 377.029 702.924C376.854 703.069 376.796 703.286 376.796 703.503Z" fill="url(#paint8_linear_74_1142)"/>
<path fill-rule="evenodd" clip-rule="evenodd" d="M391.219 686.566C391.219 688.375 390.695 690.112 389.765 691.56L389.648 691.705C388.834 693.153 387.264 694.673 385.577 695.903C382.96 697.713 382.088 700.029 381.855 701.332C382.146 700.825 382.553 700.391 383.077 700.174C384.007 699.739 385.112 700.101 385.868 701.115C386.45 701.838 386.74 702.852 386.682 703.793C386.508 705.964 384.938 707.557 383.193 707.412C382.146 707.34 381.216 706.76 380.576 705.747C379.936 704.806 379.587 703.648 379.645 702.417C379.645 701.621 379.878 696.844 384.589 693.659C385.984 692.646 387.322 691.271 388.078 690.112L388.194 689.895C389.067 688.52 389.358 686.638 388.95 684.973C388.485 683.309 387.497 682.15 386.217 681.716C386.101 681.668 385.984 681.62 385.868 681.571C384.938 681.354 384.007 681.644 383.193 682.44C382.088 683.453 381.565 684.829 381.797 686.204C382.03 687.434 382.844 688.375 383.833 688.592C384.298 688.737 384.821 688.52 385.228 688.158C385.81 687.579 386.101 686.928 385.984 686.204C385.868 685.625 385.461 685.118 384.996 685.046C384.531 684.901 384.123 685.263 384.007 685.77L382.03 685.263C382.321 683.381 383.833 682.15 385.403 682.512C386.682 682.802 387.729 684.032 388.02 685.625C388.311 687.362 387.729 689.027 386.45 690.257C385.577 691.053 384.472 691.343 383.426 691.126C381.623 690.692 380.227 689.027 379.82 686.783C379.355 684.467 380.169 682.006 381.972 680.341C383.193 679.183 384.763 678.676 386.275 679.038C386.43 679.086 386.585 679.135 386.74 679.183C388.718 679.834 390.23 681.716 390.87 684.177C391.102 684.949 391.219 685.745 391.219 686.566ZM381.739 702.852C381.739 703.286 381.914 703.72 382.146 704.082C382.437 704.517 382.844 704.806 383.309 704.879C384.007 704.879 384.531 704.299 384.589 703.576C384.647 703.358 384.531 703.069 384.414 702.924C384.182 702.635 383.949 702.562 383.775 702.635C383.658 702.635 383.542 702.779 383.542 702.997L381.739 702.852Z" fill="url(#paint9_linear_74_1142)"/>
<path d="M381.739 414.553L381.739 685.118H379.646L379.646 414.553H381.739Z" fill="url(#paint10_linear_74_1142)"/>
<path d="M0 367.975C0 368.169 0 368.362 0 368.555C0 369.569 0.118206 378.911 9.51546 385.211C12.5297 387.311 15.4257 390.208 16.9623 392.67L17.1987 393.033C19.2673 396.147 19.9174 400.419 18.9127 404.258C17.908 408.023 15.603 410.703 12.5888 411.717C12.3524 411.765 12.0963 411.837 11.8204 411.934C9.63366 412.441 7.44688 411.717 5.55561 410.051C2.83691 407.516 1.65486 404.258 2.30499 400.999C2.83691 398.102 4.78728 395.784 7.21047 395.205C8.51072 394.915 9.81097 395.35 10.9339 396.291C12.5297 397.74 13.2389 399.695 12.8843 401.65C12.5888 403.316 11.4658 404.692 10.0474 404.982C8.56982 405.344 7.09227 404.185 6.85586 402.375L4.78728 402.882C5.2601 406.068 7.80149 408.168 10.402 407.516C12.6479 407.009 14.48 404.909 14.9529 402.23C15.4848 399.261 14.4209 396.291 12.1751 394.264C10.5793 392.815 8.68803 392.308 6.85586 392.67C3.54613 393.467 0.945636 396.509 0.23641 400.419C-0.591021 404.692 0.945636 409.037 4.25536 412.079C6.61945 414.251 9.45635 415.12 12.2342 414.396C12.5494 414.348 12.8449 414.276 13.1207 414.179C16.8441 412.948 19.681 409.617 20.9222 405.054C22.1633 400.347 21.395 395.205 18.8536 391.367L18.6172 391.077C16.9032 388.325 13.8299 385.284 10.5202 382.966C1.89127 377.1 2.12768 368.7 2.12768 368.555V368.482V368.41C2.00948 366.962 2.42319 365.513 3.19152 364.427C3.95985 363.268 5.08279 362.544 6.38304 362.472C8.27431 362.254 9.92917 363.992 10.1065 366.237C10.1656 367.034 9.92917 367.903 9.39725 368.555C8.62892 369.496 7.74239 369.858 6.97406 369.496C6.26483 369.207 5.79202 368.41 5.73292 367.613L3.66434 367.758C3.78254 369.641 4.78728 371.234 6.26484 371.886C7.80149 372.61 9.57456 372.031 10.9339 370.365C11.8204 369.207 12.2933 367.541 12.1751 366.02C11.9386 362.327 9.21995 359.575 6.20573 359.865C4.37356 360.082 2.7187 361.096 1.59576 362.761C0.53192 364.21 0 366.093 0 367.975Z" fill="url(#paint11_linear_74_1142)"/>
<path d="M0 354.361C0 356.244 0.53192 358.054 1.59576 359.575C2.7187 361.24 4.37356 362.254 6.20573 362.399C9.21995 362.689 11.9386 359.937 12.1751 356.243C12.2933 354.723 11.8204 353.129 10.9339 351.971C9.57456 350.305 7.80149 349.653 6.26484 350.378C4.78728 351.029 3.78254 352.623 3.66434 354.505L5.73292 354.723C5.79202 353.854 6.26483 353.129 6.97406 352.84C7.74239 352.478 8.62892 352.767 9.39725 353.781C9.92917 354.361 10.1656 355.23 10.1065 356.026C9.92917 358.344 8.27431 360.009 6.38304 359.864C5.08279 359.72 3.95985 358.995 3.19152 357.909C2.42319 356.75 2.00948 355.302 2.12768 353.854V353.781V353.709C2.12768 353.347 1.95037 345.091 10.5202 339.297C13.8299 336.98 16.9032 334.011 18.6172 331.259L18.8536 330.897C21.395 327.059 22.1633 321.917 20.9222 317.209C19.681 312.647 16.8441 309.316 13.1207 308.085C12.8449 307.988 12.5494 307.916 12.2342 307.867C9.45635 307.216 6.61945 308.012 4.25536 310.185C0.945636 313.299 -0.591021 317.644 0.23641 321.844C0.945636 325.827 3.54613 328.797 6.85586 329.593C8.68803 330.028 10.5793 329.448 12.1751 328.072C14.4209 325.972 15.4848 323.003 14.9529 320.106C14.48 317.427 12.6479 315.327 10.402 314.747C7.80149 314.168 5.2601 316.268 4.78728 319.382L6.85586 319.889C7.09227 318.151 8.56982 316.992 10.0474 317.282C11.4658 317.644 12.5888 318.948 12.8843 320.686C13.2389 322.569 12.5297 324.524 10.9339 325.972C9.81097 326.986 8.51072 327.348 7.21047 327.058C4.78728 326.479 2.83691 324.234 2.30499 321.265C1.65486 318.006 2.83691 314.747 5.55561 312.285C7.44688 310.547 9.63366 309.895 11.8204 310.402C12.0963 310.45 12.3524 310.523 12.5888 310.619C15.603 311.561 17.908 314.313 18.9127 318.006C19.9174 321.917 19.2673 326.117 17.1987 329.304L16.9623 329.593C15.4257 332.128 12.5297 334.952 9.51546 337.052C0.118206 343.425 0 352.695 0 353.709C0 353.95 0 354.167 0 354.361Z" fill="url(#paint12_linear_74_1142)"/>
<path fill-rule="evenodd" clip-rule="evenodd" d="M11.7019 361.168C11.7019 363.196 12.884 364.861 14.5388 365.223C18.4396 366.165 23.345 362.399 23.5814 362.254L24.9999 361.168L23.5814 360.082C23.345 359.864 18.4396 356.099 14.5388 357.04C12.884 357.475 11.7019 359.068 11.7019 361.168ZM14.9525 362.689C14.1251 362.544 13.8296 361.747 13.8296 361.168C13.8296 360.516 14.1251 359.792 14.9525 359.575C16.8438 359.14 19.2079 360.227 20.8036 361.168C19.2079 362.037 16.8438 363.196 14.9525 362.689Z" fill="url(#paint13_linear_74_1142)"/>
<path fill-rule="evenodd" clip-rule="evenodd" d="M8.8772 11.002C8.8772 11.5328 8.91597 12.0396 8.99351 12.5221C9.28429 14.5488 10.6219 15.9241 12.3084 15.9241C13.9949 15.9241 15.3325 14.5488 15.6232 12.5221C16.3793 7.81729 13.297 1.88187 13.1807 1.59234L12.3084 -3.92199e-05L11.436 1.59234C11.3197 1.88187 8.8772 6.58672 8.8772 11.002ZM13.5878 12.0154C13.4715 13.0288 12.8318 13.3907 12.3084 13.3907C11.785 13.3907 11.1453 13.0288 11.029 12.0154C10.68 9.84394 11.4942 7.02106 12.3084 4.99436C13.1226 7.02106 13.9367 9.84394 13.5878 12.0154Z" fill="url(#paint14_linear_74_1142)"/>
<path fill-rule="evenodd" clip-rule="evenodd" d="M11.2612 20.7736C11.2612 20.8701 11.2612 20.9666 11.2612 21.0631C11.2612 21.9317 11.4939 26.6366 16.1463 29.8938C17.6002 30.9072 18.9378 32.21 19.6356 33.3681L19.7519 33.5853C20.6824 34.9606 20.9732 36.8425 20.508 38.5797C20.1009 40.2445 19.1122 41.4026 17.7747 41.8369C17.6583 41.8852 17.5614 41.9093 17.4839 41.9093C16.5534 42.1264 15.6229 41.8369 14.8087 41.1131C13.6456 40.0274 13.1222 38.6521 13.413 37.2768C13.6456 36.1187 14.4016 35.1777 15.3903 34.9606C15.8555 34.8158 16.3789 34.9606 16.786 35.3225C17.4257 35.9016 17.7165 36.6253 17.6002 37.3492C17.4839 37.9282 17.0768 38.3625 16.5534 38.5073C16.1463 38.5796 15.7392 38.2178 15.6229 37.7111L13.5875 38.2178C13.8782 40.0997 15.3903 41.4026 16.9605 41.0406C18.2981 40.6787 19.2867 39.4483 19.5775 37.8559C19.9264 36.1911 19.3449 34.4539 18.0073 33.2958C17.1349 32.4996 16.03 32.1377 15.0413 32.4272C13.2385 32.7891 11.7846 34.5262 11.3775 36.6977C10.9705 39.0863 11.7846 41.475 13.5293 43.1397C14.8087 44.3702 16.3789 44.8046 17.891 44.4427C18.046 44.3944 18.1817 44.3461 18.2981 44.2978C20.2753 43.6464 21.8455 41.8369 22.4853 39.3759C23.125 36.8425 22.7179 34.0196 21.3803 31.9929L21.264 31.7758C20.3917 30.4005 18.8796 28.808 17.1931 27.6499C14.5179 25.8404 13.7038 23.5241 13.4711 22.1489C13.7619 22.6556 14.169 23.0898 14.6343 23.307C15.6229 23.7413 16.6697 23.3794 17.4839 22.3661C18.0654 21.7146 18.3562 20.7013 18.2399 19.7603C18.1236 17.5888 16.5534 15.924 14.7506 16.0687C13.7619 16.2135 12.8314 16.7926 12.1336 17.7336C11.552 18.6022 11.2612 19.6879 11.2612 20.7736ZM16.2045 20.0498C16.2045 20.1945 16.1463 20.4117 15.9718 20.6289C15.7974 20.846 15.5647 20.9908 15.3321 20.9184C15.274 20.846 15.0995 20.7013 15.0995 20.4841L13.3548 20.7012C13.3548 20.1946 13.4711 19.7603 13.7038 19.3984C14.0527 18.9641 14.4598 18.747 14.925 18.6746C15.5647 18.6022 16.1463 19.1812 16.2045 19.9774C16.2045 19.9774 16.2045 20.0015 16.2045 20.0498Z" fill="url(#paint15_linear_74_1142)"/>
<path fill-rule="evenodd" clip-rule="evenodd" d="M1.78149 36.9149C1.78149 37.7353 1.8978 38.5556 2.13043 39.376C2.77014 41.837 4.28218 43.6465 6.25947 44.2979C6.41455 44.3462 6.56964 44.3945 6.72472 44.4427C8.23677 44.8046 9.80697 44.3703 11.0282 43.1398C12.8311 41.475 13.6452 39.0864 13.18 36.6978C12.7729 34.5263 11.3772 32.7892 9.57434 32.4273C8.52754 32.1377 7.42259 32.4996 6.55025 33.2958C5.27083 34.4539 4.68927 36.1912 4.98005 37.856C5.27083 39.4484 6.31763 40.6788 7.65521 41.0407C9.16725 41.4026 10.6793 40.0998 10.9701 38.2179L8.99279 37.7111C8.87648 38.2178 8.46939 38.5797 8.00414 38.5073C7.5389 38.3626 7.13181 37.9283 7.0155 37.3492C6.89919 36.6254 7.18996 35.9016 7.77152 35.3226C8.23676 34.9607 8.70201 34.8159 9.16725 34.9607C10.1559 35.1778 10.9701 36.1187 11.2027 37.2769C11.4353 38.6521 10.9119 40.0274 9.80697 41.1132C8.99279 41.837 8.0623 42.1265 7.13181 41.9093C7.0155 41.9093 6.89919 41.8852 6.78287 41.837C5.50345 41.4027 4.51481 40.2446 4.04956 38.5798C3.64247 36.8426 3.93325 34.9606 4.80558 33.5854L4.9219 33.4406C5.67792 32.2101 7.0155 30.9072 8.41123 29.8939C13.18 26.6367 13.2963 21.8594 13.3545 21.0632C13.4126 19.8327 13.0637 18.6746 12.424 17.7336C11.7843 16.7927 10.8538 16.2136 9.80697 16.0688C8.0623 15.924 6.4921 17.5889 6.31763 19.7604C6.25947 20.7013 6.55025 21.7147 7.13181 22.3661C7.88783 23.3795 8.99279 23.7413 9.92328 23.307C10.4467 23.0899 10.8538 22.6556 11.1445 22.1489C10.9119 23.5242 10.0977 25.8404 7.42259 27.65C5.73607 28.8081 4.16587 30.4005 3.29354 31.8482L3.23538 31.9929C2.30489 33.3682 1.78149 35.1778 1.78149 36.9149ZM11.2609 20.7013L9.45803 20.4842C9.45803 20.7013 9.34172 20.8461 9.22541 20.9185C9.05094 20.9909 8.81832 20.8461 8.5857 20.6289C8.46939 20.4118 8.35308 20.1946 8.41123 19.9775C8.46939 19.1813 8.99279 18.6023 9.69065 18.6746C10.1559 18.747 10.563 18.9642 10.8538 19.3985C11.0864 19.7604 11.2609 20.1946 11.2609 20.7013Z" fill="url(#paint16_linear_74_1142)"/>
<path d="M11.2612 38.3624L11.2612 309H13.2853L13.2853 38.3624H11.2612Z" fill="url(#paint17_linear_74_1142)"/>
<path fill-rule="evenodd" clip-rule="evenodd" d="M8.87646 712.551C8.87646 716.894 11.319 721.671 11.4353 721.888L12.3077 723.553L13.18 721.888C13.2963 721.671 16.3786 715.663 15.6226 710.958C15.3318 708.932 13.9942 707.557 12.3077 707.557C10.6211 707.557 9.28356 708.932 8.99278 710.958C8.91524 711.489 8.87646 712.02 8.87646 712.551ZM12.3077 718.559C11.4935 716.532 10.6793 713.637 11.0282 711.465C11.1446 710.524 11.7843 710.162 12.3077 710.162C12.8311 710.162 13.4708 710.524 13.5871 711.465C13.936 713.637 13.1219 716.532 12.3077 718.559Z" fill="url(#paint18_linear_74_1142)"/>
<path fill-rule="evenodd" clip-rule="evenodd" d="M11.2607 702.779C11.2607 703.865 11.5515 704.879 12.1331 705.747C12.831 706.76 13.7615 707.34 14.7501 707.412C16.5529 707.557 18.1232 705.964 18.2395 703.793C18.2976 702.852 18.065 701.838 17.4834 701.115C16.6693 700.101 15.6224 699.739 14.6338 700.174C14.1685 700.391 13.7615 700.825 13.4707 701.332C13.7033 700.029 14.5175 697.713 17.1927 695.903C18.8792 694.673 20.3913 693.153 21.2636 691.705L21.3799 691.56C22.7175 689.461 23.1246 686.711 22.4849 684.177C21.8452 681.716 20.2749 679.834 18.2976 679.183C18.1425 679.135 18.0068 679.086 17.8905 679.038C16.3785 678.676 14.8083 679.183 13.5288 680.341C11.7841 682.006 10.97 684.467 11.3771 686.783C11.7841 689.027 13.238 690.692 15.0409 691.126C16.0877 691.343 17.1345 691.053 18.0069 690.257C19.3444 689.027 19.926 687.362 19.5771 685.625C19.2863 684.032 18.2976 682.802 16.96 682.512C15.3898 682.15 13.8778 683.381 13.587 685.263L15.6224 685.77C15.7388 685.263 16.1459 684.901 16.5529 685.046C17.0764 685.118 17.4834 685.625 17.5998 686.204C17.7161 686.928 17.4253 687.579 16.7856 688.158C16.3785 688.52 15.8551 688.737 15.3898 688.592C14.4012 688.375 13.6451 687.434 13.4125 686.204C13.1799 684.829 13.6451 683.453 14.8083 682.44C15.6225 681.644 16.5529 681.354 17.4834 681.571C17.561 681.62 17.6579 681.668 17.7742 681.716C19.1118 682.15 20.1005 683.309 20.5076 684.973C20.9728 686.638 20.682 688.52 19.7515 689.895L19.6352 690.112C18.9373 691.271 17.5998 692.646 16.1459 693.659C11.4352 696.916 11.2607 701.621 11.2607 702.417C11.2607 702.562 11.2607 702.683 11.2607 702.779ZM16.204 703.503C16.204 703.503 16.204 703.527 16.204 703.576C16.1459 704.299 15.5643 704.879 14.9246 704.879C14.4593 704.806 14.0522 704.517 13.7033 704.082C13.4707 703.72 13.3544 703.286 13.3544 702.852L15.099 702.997C15.099 702.779 15.2735 702.635 15.3317 702.635C15.5643 702.562 15.7969 702.635 15.9714 702.924C16.1459 703.069 16.204 703.286 16.204 703.503Z" fill="url(#paint19_linear_74_1142)"/>
<path fill-rule="evenodd" clip-rule="evenodd" d="M1.78149 686.566C1.78149 688.375 2.3049 690.112 3.2354 691.56L3.35171 691.705C4.16589 693.153 5.73611 694.673 7.42263 695.903C10.0397 697.713 10.912 700.029 11.1446 701.332C10.8538 700.825 10.4468 700.391 9.92335 700.174C8.99285 699.739 7.88788 700.101 7.13185 701.115C6.55029 701.838 6.25951 702.852 6.31767 703.793C6.49214 705.964 8.06235 707.557 9.80704 707.412C10.8538 707.34 11.7843 706.76 12.4241 705.747C13.0638 704.806 13.4127 703.648 13.3546 702.417C13.3546 701.621 13.1219 696.844 8.41129 693.659C7.01554 692.646 5.67795 691.271 4.92192 690.112L4.80561 689.895C3.93327 688.52 3.64249 686.638 4.04958 684.973C4.51483 683.309 5.50348 682.15 6.78292 681.716C6.89923 681.668 7.01554 681.62 7.13185 681.571C8.06235 681.354 8.99285 681.644 9.80704 682.44C10.912 683.453 11.4354 684.829 11.2028 686.204C10.9702 687.434 10.156 688.375 9.16732 688.592C8.70207 688.737 8.17867 688.52 7.77157 688.158C7.19001 687.579 6.89923 686.928 7.01554 686.204C7.13186 685.625 7.53895 685.118 8.0042 685.046C8.46944 684.901 8.87654 685.263 8.99285 685.77L10.9702 685.263C10.6794 683.381 9.16732 682.15 7.59711 682.512C6.31767 682.802 5.27086 684.032 4.98008 685.625C4.6893 687.362 5.27086 689.027 6.55029 690.257C7.42263 691.053 8.5276 691.343 9.57441 691.126C11.3773 690.692 12.773 689.027 13.1801 686.783C13.6453 684.467 12.8312 682.006 11.0283 680.341C9.80704 679.183 8.23682 678.676 6.72476 679.038C6.56968 679.086 6.4146 679.135 6.25951 679.183C4.2822 679.834 2.77015 681.716 2.13043 684.177C1.89781 684.949 1.78149 685.745 1.78149 686.566ZM11.2609 702.852C11.2609 703.286 11.0865 703.72 10.8538 704.082C10.5631 704.517 10.156 704.806 9.69072 704.879C8.99285 704.879 8.46945 704.299 8.41129 703.576C8.35313 703.358 8.46944 703.069 8.58576 702.924C8.81838 702.635 9.05101 702.562 9.22548 702.635C9.34179 702.635 9.4581 702.779 9.4581 702.997L11.2609 702.852Z" fill="url(#paint20_linear_74_1142)"/>
<path d="M11.2607 414.553L11.2607 685.118H13.3544L13.3544 414.553H11.2607Z" fill="url(#paint21_linear_74_1142)"/>
<path d="M393 1101.58C393 1101.38 393 1101.19 393 1101C393 1099.98 392.882 1090.64 383.485 1084.34C380.47 1082.24 377.574 1079.34 376.038 1076.88L375.801 1076.52C373.733 1073.41 373.083 1069.13 374.087 1065.3C375.092 1061.53 377.397 1058.85 380.411 1057.84C380.648 1057.79 380.904 1057.72 381.18 1057.62C383.366 1057.11 385.553 1057.84 387.444 1059.5C390.163 1062.04 391.345 1065.3 390.695 1068.55C390.163 1071.45 388.213 1073.77 385.79 1074.35C384.489 1074.64 383.189 1074.2 382.066 1073.26C380.47 1071.81 379.761 1069.86 380.116 1067.9C380.411 1066.24 381.534 1064.86 382.953 1064.57C384.43 1064.21 385.908 1065.37 386.144 1067.18L388.213 1066.67C387.74 1063.48 385.199 1061.38 382.598 1062.04C380.352 1062.54 378.52 1064.64 378.047 1067.32C377.515 1070.29 378.579 1073.26 380.825 1075.29C382.421 1076.74 384.312 1077.24 386.144 1076.88C389.454 1076.09 392.054 1073.04 392.764 1069.13C393.591 1064.86 392.054 1060.52 388.745 1057.47C386.381 1055.3 383.544 1054.43 380.766 1055.16C380.451 1055.21 380.155 1055.28 379.879 1055.37C376.156 1056.61 373.319 1059.94 372.078 1064.5C370.837 1069.21 371.605 1074.35 374.146 1078.19L374.383 1078.48C376.097 1081.23 379.17 1084.27 382.48 1086.59C391.109 1092.45 390.872 1100.85 390.872 1101V1101.07V1101.14C390.991 1102.59 390.577 1104.04 389.808 1105.13C389.04 1106.28 387.917 1107.01 386.617 1107.08C384.726 1107.3 383.071 1105.56 382.894 1103.32C382.834 1102.52 383.071 1101.65 383.603 1101C384.371 1100.06 385.258 1099.69 386.026 1100.06C386.735 1100.35 387.208 1101.14 387.267 1101.94L389.336 1101.79C389.217 1099.91 388.213 1098.32 386.735 1097.67C385.199 1096.94 383.425 1097.52 382.066 1099.19C381.18 1100.35 380.707 1102.01 380.825 1103.53C381.061 1107.23 383.78 1109.98 386.794 1109.69C388.626 1109.47 390.281 1108.46 391.404 1106.79C392.468 1105.34 393 1103.46 393 1101.58Z" fill="url(#paint22_linear_74_1142)"/>
<path d="M393 1115.19C393 1113.31 392.468 1111.5 391.404 1109.98C390.281 1108.31 388.626 1107.3 386.794 1107.15C383.78 1106.86 381.061 1109.62 380.825 1113.31C380.707 1114.83 381.18 1116.42 382.066 1117.58C383.425 1119.25 385.199 1119.9 386.735 1119.18C388.213 1118.52 389.217 1116.93 389.336 1115.05L387.267 1114.83C387.208 1115.7 386.735 1116.42 386.026 1116.71C385.258 1117.08 384.371 1116.79 383.603 1115.77C383.071 1115.19 382.834 1114.32 382.894 1113.53C383.071 1111.21 384.726 1109.54 386.617 1109.69C387.917 1109.83 389.04 1110.56 389.808 1111.64C390.577 1112.8 390.991 1114.25 390.872 1115.7V1115.77V1115.84C390.872 1116.21 391.05 1124.46 382.48 1130.26C379.17 1132.57 376.097 1135.54 374.383 1138.29L374.146 1138.66C371.605 1142.49 370.837 1147.64 372.078 1152.34C373.319 1156.91 376.156 1160.24 379.879 1161.47C380.155 1161.56 380.451 1161.64 380.766 1161.69C383.544 1162.34 386.381 1161.54 388.745 1159.37C392.054 1156.25 393.591 1151.91 392.764 1147.71C392.054 1143.73 389.454 1140.76 386.144 1139.96C384.312 1139.53 382.421 1140.1 380.825 1141.48C378.579 1143.58 377.515 1146.55 378.047 1149.45C378.52 1152.13 380.352 1154.23 382.598 1154.81C385.199 1155.39 387.74 1153.28 388.213 1150.17L386.144 1149.66C385.908 1151.4 384.43 1152.56 382.953 1152.27C381.534 1151.91 380.411 1150.61 380.116 1148.87C379.761 1146.98 380.47 1145.03 382.066 1143.58C383.189 1142.57 384.489 1142.2 385.79 1142.49C388.213 1143.07 390.163 1145.32 390.695 1148.29C391.345 1151.55 390.163 1154.81 387.444 1157.27C385.553 1159.01 383.366 1159.66 381.18 1159.15C380.904 1159.1 380.648 1159.03 380.411 1158.93C377.397 1157.99 375.092 1155.24 374.087 1151.55C373.083 1147.64 373.733 1143.44 375.801 1140.25L376.038 1139.96C377.574 1137.43 380.47 1134.6 383.485 1132.5C392.882 1126.13 393 1116.86 393 1115.84C393 1115.6 393 1115.39 393 1115.19Z" fill="url(#paint23_linear_74_1142)"/>
<path fill-rule="evenodd" clip-rule="evenodd" d="M381.298 1108.38C381.298 1106.36 380.116 1104.69 378.461 1104.33C374.56 1103.39 369.655 1107.15 369.419 1107.3L368 1108.38L369.419 1109.47C369.655 1109.69 374.56 1113.45 378.461 1112.51C380.116 1112.08 381.298 1110.49 381.298 1108.38ZM378.047 1106.86C378.875 1107.01 379.17 1107.81 379.17 1108.38C379.17 1109.04 378.875 1109.76 378.047 1109.98C376.156 1110.41 373.792 1109.33 372.196 1108.38C373.792 1107.52 376.156 1106.36 378.047 1106.86Z" fill="url(#paint24_linear_74_1142)"/>
<path fill-rule="evenodd" clip-rule="evenodd" d="M384.123 1458.55C384.123 1458.02 384.084 1457.51 384.006 1457.03C383.716 1455 382.378 1453.63 380.692 1453.63C379.005 1453.63 377.668 1455 377.377 1457.03C376.621 1461.74 379.703 1467.67 379.819 1467.96L380.692 1469.55L381.564 1467.96C381.68 1467.67 384.123 1462.97 384.123 1458.55ZM379.412 1457.54C379.529 1456.52 380.168 1456.16 380.692 1456.16C381.215 1456.16 381.855 1456.52 381.971 1457.54C382.32 1459.71 381.506 1462.53 380.692 1464.56C379.877 1462.53 379.063 1459.71 379.412 1457.54Z" fill="url(#paint25_linear_74_1142)"/>
<path fill-rule="evenodd" clip-rule="evenodd" d="M381.739 1448.78C381.739 1448.68 381.739 1448.59 381.739 1448.49C381.739 1447.62 381.506 1442.92 376.854 1439.66C375.4 1438.65 374.062 1437.34 373.364 1436.18L373.248 1435.97C372.318 1434.59 372.027 1432.71 372.492 1430.97C372.899 1429.31 373.888 1428.15 375.225 1427.72C375.342 1427.67 375.439 1427.64 375.516 1427.64C376.447 1427.43 377.377 1427.72 378.191 1428.44C379.354 1429.53 379.878 1430.9 379.587 1432.28C379.354 1433.43 378.598 1434.38 377.61 1434.59C377.144 1434.74 376.621 1434.59 376.214 1434.23C375.574 1433.65 375.283 1432.93 375.4 1432.2C375.516 1431.62 375.923 1431.19 376.447 1431.05C376.854 1430.97 377.261 1431.34 377.377 1431.84L379.413 1431.34C379.122 1429.45 377.61 1428.15 376.04 1428.51C374.702 1428.87 373.713 1430.1 373.423 1431.7C373.074 1433.36 373.655 1435.1 374.993 1436.26C375.865 1437.05 376.97 1437.42 377.959 1437.13C379.761 1436.76 381.215 1435.03 381.622 1432.86C382.03 1430.47 381.215 1428.08 379.471 1426.41C378.191 1425.18 376.621 1424.75 375.109 1425.11C374.954 1425.16 374.818 1425.21 374.702 1425.26C372.725 1425.91 371.154 1427.72 370.515 1430.18C369.875 1432.71 370.282 1435.53 371.62 1437.56L371.736 1437.78C372.608 1439.15 374.12 1440.74 375.807 1441.9C378.482 1443.71 379.296 1446.03 379.529 1447.4C379.238 1446.9 378.831 1446.46 378.366 1446.25C377.377 1445.81 376.33 1446.17 375.516 1447.19C374.935 1447.84 374.644 1448.85 374.76 1449.79C374.876 1451.96 376.447 1453.63 378.249 1453.48C379.238 1453.34 380.169 1452.76 380.866 1451.82C381.448 1450.95 381.739 1449.86 381.739 1448.78ZM376.796 1449.5C376.796 1449.36 376.854 1449.14 377.028 1448.92C377.203 1448.71 377.435 1448.56 377.668 1448.63C377.726 1448.71 377.9 1448.85 377.9 1449.07L379.645 1448.85C379.645 1449.36 379.529 1449.79 379.296 1450.15C378.947 1450.59 378.54 1450.81 378.075 1450.88C377.435 1450.95 376.854 1450.37 376.796 1449.58C376.796 1449.58 376.796 1449.55 376.796 1449.5Z" fill="url(#paint26_linear_74_1142)"/>
<path fill-rule="evenodd" clip-rule="evenodd" d="M391.219 1432.64C391.219 1431.82 391.102 1431 390.87 1430.18C390.23 1427.72 388.718 1425.91 386.741 1425.26C386.585 1425.21 386.43 1425.16 386.275 1425.11C384.763 1424.75 383.193 1425.18 381.972 1426.41C380.169 1428.08 379.355 1430.47 379.82 1432.86C380.227 1435.03 381.623 1436.76 383.426 1437.13C384.472 1437.42 385.577 1437.05 386.45 1436.26C387.729 1435.1 388.311 1433.36 388.02 1431.7C387.729 1430.1 386.682 1428.87 385.345 1428.51C383.833 1428.15 382.321 1429.45 382.03 1431.34L384.007 1431.84C384.124 1431.34 384.531 1430.97 384.996 1431.05C385.461 1431.19 385.868 1431.62 385.985 1432.2C386.101 1432.93 385.81 1433.65 385.228 1434.23C384.763 1434.59 384.298 1434.74 383.833 1434.59C382.844 1434.38 382.03 1433.43 381.797 1432.28C381.565 1430.9 382.088 1429.53 383.193 1428.44C384.007 1427.72 384.938 1427.43 385.868 1427.64C385.985 1427.64 386.101 1427.67 386.217 1427.72C387.497 1428.15 388.485 1429.31 388.95 1430.97C389.358 1432.71 389.067 1434.59 388.194 1435.97L388.078 1436.11C387.322 1437.34 385.985 1438.65 384.589 1439.66C379.82 1442.92 379.704 1447.69 379.646 1448.49C379.587 1449.72 379.936 1450.88 380.576 1451.82C381.216 1452.76 382.146 1453.34 383.193 1453.48C384.938 1453.63 386.508 1451.96 386.682 1449.79C386.741 1448.85 386.45 1447.84 385.868 1447.19C385.112 1446.17 384.007 1445.81 383.077 1446.25C382.553 1446.46 382.146 1446.9 381.855 1447.4C382.088 1446.03 382.902 1443.71 385.577 1441.9C387.264 1440.74 388.834 1439.15 389.706 1437.7L389.765 1437.56C390.695 1436.18 391.219 1434.38 391.219 1432.64ZM381.739 1448.85L383.542 1449.07C383.542 1448.85 383.658 1448.71 383.775 1448.63C383.949 1448.56 384.182 1448.71 384.414 1448.92C384.531 1449.14 384.647 1449.36 384.589 1449.58C384.531 1450.37 384.007 1450.95 383.309 1450.88C382.844 1450.81 382.437 1450.59 382.146 1450.15C381.914 1449.79 381.739 1449.36 381.739 1448.85Z" fill="url(#paint27_linear_74_1142)"/>
<path d="M381.739 1431.19L381.739 1160.55H379.715L379.715 1431.19H381.739Z" fill="url(#paint28_linear_74_1142)"/>
<path fill-rule="evenodd" clip-rule="evenodd" d="M384.124 757.002C384.124 752.659 381.681 747.882 381.565 747.665L380.692 746L379.82 747.665C379.704 747.882 376.621 753.89 377.377 758.594C377.668 760.621 379.006 761.996 380.692 761.996C382.379 761.996 383.716 760.621 384.007 758.594C384.085 758.064 384.124 757.533 384.124 757.002ZM380.692 750.994C381.507 753.021 382.321 755.916 381.972 758.088C381.855 759.029 381.216 759.391 380.692 759.391C380.169 759.391 379.529 759.029 379.413 758.088C379.064 755.916 379.878 753.021 380.692 750.994Z" fill="url(#paint29_linear_74_1142)"/>
<path fill-rule="evenodd" clip-rule="evenodd" d="M381.739 766.774C381.739 765.688 381.448 764.674 380.867 763.806C380.169 762.793 379.239 762.213 378.25 762.141C376.447 761.996 374.877 763.589 374.761 765.76C374.702 766.701 374.935 767.715 375.517 768.438C376.331 769.452 377.378 769.814 378.366 769.379C378.831 769.162 379.239 768.728 379.529 768.221C379.297 769.524 378.483 771.84 375.807 773.65C374.121 774.88 372.609 776.4 371.736 777.848L371.62 777.993C370.283 780.092 369.875 782.842 370.515 785.376C371.155 787.837 372.725 789.719 374.702 790.37C374.857 790.418 374.993 790.467 375.109 790.515C376.622 790.877 378.192 790.37 379.471 789.212C381.216 787.547 382.03 785.086 381.623 782.77C381.216 780.526 379.762 778.861 377.959 778.427C376.912 778.21 375.865 778.5 374.993 779.296C373.656 780.526 373.074 782.191 373.423 783.928C373.714 785.521 374.702 786.751 376.04 787.041C377.61 787.403 379.122 786.172 379.413 784.29L377.378 783.783C377.261 784.29 376.854 784.652 376.447 784.507C375.924 784.435 375.517 783.928 375.4 783.349C375.284 782.625 375.575 781.974 376.214 781.395C376.622 781.033 377.145 780.816 377.61 780.96C378.599 781.178 379.355 782.119 379.587 783.349C379.82 784.724 379.355 786.1 378.192 787.113C377.378 787.909 376.447 788.199 375.517 787.982C375.439 787.933 375.342 787.885 375.226 787.837C373.888 787.403 372.9 786.244 372.492 784.58C372.027 782.915 372.318 781.033 373.248 779.658L373.365 779.44C374.063 778.282 375.4 776.907 376.854 775.894C381.565 772.637 381.739 767.932 381.739 767.135C381.739 766.991 381.739 766.87 381.739 766.774ZM376.796 766.05C376.796 766.05 376.796 766.026 376.796 765.977C376.854 765.254 377.436 764.674 378.075 764.674C378.541 764.747 378.948 765.036 379.297 765.471C379.529 765.833 379.646 766.267 379.646 766.701L377.901 766.556C377.901 766.774 377.726 766.918 377.668 766.918C377.436 766.991 377.203 766.918 377.029 766.629C376.854 766.484 376.796 766.267 376.796 766.05Z" fill="url(#paint30_linear_74_1142)"/>
<path fill-rule="evenodd" clip-rule="evenodd" d="M391.219 782.987C391.219 781.178 390.695 779.44 389.765 777.993L389.648 777.848C388.834 776.4 387.264 774.88 385.577 773.65C382.96 771.84 382.088 769.524 381.855 768.221C382.146 768.728 382.553 769.162 383.077 769.379C384.007 769.814 385.112 769.452 385.868 768.438C386.45 767.715 386.74 766.701 386.682 765.76C386.508 763.589 384.938 761.996 383.193 762.141C382.146 762.213 381.216 762.793 380.576 763.806C379.936 764.747 379.587 765.905 379.645 767.135C379.645 767.932 379.878 772.709 384.589 775.894C385.984 776.907 387.322 778.282 388.078 779.44L388.194 779.658C389.067 781.033 389.358 782.915 388.95 784.58C388.485 786.244 387.497 787.403 386.217 787.837C386.101 787.885 385.984 787.933 385.868 787.982C384.938 788.199 384.007 787.909 383.193 787.113C382.088 786.1 381.565 784.724 381.797 783.349C382.03 782.119 382.844 781.178 383.833 780.96C384.298 780.816 384.821 781.033 385.228 781.395C385.81 781.974 386.101 782.625 385.984 783.349C385.868 783.928 385.461 784.435 384.996 784.507C384.531 784.652 384.123 784.29 384.007 783.783L382.03 784.29C382.321 786.172 383.833 787.403 385.403 787.041C386.682 786.751 387.729 785.521 388.02 783.928C388.311 782.191 387.729 780.526 386.45 779.296C385.577 778.5 384.472 778.21 383.426 778.427C381.623 778.861 380.227 780.526 379.82 782.77C379.355 785.086 380.169 787.547 381.972 789.212C383.193 790.37 384.763 790.877 386.275 790.515C386.43 790.467 386.585 790.418 386.74 790.37C388.718 789.719 390.23 787.837 390.87 785.376C391.102 784.604 391.219 783.808 391.219 782.987ZM381.739 766.701C381.739 766.267 381.914 765.833 382.146 765.471C382.437 765.036 382.844 764.747 383.309 764.674C384.007 764.674 384.531 765.254 384.589 765.977C384.647 766.194 384.531 766.484 384.414 766.629C384.182 766.918 383.949 766.991 383.775 766.918C383.658 766.918 383.542 766.774 383.542 766.556L381.739 766.701Z" fill="url(#paint31_linear_74_1142)"/>
<path d="M381.739 1055L381.739 784.435H379.646L379.646 1055H381.739Z" fill="url(#paint32_linear_74_1142)"/>
<path d="M0 1101.58C0 1101.38 0 1101.19 0 1101C0 1099.98 0.118206 1090.64 9.51546 1084.34C12.5297 1082.24 15.4257 1079.34 16.9623 1076.88L17.1987 1076.52C19.2673 1073.41 19.9174 1069.13 18.9127 1065.3C17.908 1061.53 15.603 1058.85 12.5888 1057.84C12.3524 1057.79 12.0963 1057.72 11.8204 1057.62C9.63366 1057.11 7.44688 1057.84 5.55561 1059.5C2.83691 1062.04 1.65486 1065.3 2.30499 1068.55C2.83691 1071.45 4.78728 1073.77 7.21047 1074.35C8.51072 1074.64 9.81097 1074.2 10.9339 1073.26C12.5297 1071.81 13.2389 1069.86 12.8843 1067.9C12.5888 1066.24 11.4658 1064.86 10.0474 1064.57C8.56982 1064.21 7.09227 1065.37 6.85586 1067.18L4.78728 1066.67C5.2601 1063.48 7.80149 1061.38 10.402 1062.04C12.6479 1062.54 14.48 1064.64 14.9529 1067.32C15.4848 1070.29 14.4209 1073.26 12.1751 1075.29C10.5793 1076.74 8.68803 1077.24 6.85586 1076.88C3.54613 1076.09 0.945636 1073.04 0.23641 1069.13C-0.591021 1064.86 0.945636 1060.52 4.25536 1057.47C6.61945 1055.3 9.45635 1054.43 12.2342 1055.16C12.5494 1055.21 12.8449 1055.28 13.1207 1055.37C16.8441 1056.61 19.681 1059.94 20.9222 1064.5C22.1633 1069.21 21.395 1074.35 18.8536 1078.19L18.6172 1078.48C16.9032 1081.23 13.8299 1084.27 10.5202 1086.59C1.89127 1092.45 2.12768 1100.85 2.12768 1101V1101.07V1101.14C2.00948 1102.59 2.42319 1104.04 3.19152 1105.13C3.95985 1106.28 5.08279 1107.01 6.38304 1107.08C8.27431 1107.3 9.92917 1105.56 10.1065 1103.32C10.1656 1102.52 9.92917 1101.65 9.39725 1101C8.62892 1100.06 7.74239 1099.69 6.97406 1100.06C6.26483 1100.35 5.79202 1101.14 5.73292 1101.94L3.66434 1101.79C3.78254 1099.91 4.78728 1098.32 6.26484 1097.67C7.80149 1096.94 9.57456 1097.52 10.9339 1099.19C11.8204 1100.35 12.2933 1102.01 12.1751 1103.53C11.9386 1107.23 9.21995 1109.98 6.20573 1109.69C4.37356 1109.47 2.7187 1108.46 1.59576 1106.79C0.53192 1105.34 0 1103.46 0 1101.58Z" fill="url(#paint33_linear_74_1142)"/>
<path d="M0 1115.19C0 1113.31 0.53192 1111.5 1.59576 1109.98C2.7187 1108.31 4.37356 1107.3 6.20573 1107.15C9.21995 1106.86 11.9386 1109.62 12.1751 1113.31C12.2933 1114.83 11.8204 1116.42 10.9339 1117.58C9.57456 1119.25 7.80149 1119.9 6.26484 1119.18C4.78728 1118.52 3.78254 1116.93 3.66434 1115.05L5.73292 1114.83C5.79202 1115.7 6.26483 1116.42 6.97406 1116.71C7.74239 1117.08 8.62892 1116.79 9.39725 1115.77C9.92917 1115.19 10.1656 1114.32 10.1065 1113.53C9.92917 1111.21 8.27431 1109.54 6.38304 1109.69C5.08279 1109.83 3.95985 1110.56 3.19152 1111.64C2.42319 1112.8 2.00948 1114.25 2.12768 1115.7V1115.77V1115.84C2.12768 1116.21 1.95037 1124.46 10.5202 1130.26C13.8299 1132.57 16.9032 1135.54 18.6172 1138.29L18.8536 1138.66C21.395 1142.49 22.1633 1147.64 20.9222 1152.34C19.681 1156.91 16.8441 1160.24 13.1207 1161.47C12.8449 1161.56 12.5494 1161.64 12.2342 1161.69C9.45635 1162.34 6.61945 1161.54 4.25536 1159.37C0.945636 1156.25 -0.591021 1151.91 0.23641 1147.71C0.945636 1143.73 3.54613 1140.76 6.85586 1139.96C8.68803 1139.53 10.5793 1140.1 12.1751 1141.48C14.4209 1143.58 15.4848 1146.55 14.9529 1149.45C14.48 1152.13 12.6479 1154.23 10.402 1154.81C7.80149 1155.39 5.2601 1153.28 4.78728 1150.17L6.85586 1149.66C7.09227 1151.4 8.56982 1152.56 10.0474 1152.27C11.4658 1151.91 12.5888 1150.61 12.8843 1148.87C13.2389 1146.98 12.5297 1145.03 10.9339 1143.58C9.81097 1142.57 8.51072 1142.2 7.21047 1142.49C4.78728 1143.07 2.83691 1145.32 2.30499 1148.29C1.65486 1151.55 2.83691 1154.81 5.55561 1157.27C7.44688 1159.01 9.63366 1159.66 11.8204 1159.15C12.0963 1159.1 12.3524 1159.03 12.5888 1158.93C15.603 1157.99 17.908 1155.24 18.9127 1151.55C19.9174 1147.64 19.2673 1143.44 17.1987 1140.25L16.9623 1139.96C15.4257 1137.43 12.5297 1134.6 9.51546 1132.5C0.118206 1126.13 0 1116.86 0 1115.84C0 1115.6 0 1115.39 0 1115.19Z" fill="url(#paint34_linear_74_1142)"/>
<path fill-rule="evenodd" clip-rule="evenodd" d="M11.7019 1108.38C11.7019 1106.36 12.884 1104.69 14.5388 1104.33C18.4396 1103.39 23.345 1107.15 23.5814 1107.3L24.9999 1108.38L23.5814 1109.47C23.345 1109.69 18.4396 1113.45 14.5388 1112.51C12.884 1112.08 11.7019 1110.49 11.7019 1108.38ZM14.9525 1106.86C14.1251 1107.01 13.8296 1107.81 13.8296 1108.38C13.8296 1109.04 14.1251 1109.76 14.9525 1109.98C16.8438 1110.41 19.2079 1109.33 20.8036 1108.38C19.2079 1107.52 16.8438 1106.36 14.9525 1106.86Z" fill="url(#paint35_linear_74_1142)"/>
<path fill-rule="evenodd" clip-rule="evenodd" d="M8.8772 1458.55C8.8772 1458.02 8.91597 1457.51 8.99351 1457.03C9.28429 1455 10.6219 1453.63 12.3084 1453.63C13.9949 1453.63 15.3325 1455 15.6232 1457.03C16.3793 1461.74 13.297 1467.67 13.1807 1467.96L12.3084 1469.55L11.436 1467.96C11.3197 1467.67 8.8772 1462.97 8.8772 1458.55ZM13.5878 1457.54C13.4715 1456.52 12.8318 1456.16 12.3084 1456.16C11.785 1456.16 11.1453 1456.52 11.029 1457.54C10.68 1459.71 11.4942 1462.53 12.3084 1464.56C13.1226 1462.53 13.9367 1459.71 13.5878 1457.54Z" fill="url(#paint36_linear_74_1142)"/>
<path fill-rule="evenodd" clip-rule="evenodd" d="M11.2612 1448.78C11.2612 1448.68 11.2612 1448.59 11.2612 1448.49C11.2612 1447.62 11.4939 1442.92 16.1463 1439.66C17.6002 1438.65 18.9378 1437.34 19.6356 1436.18L19.7519 1435.97C20.6824 1434.59 20.9732 1432.71 20.508 1430.97C20.1009 1429.31 19.1122 1428.15 17.7747 1427.72C17.6583 1427.67 17.5614 1427.64 17.4839 1427.64C16.5534 1427.43 15.6229 1427.72 14.8087 1428.44C13.6456 1429.53 13.1222 1430.9 13.413 1432.28C13.6456 1433.43 14.4016 1434.38 15.3903 1434.59C15.8555 1434.74 16.3789 1434.59 16.786 1434.23C17.4257 1433.65 17.7165 1432.93 17.6002 1432.2C17.4839 1431.62 17.0768 1431.19 16.5534 1431.05C16.1463 1430.97 15.7392 1431.34 15.6229 1431.84L13.5875 1431.34C13.8782 1429.45 15.3903 1428.15 16.9605 1428.51C18.2981 1428.87 19.2867 1430.1 19.5775 1431.7C19.9264 1433.36 19.3449 1435.1 18.0073 1436.26C17.1349 1437.05 16.03 1437.42 15.0413 1437.13C13.2385 1436.76 11.7846 1435.03 11.3775 1432.86C10.9705 1430.47 11.7846 1428.08 13.5293 1426.41C14.8087 1425.18 16.3789 1424.75 17.891 1425.11C18.046 1425.16 18.1817 1425.21 18.2981 1425.26C20.2753 1425.91 21.8455 1427.72 22.4853 1430.18C23.125 1432.71 22.7179 1435.53 21.3803 1437.56L21.264 1437.78C20.3917 1439.15 18.8796 1440.74 17.1931 1441.9C14.5179 1443.71 13.7038 1446.03 13.4711 1447.4C13.7619 1446.9 14.169 1446.46 14.6343 1446.25C15.6229 1445.81 16.6697 1446.17 17.4839 1447.19C18.0654 1447.84 18.3562 1448.85 18.2399 1449.79C18.1236 1451.96 16.5534 1453.63 14.7506 1453.48C13.7619 1453.34 12.8314 1452.76 12.1336 1451.82C11.552 1450.95 11.2612 1449.86 11.2612 1448.78ZM16.2045 1449.5C16.2045 1449.36 16.1463 1449.14 15.9718 1448.92C15.7974 1448.71 15.5647 1448.56 15.3321 1448.63C15.274 1448.71 15.0995 1448.85 15.0995 1449.07L13.3548 1448.85C13.3548 1449.36 13.4711 1449.79 13.7038 1450.15C14.0527 1450.59 14.4598 1450.81 14.925 1450.88C15.5647 1450.95 16.1463 1450.37 16.2045 1449.58C16.2045 1449.58 16.2045 1449.55 16.2045 1449.5Z" fill="url(#paint37_linear_74_1142)"/>
<path fill-rule="evenodd" clip-rule="evenodd" d="M1.78149 1432.64C1.78149 1431.82 1.8978 1431 2.13043 1430.18C2.77014 1427.72 4.28218 1425.91 6.25947 1425.26C6.41455 1425.21 6.56964 1425.16 6.72472 1425.11C8.23677 1424.75 9.80697 1425.18 11.0282 1426.41C12.8311 1428.08 13.6452 1430.47 13.18 1432.86C12.7729 1435.03 11.3772 1436.76 9.57434 1437.13C8.52754 1437.42 7.42259 1437.05 6.55025 1436.26C5.27083 1435.1 4.68927 1433.36 4.98005 1431.7C5.27083 1430.1 6.31763 1428.87 7.65521 1428.51C9.16725 1428.15 10.6793 1429.45 10.9701 1431.34L8.99279 1431.84C8.87648 1431.34 8.46939 1430.97 8.00414 1431.05C7.5389 1431.19 7.13181 1431.62 7.0155 1432.2C6.89919 1432.93 7.18996 1433.65 7.77152 1434.23C8.23676 1434.59 8.70201 1434.74 9.16725 1434.59C10.1559 1434.38 10.9701 1433.43 11.2027 1432.28C11.4353 1430.9 10.9119 1429.53 9.80697 1428.44C8.99279 1427.72 8.0623 1427.43 7.13181 1427.64C7.0155 1427.64 6.89919 1427.67 6.78287 1427.72C5.50345 1428.15 4.51481 1429.31 4.04956 1430.97C3.64247 1432.71 3.93325 1434.59 4.80558 1435.97L4.9219 1436.11C5.67792 1437.34 7.0155 1438.65 8.41123 1439.66C13.18 1442.92 13.2963 1447.69 13.3545 1448.49C13.4126 1449.72 13.0637 1450.88 12.424 1451.82C11.7843 1452.76 10.8538 1453.34 9.80697 1453.48C8.0623 1453.63 6.4921 1451.96 6.31763 1449.79C6.25947 1448.85 6.55025 1447.84 7.13181 1447.19C7.88783 1446.17 8.99279 1445.81 9.92328 1446.25C10.4467 1446.46 10.8538 1446.9 11.1445 1447.4C10.9119 1446.03 10.0977 1443.71 7.42259 1441.9C5.73607 1440.74 4.16587 1439.15 3.29354 1437.7L3.23538 1437.56C2.30489 1436.18 1.78149 1434.38 1.78149 1432.64ZM11.2609 1448.85L9.45803 1449.07C9.45803 1448.85 9.34172 1448.71 9.22541 1448.63C9.05094 1448.56 8.81832 1448.71 8.5857 1448.92C8.46939 1449.14 8.35308 1449.36 8.41123 1449.58C8.46939 1450.37 8.99279 1450.95 9.69065 1450.88C10.1559 1450.81 10.563 1450.59 10.8538 1450.15C11.0864 1449.79 11.2609 1449.36 11.2609 1448.85Z" fill="url(#paint38_linear_74_1142)"/>
<path d="M11.2612 1431.19L11.2612 1160.55H13.2853L13.2853 1431.19H11.2612Z" fill="url(#paint39_linear_74_1142)"/>
<path fill-rule="evenodd" clip-rule="evenodd" d="M8.87646 757.002C8.87646 752.659 11.319 747.882 11.4353 747.665L12.3077 746L13.18 747.665C13.2963 747.882 16.3786 753.89 15.6226 758.594C15.3318 760.621 13.9942 761.996 12.3077 761.996C10.6211 761.996 9.28356 760.621 8.99278 758.594C8.91524 758.064 8.87646 757.533 8.87646 757.002ZM12.3077 750.994C11.4935 753.021 10.6793 755.916 11.0282 758.088C11.1446 759.029 11.7843 759.391 12.3077 759.391C12.8311 759.391 13.4708 759.029 13.5871 758.088C13.936 755.916 13.1219 753.021 12.3077 750.994Z" fill="url(#paint40_linear_74_1142)"/>
<path fill-rule="evenodd" clip-rule="evenodd" d="M11.2607 766.774C11.2607 765.688 11.5515 764.674 12.1331 763.806C12.831 762.793 13.7615 762.213 14.7501 762.141C16.5529 761.996 18.1232 763.589 18.2395 765.76C18.2976 766.701 18.065 767.715 17.4834 768.438C16.6693 769.452 15.6224 769.814 14.6338 769.379C14.1685 769.162 13.7615 768.728 13.4707 768.221C13.7033 769.524 14.5175 771.84 17.1927 773.65C18.8792 774.88 20.3913 776.4 21.2636 777.848L21.3799 777.993C22.7175 780.092 23.1246 782.842 22.4849 785.376C21.8452 787.837 20.2749 789.719 18.2976 790.37C18.1425 790.418 18.0068 790.467 17.8905 790.515C16.3785 790.877 14.8083 790.37 13.5288 789.212C11.7841 787.547 10.97 785.086 11.3771 782.77C11.7841 780.526 13.238 778.861 15.0409 778.427C16.0877 778.21 17.1345 778.5 18.0069 779.296C19.3444 780.526 19.926 782.191 19.5771 783.928C19.2863 785.521 18.2976 786.751 16.96 787.041C15.3898 787.403 13.8778 786.172 13.587 784.29L15.6224 783.783C15.7388 784.29 16.1459 784.652 16.5529 784.507C17.0764 784.435 17.4834 783.928 17.5998 783.349C17.7161 782.625 17.4253 781.974 16.7856 781.395C16.3785 781.033 15.8551 780.816 15.3898 780.96C14.4012 781.178 13.6451 782.119 13.4125 783.349C13.1799 784.724 13.6451 786.1 14.8083 787.113C15.6225 787.909 16.5529 788.199 17.4834 787.982C17.561 787.933 17.6579 787.885 17.7742 787.837C19.1118 787.403 20.1005 786.244 20.5076 784.58C20.9728 782.915 20.682 781.033 19.7515 779.658L19.6352 779.44C18.9373 778.282 17.5998 776.907 16.1459 775.894C11.4352 772.637 11.2607 767.932 11.2607 767.135C11.2607 766.991 11.2607 766.87 11.2607 766.774ZM16.204 766.05C16.204 766.05 16.204 766.026 16.204 765.977C16.1459 765.254 15.5643 764.674 14.9246 764.674C14.4593 764.747 14.0522 765.036 13.7033 765.471C13.4707 765.833 13.3544 766.267 13.3544 766.701L15.099 766.556C15.099 766.774 15.2735 766.918 15.3317 766.918C15.5643 766.991 15.7969 766.918 15.9714 766.629C16.1459 766.484 16.204 766.267 16.204 766.05Z" fill="url(#paint41_linear_74_1142)"/>
<path fill-rule="evenodd" clip-rule="evenodd" d="M1.78149 782.987C1.78149 781.178 2.3049 779.44 3.2354 777.993L3.35171 777.848C4.16589 776.4 5.73611 774.88 7.42263 773.65C10.0397 771.84 10.912 769.524 11.1446 768.221C10.8538 768.728 10.4468 769.162 9.92335 769.379C8.99285 769.814 7.88788 769.452 7.13185 768.438C6.55029 767.715 6.25951 766.701 6.31767 765.76C6.49214 763.589 8.06235 761.996 9.80704 762.141C10.8538 762.213 11.7843 762.793 12.4241 763.806C13.0638 764.747 13.4127 765.905 13.3546 767.135C13.3546 767.932 13.1219 772.709 8.41129 775.894C7.01554 776.907 5.67795 778.282 4.92192 779.44L4.80561 779.658C3.93327 781.033 3.64249 782.915 4.04958 784.58C4.51483 786.244 5.50348 787.403 6.78292 787.837C6.89923 787.885 7.01554 787.933 7.13185 787.982C8.06235 788.199 8.99285 787.909 9.80704 787.113C10.912 786.1 11.4354 784.724 11.2028 783.349C10.9702 782.119 10.156 781.178 9.16732 780.96C8.70207 780.816 8.17867 781.033 7.77157 781.395C7.19001 781.974 6.89923 782.625 7.01554 783.349C7.13186 783.928 7.53895 784.435 8.0042 784.507C8.46944 784.652 8.87654 784.29 8.99285 783.783L10.9702 784.29C10.6794 786.172 9.16732 787.403 7.59711 787.041C6.31767 786.751 5.27086 785.521 4.98008 783.928C4.6893 782.191 5.27086 780.526 6.55029 779.296C7.42263 778.5 8.5276 778.21 9.57441 778.427C11.3773 778.861 12.773 780.526 13.1801 782.77C13.6453 785.086 12.8312 787.547 11.0283 789.212C9.80704 790.37 8.23682 790.877 6.72476 790.515C6.56968 790.467 6.4146 790.418 6.25951 790.37C4.2822 789.719 2.77015 787.837 2.13043 785.376C1.89781 784.604 1.78149 783.808 1.78149 782.987ZM11.2609 766.701C11.2609 766.267 11.0865 765.833 10.8538 765.471C10.5631 765.036 10.156 764.747 9.69072 764.674C8.99285 764.674 8.46945 765.254 8.41129 765.977C8.35313 766.194 8.46944 766.484 8.58576 766.629C8.81838 766.918 9.05101 766.991 9.22548 766.918C9.34179 766.918 9.4581 766.774 9.4581 766.556L11.2609 766.701Z" fill="url(#paint42_linear_74_1142)"/>
<path d="M11.2607 1055L11.2607 784.435H13.3544L13.3544 1055H11.2607Z" fill="url(#paint43_linear_74_1142)"/>
</g>
<defs>
<linearGradient id="paint0_linear_74_1142" x1="643.468" y1="146.016" x2="-599.796" y2="1182.12" gradientUnits="userSpaceOnUse">
<stop stop-color="#EEDEBC"/>
<stop offset="0.14" stop-color="#C9A885"/>
<stop offset="0.258" stop-color="#9A7A5F"/>
<stop offset="0.36" stop-color="#C9A885"/>
<stop offset="0.489" stop-color="#EEDEBC"/>
<stop offset="0.613" stop-color="#C9A885"/>
<stop offset="0.72" stop-color="#9A7A5F"/>
<stop offset="0.839" stop-color="#C9A885"/>
<stop offset="1" stop-color="#EEDEBC"/>
</linearGradient>
<linearGradient id="paint1_linear_74_1142" x1="651.054" y1="84.3142" x2="-803.173" y2="1296.22" gradientUnits="userSpaceOnUse">
<stop stop-color="#EEDEBC"/>
<stop offset="0.14" stop-color="#C9A885"/>
<stop offset="0.258" stop-color="#9A7A5F"/>
<stop offset="0.36" stop-color="#C9A885"/>
<stop offset="0.489" stop-color="#EEDEBC"/>
<stop offset="0.613" stop-color="#C9A885"/>
<stop offset="0.72" stop-color="#9A7A5F"/>
<stop offset="0.839" stop-color="#C9A885"/>
<stop offset="1" stop-color="#EEDEBC"/>
</linearGradient>
<linearGradient id="paint2_linear_74_1142" x1="382.274" y1="358.105" x2="370.274" y2="368.107" gradientUnits="userSpaceOnUse">
<stop stop-color="#EEDEBC"/>
<stop offset="0.14" stop-color="#C9A885"/>
<stop offset="0.258" stop-color="#9A7A5F"/>
<stop offset="0.36" stop-color="#C9A885"/>
<stop offset="0.489" stop-color="#EEDEBC"/>
<stop offset="0.613" stop-color="#C9A885"/>
<stop offset="0.72" stop-color="#9A7A5F"/>
<stop offset="0.839" stop-color="#C9A885"/>
<stop offset="1" stop-color="#EEDEBC"/>
</linearGradient>
<linearGradient id="paint3_linear_74_1142" x1="441.026" y1="-45.5271" x2="-995.852" y2="1133.35" gradientUnits="userSpaceOnUse">
<stop stop-color="#EEDEBC"/>
<stop offset="0.14" stop-color="#C9A885"/>
<stop offset="0.258" stop-color="#9A7A5F"/>
<stop offset="0.36" stop-color="#C9A885"/>
<stop offset="0.489" stop-color="#EEDEBC"/>
<stop offset="0.613" stop-color="#C9A885"/>
<stop offset="0.72" stop-color="#9A7A5F"/>
<stop offset="0.839" stop-color="#C9A885"/>
<stop offset="1" stop-color="#EEDEBC"/>
</linearGradient>
<linearGradient id="paint4_linear_74_1142" x1="450.451" y1="-21.2654" x2="-801.086" y2="1005.55" gradientUnits="userSpaceOnUse">
<stop stop-color="#EEDEBC"/>
<stop offset="0.14" stop-color="#C9A885"/>
<stop offset="0.258" stop-color="#9A7A5F"/>
<stop offset="0.36" stop-color="#C9A885"/>
<stop offset="0.489" stop-color="#EEDEBC"/>
<stop offset="0.613" stop-color="#C9A885"/>
<stop offset="0.72" stop-color="#9A7A5F"/>
<stop offset="0.839" stop-color="#C9A885"/>
<stop offset="1" stop-color="#EEDEBC"/>
</linearGradient>
<linearGradient id="paint5_linear_74_1142" x1="464.076" y1="-26.5586" x2="-986.664" y2="1163.69" gradientUnits="userSpaceOnUse">
<stop stop-color="#EEDEBC"/>
<stop offset="0.14" stop-color="#C9A885"/>
<stop offset="0.258" stop-color="#9A7A5F"/>
<stop offset="0.36" stop-color="#C9A885"/>
<stop offset="0.489" stop-color="#EEDEBC"/>
<stop offset="0.613" stop-color="#C9A885"/>
<stop offset="0.72" stop-color="#9A7A5F"/>
<stop offset="0.839" stop-color="#C9A885"/>
<stop offset="1" stop-color="#EEDEBC"/>
</linearGradient>
<linearGradient id="paint6_linear_74_1142" x1="6169.11" y1="7214.07" x2="5133.45" y2="8035.57" gradientUnits="userSpaceOnUse">
<stop stop-color="#EEDEBC"/>
<stop offset="0.14" stop-color="#C9A885"/>
<stop offset="0.258" stop-color="#9A7A5F"/>
<stop offset="0.36" stop-color="#C9A885"/>
<stop offset="0.489" stop-color="#EEDEBC"/>
<stop offset="0.613" stop-color="#C9A885"/>
<stop offset="0.72" stop-color="#9A7A5F"/>
<stop offset="0.839" stop-color="#C9A885"/>
<stop offset="1" stop-color="#EEDEBC"/>
</linearGradient>
<linearGradient id="paint7_linear_74_1142" x1="394.909" y1="720.689" x2="382.95" y2="730.5" gradientUnits="userSpaceOnUse">
<stop stop-color="#EEDEBC"/>
<stop offset="0.14" stop-color="#C9A885"/>
<stop offset="0.258" stop-color="#9A7A5F"/>
<stop offset="0.36" stop-color="#C9A885"/>
<stop offset="0.489" stop-color="#EEDEBC"/>
<stop offset="0.613" stop-color="#C9A885"/>
<stop offset="0.72" stop-color="#9A7A5F"/>
<stop offset="0.839" stop-color="#C9A885"/>
<stop offset="1" stop-color="#EEDEBC"/>
</linearGradient>
<linearGradient id="paint8_linear_74_1142" x1="401.814" y1="703.415" x2="380.952" y2="720.531" gradientUnits="userSpaceOnUse">
<stop stop-color="#EEDEBC"/>
<stop offset="0.14" stop-color="#C9A885"/>
<stop offset="0.258" stop-color="#9A7A5F"/>
<stop offset="0.36" stop-color="#C9A885"/>
<stop offset="0.489" stop-color="#EEDEBC"/>
<stop offset="0.613" stop-color="#C9A885"/>
<stop offset="0.72" stop-color="#9A7A5F"/>
<stop offset="0.839" stop-color="#C9A885"/>
<stop offset="1" stop-color="#EEDEBC"/>
</linearGradient>
<linearGradient id="paint9_linear_74_1142" x1="411.276" y1="703.414" x2="390.414" y2="720.53" gradientUnits="userSpaceOnUse">
<stop stop-color="#EEDEBC"/>
<stop offset="0.14" stop-color="#C9A885"/>
<stop offset="0.258" stop-color="#9A7A5F"/>
<stop offset="0.36" stop-color="#C9A885"/>
<stop offset="0.489" stop-color="#EEDEBC"/>
<stop offset="0.613" stop-color="#C9A885"/>
<stop offset="0.72" stop-color="#9A7A5F"/>
<stop offset="0.839" stop-color="#C9A885"/>
<stop offset="1" stop-color="#EEDEBC"/>
</linearGradient>
<linearGradient id="paint10_linear_74_1142" x1="6518.45" y1="7398.9" x2="5475.36" y2="8254.7" gradientUnits="userSpaceOnUse">
<stop stop-color="#EEDEBC"/>
<stop offset="0.14" stop-color="#C9A885"/>
<stop offset="0.258" stop-color="#9A7A5F"/>
<stop offset="0.36" stop-color="#C9A885"/>
<stop offset="0.489" stop-color="#EEDEBC"/>
<stop offset="0.613" stop-color="#C9A885"/>
<stop offset="0.72" stop-color="#9A7A5F"/>
<stop offset="0.839" stop-color="#C9A885"/>
<stop offset="1" stop-color="#EEDEBC"/>
</linearGradient>
<linearGradient id="paint11_linear_74_1142" x1="-250.468" y1="146.016" x2="992.796" y2="1182.12" gradientUnits="userSpaceOnUse">
<stop stop-color="#EEDEBC"/>
<stop offset="0.14" stop-color="#C9A885"/>
<stop offset="0.258" stop-color="#9A7A5F"/>
<stop offset="0.36" stop-color="#C9A885"/>
<stop offset="0.489" stop-color="#EEDEBC"/>
<stop offset="0.613" stop-color="#C9A885"/>
<stop offset="0.72" stop-color="#9A7A5F"/>
<stop offset="0.839" stop-color="#C9A885"/>
<stop offset="1" stop-color="#EEDEBC"/>
</linearGradient>
<linearGradient id="paint12_linear_74_1142" x1="-258.054" y1="84.3142" x2="1196.17" y2="1296.22" gradientUnits="userSpaceOnUse">
<stop stop-color="#EEDEBC"/>
<stop offset="0.14" stop-color="#C9A885"/>
<stop offset="0.258" stop-color="#9A7A5F"/>
<stop offset="0.36" stop-color="#C9A885"/>
<stop offset="0.489" stop-color="#EEDEBC"/>
<stop offset="0.613" stop-color="#C9A885"/>
<stop offset="0.72" stop-color="#9A7A5F"/>
<stop offset="0.839" stop-color="#C9A885"/>
<stop offset="1" stop-color="#EEDEBC"/>
</linearGradient>
<linearGradient id="paint13_linear_74_1142" x1="10.7255" y1="358.105" x2="22.7264" y2="368.107" gradientUnits="userSpaceOnUse">
<stop stop-color="#EEDEBC"/>
<stop offset="0.14" stop-color="#C9A885"/>
<stop offset="0.258" stop-color="#9A7A5F"/>
<stop offset="0.36" stop-color="#C9A885"/>
<stop offset="0.489" stop-color="#EEDEBC"/>
<stop offset="0.613" stop-color="#C9A885"/>
<stop offset="0.72" stop-color="#9A7A5F"/>
<stop offset="0.839" stop-color="#C9A885"/>
<stop offset="1" stop-color="#EEDEBC"/>
</linearGradient>
<linearGradient id="paint14_linear_74_1142" x1="-48.0257" y1="-45.5271" x2="1388.85" y2="1133.35" gradientUnits="userSpaceOnUse">
<stop stop-color="#EEDEBC"/>
<stop offset="0.14" stop-color="#C9A885"/>
<stop offset="0.258" stop-color="#9A7A5F"/>
<stop offset="0.36" stop-color="#C9A885"/>
<stop offset="0.489" stop-color="#EEDEBC"/>
<stop offset="0.613" stop-color="#C9A885"/>
<stop offset="0.72" stop-color="#9A7A5F"/>
<stop offset="0.839" stop-color="#C9A885"/>
<stop offset="1" stop-color="#EEDEBC"/>
</linearGradient>
<linearGradient id="paint15_linear_74_1142" x1="-57.4513" y1="-21.2654" x2="1194.09" y2="1005.55" gradientUnits="userSpaceOnUse">
<stop stop-color="#EEDEBC"/>
<stop offset="0.14" stop-color="#C9A885"/>
<stop offset="0.258" stop-color="#9A7A5F"/>
<stop offset="0.36" stop-color="#C9A885"/>
<stop offset="0.489" stop-color="#EEDEBC"/>
<stop offset="0.613" stop-color="#C9A885"/>
<stop offset="0.72" stop-color="#9A7A5F"/>
<stop offset="0.839" stop-color="#C9A885"/>
<stop offset="1" stop-color="#EEDEBC"/>
</linearGradient>
<linearGradient id="paint16_linear_74_1142" x1="-71.0764" y1="-26.5586" x2="1379.66" y2="1163.69" gradientUnits="userSpaceOnUse">
<stop stop-color="#EEDEBC"/>
<stop offset="0.14" stop-color="#C9A885"/>
<stop offset="0.258" stop-color="#9A7A5F"/>
<stop offset="0.36" stop-color="#C9A885"/>
<stop offset="0.489" stop-color="#EEDEBC"/>
<stop offset="0.613" stop-color="#C9A885"/>
<stop offset="0.72" stop-color="#9A7A5F"/>
<stop offset="0.839" stop-color="#C9A885"/>
<stop offset="1" stop-color="#EEDEBC"/>
</linearGradient>
<linearGradient id="paint17_linear_74_1142" x1="-5776.11" y1="7214.07" x2="-4740.45" y2="8035.57" gradientUnits="userSpaceOnUse">
<stop stop-color="#EEDEBC"/>
<stop offset="0.14" stop-color="#C9A885"/>
<stop offset="0.258" stop-color="#9A7A5F"/>
<stop offset="0.36" stop-color="#C9A885"/>
<stop offset="0.489" stop-color="#EEDEBC"/>
<stop offset="0.613" stop-color="#C9A885"/>
<stop offset="0.72" stop-color="#9A7A5F"/>
<stop offset="0.839" stop-color="#C9A885"/>
<stop offset="1" stop-color="#EEDEBC"/>
</linearGradient>
<linearGradient id="paint18_linear_74_1142" x1="-1.90859" y1="720.689" x2="10.0505" y2="730.5" gradientUnits="userSpaceOnUse">
<stop stop-color="#EEDEBC"/>
<stop offset="0.14" stop-color="#C9A885"/>
<stop offset="0.258" stop-color="#9A7A5F"/>
<stop offset="0.36" stop-color="#C9A885"/>
<stop offset="0.489" stop-color="#EEDEBC"/>
<stop offset="0.613" stop-color="#C9A885"/>
<stop offset="0.72" stop-color="#9A7A5F"/>
<stop offset="0.839" stop-color="#C9A885"/>
<stop offset="1" stop-color="#EEDEBC"/>
</linearGradient>
<linearGradient id="paint19_linear_74_1142" x1="-8.81358" y1="703.415" x2="12.0476" y2="720.531" gradientUnits="userSpaceOnUse">
<stop stop-color="#EEDEBC"/>
<stop offset="0.14" stop-color="#C9A885"/>
<stop offset="0.258" stop-color="#9A7A5F"/>
<stop offset="0.36" stop-color="#C9A885"/>
<stop offset="0.489" stop-color="#EEDEBC"/>
<stop offset="0.613" stop-color="#C9A885"/>
<stop offset="0.72" stop-color="#9A7A5F"/>
<stop offset="0.839" stop-color="#C9A885"/>
<stop offset="1" stop-color="#EEDEBC"/>
</linearGradient>
<linearGradient id="paint20_linear_74_1142" x1="-18.276" y1="703.414" x2="2.58606" y2="720.53" gradientUnits="userSpaceOnUse">
<stop stop-color="#EEDEBC"/>
<stop offset="0.14" stop-color="#C9A885"/>
<stop offset="0.258" stop-color="#9A7A5F"/>
<stop offset="0.36" stop-color="#C9A885"/>
<stop offset="0.489" stop-color="#EEDEBC"/>
<stop offset="0.613" stop-color="#C9A885"/>
<stop offset="0.72" stop-color="#9A7A5F"/>
<stop offset="0.839" stop-color="#C9A885"/>
<stop offset="1" stop-color="#EEDEBC"/>
</linearGradient>
<linearGradient id="paint21_linear_74_1142" x1="-6125.45" y1="7398.9" x2="-5082.36" y2="8254.7" gradientUnits="userSpaceOnUse">
<stop stop-color="#EEDEBC"/>
<stop offset="0.14" stop-color="#C9A885"/>
<stop offset="0.258" stop-color="#9A7A5F"/>
<stop offset="0.36" stop-color="#C9A885"/>
<stop offset="0.489" stop-color="#EEDEBC"/>
<stop offset="0.613" stop-color="#C9A885"/>
<stop offset="0.72" stop-color="#9A7A5F"/>
<stop offset="0.839" stop-color="#C9A885"/>
<stop offset="1" stop-color="#EEDEBC"/>
</linearGradient>
<linearGradient id="paint22_linear_74_1142" x1="643.468" y1="1323.54" x2="-599.796" y2="287.435" gradientUnits="userSpaceOnUse">
<stop stop-color="#EEDEBC"/>
<stop offset="0.14" stop-color="#C9A885"/>
<stop offset="0.258" stop-color="#9A7A5F"/>
<stop offset="0.36" stop-color="#C9A885"/>
<stop offset="0.489" stop-color="#EEDEBC"/>
<stop offset="0.613" stop-color="#C9A885"/>
<stop offset="0.72" stop-color="#9A7A5F"/>
<stop offset="0.839" stop-color="#C9A885"/>
<stop offset="1" stop-color="#EEDEBC"/>
</linearGradient>
<linearGradient id="paint23_linear_74_1142" x1="651.054" y1="1385.24" x2="-803.173" y2="173.328" gradientUnits="userSpaceOnUse">
<stop stop-color="#EEDEBC"/>
<stop offset="0.14" stop-color="#C9A885"/>
<stop offset="0.258" stop-color="#9A7A5F"/>
<stop offset="0.36" stop-color="#C9A885"/>
<stop offset="0.489" stop-color="#EEDEBC"/>
<stop offset="0.613" stop-color="#C9A885"/>
<stop offset="0.72" stop-color="#9A7A5F"/>
<stop offset="0.839" stop-color="#C9A885"/>
<stop offset="1" stop-color="#EEDEBC"/>
</linearGradient>
<linearGradient id="paint24_linear_74_1142" x1="382.274" y1="1111.45" x2="370.274" y2="1101.45" gradientUnits="userSpaceOnUse">
<stop stop-color="#EEDEBC"/>
<stop offset="0.14" stop-color="#C9A885"/>
<stop offset="0.258" stop-color="#9A7A5F"/>
<stop offset="0.36" stop-color="#C9A885"/>
<stop offset="0.489" stop-color="#EEDEBC"/>
<stop offset="0.613" stop-color="#C9A885"/>
<stop offset="0.72" stop-color="#9A7A5F"/>
<stop offset="0.839" stop-color="#C9A885"/>
<stop offset="1" stop-color="#EEDEBC"/>
</linearGradient>
<linearGradient id="paint25_linear_74_1142" x1="441.026" y1="1515.08" x2="-995.852" y2="336.205" gradientUnits="userSpaceOnUse">
<stop stop-color="#EEDEBC"/>
<stop offset="0.14" stop-color="#C9A885"/>
<stop offset="0.258" stop-color="#9A7A5F"/>
<stop offset="0.36" stop-color="#C9A885"/>
<stop offset="0.489" stop-color="#EEDEBC"/>
<stop offset="0.613" stop-color="#C9A885"/>
<stop offset="0.72" stop-color="#9A7A5F"/>
<stop offset="0.839" stop-color="#C9A885"/>
<stop offset="1" stop-color="#EEDEBC"/>
</linearGradient>
<linearGradient id="paint26_linear_74_1142" x1="450.451" y1="1490.82" x2="-801.086" y2="464.007" gradientUnits="userSpaceOnUse">
<stop stop-color="#EEDEBC"/>
<stop offset="0.14" stop-color="#C9A885"/>
<stop offset="0.258" stop-color="#9A7A5F"/>
<stop offset="0.36" stop-color="#C9A885"/>
<stop offset="0.489" stop-color="#EEDEBC"/>
<stop offset="0.613" stop-color="#C9A885"/>
<stop offset="0.72" stop-color="#9A7A5F"/>
<stop offset="0.839" stop-color="#C9A885"/>
<stop offset="1" stop-color="#EEDEBC"/>
</linearGradient>
<linearGradient id="paint27_linear_74_1142" x1="464.076" y1="1496.11" x2="-986.664" y2="305.866" gradientUnits="userSpaceOnUse">
<stop stop-color="#EEDEBC"/>
<stop offset="0.14" stop-color="#C9A885"/>
<stop offset="0.258" stop-color="#9A7A5F"/>
<stop offset="0.36" stop-color="#C9A885"/>
<stop offset="0.489" stop-color="#EEDEBC"/>
<stop offset="0.613" stop-color="#C9A885"/>
<stop offset="0.72" stop-color="#9A7A5F"/>
<stop offset="0.839" stop-color="#C9A885"/>
<stop offset="1" stop-color="#EEDEBC"/>
</linearGradient>
<linearGradient id="paint28_linear_74_1142" x1="6169.11" y1="-5744.52" x2="5133.45" y2="-6566.01" gradientUnits="userSpaceOnUse">
<stop stop-color="#EEDEBC"/>
<stop offset="0.14" stop-color="#C9A885"/>
<stop offset="0.258" stop-color="#9A7A5F"/>
<stop offset="0.36" stop-color="#C9A885"/>
<stop offset="0.489" stop-color="#EEDEBC"/>
<stop offset="0.613" stop-color="#C9A885"/>
<stop offset="0.72" stop-color="#9A7A5F"/>
<stop offset="0.839" stop-color="#C9A885"/>
<stop offset="1" stop-color="#EEDEBC"/>
</linearGradient>
<linearGradient id="paint29_linear_74_1142" x1="394.909" y1="748.864" x2="382.95" y2="739.053" gradientUnits="userSpaceOnUse">
<stop stop-color="#EEDEBC"/>
<stop offset="0.14" stop-color="#C9A885"/>
<stop offset="0.258" stop-color="#9A7A5F"/>
<stop offset="0.36" stop-color="#C9A885"/>
<stop offset="0.489" stop-color="#EEDEBC"/>
<stop offset="0.613" stop-color="#C9A885"/>
<stop offset="0.72" stop-color="#9A7A5F"/>
<stop offset="0.839" stop-color="#C9A885"/>
<stop offset="1" stop-color="#EEDEBC"/>
</linearGradient>
<linearGradient id="paint30_linear_74_1142" x1="401.814" y1="766.138" x2="380.952" y2="749.022" gradientUnits="userSpaceOnUse">
<stop stop-color="#EEDEBC"/>
<stop offset="0.14" stop-color="#C9A885"/>
<stop offset="0.258" stop-color="#9A7A5F"/>
<stop offset="0.36" stop-color="#C9A885"/>
<stop offset="0.489" stop-color="#EEDEBC"/>
<stop offset="0.613" stop-color="#C9A885"/>
<stop offset="0.72" stop-color="#9A7A5F"/>
<stop offset="0.839" stop-color="#C9A885"/>
<stop offset="1" stop-color="#EEDEBC"/>
</linearGradient>
<linearGradient id="paint31_linear_74_1142" x1="411.276" y1="766.139" x2="390.414" y2="749.023" gradientUnits="userSpaceOnUse">
<stop stop-color="#EEDEBC"/>
<stop offset="0.14" stop-color="#C9A885"/>
<stop offset="0.258" stop-color="#9A7A5F"/>
<stop offset="0.36" stop-color="#C9A885"/>
<stop offset="0.489" stop-color="#EEDEBC"/>
<stop offset="0.613" stop-color="#C9A885"/>
<stop offset="0.72" stop-color="#9A7A5F"/>
<stop offset="0.839" stop-color="#C9A885"/>
<stop offset="1" stop-color="#EEDEBC"/>
</linearGradient>
<linearGradient id="paint32_linear_74_1142" x1="6518.45" y1="-5929.35" x2="5475.36" y2="-6785.15" gradientUnits="userSpaceOnUse">
<stop stop-color="#EEDEBC"/>
<stop offset="0.14" stop-color="#C9A885"/>
<stop offset="0.258" stop-color="#9A7A5F"/>
<stop offset="0.36" stop-color="#C9A885"/>
<stop offset="0.489" stop-color="#EEDEBC"/>
<stop offset="0.613" stop-color="#C9A885"/>
<stop offset="0.72" stop-color="#9A7A5F"/>
<stop offset="0.839" stop-color="#C9A885"/>
<stop offset="1" stop-color="#EEDEBC"/>
</linearGradient>
<linearGradient id="paint33_linear_74_1142" x1="-250.468" y1="1323.54" x2="992.796" y2="287.435" gradientUnits="userSpaceOnUse">
<stop stop-color="#EEDEBC"/>
<stop offset="0.14" stop-color="#C9A885"/>
<stop offset="0.258" stop-color="#9A7A5F"/>
<stop offset="0.36" stop-color="#C9A885"/>
<stop offset="0.489" stop-color="#EEDEBC"/>
<stop offset="0.613" stop-color="#C9A885"/>
<stop offset="0.72" stop-color="#9A7A5F"/>
<stop offset="0.839" stop-color="#C9A885"/>
<stop offset="1" stop-color="#EEDEBC"/>
</linearGradient>
<linearGradient id="paint34_linear_74_1142" x1="-258.054" y1="1385.24" x2="1196.17" y2="173.328" gradientUnits="userSpaceOnUse">
<stop stop-color="#EEDEBC"/>
<stop offset="0.14" stop-color="#C9A885"/>
<stop offset="0.258" stop-color="#9A7A5F"/>
<stop offset="0.36" stop-color="#C9A885"/>
<stop offset="0.489" stop-color="#EEDEBC"/>
<stop offset="0.613" stop-color="#C9A885"/>
<stop offset="0.72" stop-color="#9A7A5F"/>
<stop offset="0.839" stop-color="#C9A885"/>
<stop offset="1" stop-color="#EEDEBC"/>
</linearGradient>
<linearGradient id="paint35_linear_74_1142" x1="10.7255" y1="1111.45" x2="22.7264" y2="1101.45" gradientUnits="userSpaceOnUse">
<stop stop-color="#EEDEBC"/>
<stop offset="0.14" stop-color="#C9A885"/>
<stop offset="0.258" stop-color="#9A7A5F"/>
<stop offset="0.36" stop-color="#C9A885"/>
<stop offset="0.489" stop-color="#EEDEBC"/>
<stop offset="0.613" stop-color="#C9A885"/>
<stop offset="0.72" stop-color="#9A7A5F"/>
<stop offset="0.839" stop-color="#C9A885"/>
<stop offset="1" stop-color="#EEDEBC"/>
</linearGradient>
<linearGradient id="paint36_linear_74_1142" x1="-48.0257" y1="1515.08" x2="1388.85" y2="336.205" gradientUnits="userSpaceOnUse">
<stop stop-color="#EEDEBC"/>
<stop offset="0.14" stop-color="#C9A885"/>
<stop offset="0.258" stop-color="#9A7A5F"/>
<stop offset="0.36" stop-color="#C9A885"/>
<stop offset="0.489" stop-color="#EEDEBC"/>
<stop offset="0.613" stop-color="#C9A885"/>
<stop offset="0.72" stop-color="#9A7A5F"/>
<stop offset="0.839" stop-color="#C9A885"/>
<stop offset="1" stop-color="#EEDEBC"/>
</linearGradient>
<linearGradient id="paint37_linear_74_1142" x1="-57.4513" y1="1490.82" x2="1194.09" y2="464.007" gradientUnits="userSpaceOnUse">
<stop stop-color="#EEDEBC"/>
<stop offset="0.14" stop-color="#C9A885"/>
<stop offset="0.258" stop-color="#9A7A5F"/>
<stop offset="0.36" stop-color="#C9A885"/>
<stop offset="0.489" stop-color="#EEDEBC"/>
<stop offset="0.613" stop-color="#C9A885"/>
<stop offset="0.72" stop-color="#9A7A5F"/>
<stop offset="0.839" stop-color="#C9A885"/>
<stop offset="1" stop-color="#EEDEBC"/>
</linearGradient>
<linearGradient id="paint38_linear_74_1142" x1="-71.0764" y1="1496.11" x2="1379.66" y2="305.866" gradientUnits="userSpaceOnUse">
<stop stop-color="#EEDEBC"/>
<stop offset="0.14" stop-color="#C9A885"/>
<stop offset="0.258" stop-color="#9A7A5F"/>
<stop offset="0.36" stop-color="#C9A885"/>
<stop offset="0.489" stop-color="#EEDEBC"/>
<stop offset="0.613" stop-color="#C9A885"/>
<stop offset="0.72" stop-color="#9A7A5F"/>
<stop offset="0.839" stop-color="#C9A885"/>
<stop offset="1" stop-color="#EEDEBC"/>
</linearGradient>
<linearGradient id="paint39_linear_74_1142" x1="-5776.11" y1="-5744.52" x2="-4740.45" y2="-6566.01" gradientUnits="userSpaceOnUse">
<stop stop-color="#EEDEBC"/>
<stop offset="0.14" stop-color="#C9A885"/>
<stop offset="0.258" stop-color="#9A7A5F"/>
<stop offset="0.36" stop-color="#C9A885"/>
<stop offset="0.489" stop-color="#EEDEBC"/>
<stop offset="0.613" stop-color="#C9A885"/>
<stop offset="0.72" stop-color="#9A7A5F"/>
<stop offset="0.839" stop-color="#C9A885"/>
<stop offset="1" stop-color="#EEDEBC"/>
</linearGradient>
<linearGradient id="paint40_linear_74_1142" x1="-1.90859" y1="748.864" x2="10.0505" y2="739.053" gradientUnits="userSpaceOnUse">
<stop stop-color="#EEDEBC"/>
<stop offset="0.14" stop-color="#C9A885"/>
<stop offset="0.258" stop-color="#9A7A5F"/>
<stop offset="0.36" stop-color="#C9A885"/>
<stop offset="0.489" stop-color="#EEDEBC"/>
<stop offset="0.613" stop-color="#C9A885"/>
<stop offset="0.72" stop-color="#9A7A5F"/>
<stop offset="0.839" stop-color="#C9A885"/>
<stop offset="1" stop-color="#EEDEBC"/>
</linearGradient>
<linearGradient id="paint41_linear_74_1142" x1="-8.81358" y1="766.138" x2="12.0476" y2="749.022" gradientUnits="userSpaceOnUse">
<stop stop-color="#EEDEBC"/>
<stop offset="0.14" stop-color="#C9A885"/>
<stop offset="0.258" stop-color="#9A7A5F"/>
<stop offset="0.36" stop-color="#C9A885"/>
<stop offset="0.489" stop-color="#EEDEBC"/>
<stop offset="0.613" stop-color="#C9A885"/>
<stop offset="0.72" stop-color="#9A7A5F"/>
<stop offset="0.839" stop-color="#C9A885"/>
<stop offset="1" stop-color="#EEDEBC"/>
</linearGradient>
<linearGradient id="paint42_linear_74_1142" x1="-18.276" y1="766.139" x2="2.58606" y2="749.023" gradientUnits="userSpaceOnUse">
<stop stop-color="#EEDEBC"/>
<stop offset="0.14" stop-color="#C9A885"/>
<stop offset="0.258" stop-color="#9A7A5F"/>
<stop offset="0.36" stop-color="#C9A885"/>
<stop offset="0.489" stop-color="#EEDEBC"/>
<stop offset="0.613" stop-color="#C9A885"/>
<stop offset="0.72" stop-color="#9A7A5F"/>
<stop offset="0.839" stop-color="#C9A885"/>
<stop offset="1" stop-color="#EEDEBC"/>
</linearGradient>
<linearGradient id="paint43_linear_74_1142" x1="-6125.45" y1="-5929.35" x2="-5082.36" y2="-6785.15" gradientUnits="userSpaceOnUse">
<stop stop-color="#EEDEBC"/>
<stop offset="0.14" stop-color="#C9A885"/>
<stop offset="0.258" stop-color="#9A7A5F"/>
<stop offset="0.36" stop-color="#C9A885"/>
<stop offset="0.489" stop-color="#EEDEBC"/>
<stop offset="0.613" stop-color="#C9A885"/>
<stop offset="0.72" stop-color="#9A7A5F"/>
<stop offset="0.839" stop-color="#C9A885"/>
<stop offset="1" stop-color="#EEDEBC"/>
</linearGradient>
<clipPath id="clip0_74_1142">
<rect width="393" height="1470" fill="white"/>
</clipPath>
</defs>
</svg>
