<svg width="393" height="851" viewBox="0 0 393 851" fill="none" xmlns="http://www.w3.org/2000/svg">
<g clip-path="url(#clip0_138_1699)">
<path d="M0 0C129.69 0 259.38 0 393 0C393 280.83 393 561.66 393 851C263.31 851 133.62 851 0 851C0 570.17 0 289.34 0 0ZM35 10C34.7235 12.08 34.4797 14.1643 34.25 16.25C32.4944 28.9393 27.4604 42.8641 17 51C13.37 52.32 9.74 53.64 6 55C6 300.85 6 546.7 6 800C8.97 801.32 11.94 802.64 15 804C25.83 810.564 30.0581 820.668 33.2734 832.578C34.0732 836.345 34.5224 840.179 35 844C141.59 844 248.18 844 358 844C358.66 841.03 359.32 838.06 360 835C362.069 827.123 364.417 819.785 369 813C369.48 812.29 369.959 811.579 370.453 810.848C375.67 804.047 379.119 803.701 388 800C388 554.15 388 308.3 388 55C382.555 53.02 382.555 53.02 377 51C374.188 48.75 374.188 48.75 372 46C371.51 45.4238 371.02 44.8476 370.516 44.2539C363.234 35.2962 361.135 25.1369 359 14C358.668 12.3331 358.334 10.6664 358 9C316.996 8.97714 275.992 8.9595 234.988 8.94893C230.153 8.94768 225.317 8.94639 220.482 8.94507C219.519 8.94481 218.556 8.94454 217.564 8.94427C201.955 8.93992 186.345 8.93203 170.736 8.92285C154.731 8.91351 138.727 8.90794 122.723 8.90591C112.839 8.90454 102.955 8.90018 93.0712 8.89208C86.3031 8.88682 79.535 8.8852 72.7668 8.8865C68.8559 8.88714 64.945 8.88612 61.0341 8.88079C56.8043 8.87507 52.5745 8.877 48.3446 8.87975C47.0946 8.87683 45.8447 8.87392 44.5568 8.87092C42.8714 8.8739 42.8714 8.87391 41.1518 8.87695C39.6852 8.87638 39.6852 8.87638 38.1889 8.8758C36.0231 8.75498 36.0231 8.75498 35 10ZM7 11C7 22.55 7 34.1 7 46C15.6834 43.1055 20.153 39.2078 24.375 31.0625C27.5595 24.1311 29 18.7279 29 11C21.74 11 14.48 11 7 11ZM365 11C365 23.5279 369.291 33.5574 377.961 42.5898C380.601 44.5766 380.601 44.5766 387 46C387 34.45 387 22.9 387 11C379.74 11 372.48 11 365 11ZM7 810C7 821.22 7 832.44 7 844C14.26 844 21.52 844 29 844C27.8029 832.029 24.8252 820.835 15.4258 812.625C12.3317 810.38 10.9249 810 7 810ZM376.09 814.625C368.369 822.77 365 832.993 365 844C372.26 844 379.52 844 387 844C387 832.45 387 820.9 387 809C383.209 809 378.88 812.251 376.09 814.625Z" fill="#E1AE33"/>
<path d="M45 28C145.32 28 245.64 28 349 28C350.98 33.94 352.96 39.88 355 46C361.901 59.2355 361.901 59.2355 373.582 67.8794C376 70 376 70 376.466 72.1967C376.653 75.3125 376.669 78.3946 376.64 81.516C376.649 82.7246 376.657 83.9331 376.666 85.1783C376.685 88.5543 376.68 91.929 376.667 95.3049C376.658 98.9695 376.678 102.634 376.694 106.298C376.718 112.728 376.724 119.157 376.717 125.587C376.707 135.148 376.726 144.709 376.75 154.269C376.794 172.337 376.804 190.404 376.803 208.472C376.803 222.422 376.811 236.372 376.825 250.322C376.829 254.334 376.833 258.345 376.836 262.356C376.838 263.852 376.838 263.852 376.839 265.378C376.866 293.438 376.882 321.497 376.877 349.557C376.877 351.145 376.877 351.145 376.876 352.765C376.875 358.13 376.874 363.496 376.873 368.862C376.873 369.927 376.873 370.993 376.872 372.091C376.872 374.246 376.871 376.401 376.871 378.556C376.864 412.09 376.894 445.623 376.954 479.156C377.02 516.805 377.057 554.455 377.05 592.105C377.05 596.117 377.049 600.13 377.049 604.143C377.048 605.131 377.048 606.119 377.048 607.137C377.047 622.07 377.07 637.003 377.104 651.937C377.144 668.916 377.152 685.896 377.119 702.875C377.101 712.383 377.109 721.891 377.151 731.399C377.178 737.745 377.171 744.091 377.138 750.438C377.12 754.058 377.116 757.676 377.152 761.295C377.191 765.191 377.16 769.085 377.121 772.981C377.144 774.109 377.166 775.236 377.189 776.398C377.035 783.854 377.035 783.854 374.007 787.208C371.743 788.972 369.433 790.485 367 792C358.726 800.381 353.521 810.822 350.543 822.137C350 824 350 824 349 825C347.374 825.097 345.743 825.124 344.114 825.123C343.049 825.125 341.985 825.127 340.888 825.129C339.112 825.125 339.112 825.125 337.301 825.12C336.054 825.121 334.808 825.122 333.524 825.123C330.049 825.125 326.574 825.121 323.098 825.116C319.357 825.112 315.615 825.113 311.873 825.114C305.385 825.114 298.897 825.111 292.41 825.106C283.029 825.098 273.648 825.095 264.268 825.094C249.05 825.092 233.832 825.085 218.614 825.075C203.828 825.066 189.042 825.059 174.255 825.055C172.889 825.055 172.889 825.055 171.495 825.054C166.926 825.053 162.357 825.052 157.789 825.05C119.859 825.04 81.9295 825.022 44 825C43.5195 823.49 43.5195 823.49 43.0293 821.949C42.5928 820.603 42.1559 819.256 41.7187 817.91C41.5096 817.25 41.3004 816.589 41.0849 815.909C38.1396 806.898 33.0814 795.817 24.8147 790.628C21.264 788.349 18.5063 786.549 17.1608 782.432C16.8419 779.256 16.8077 776.184 16.8674 772.992C16.8478 771.172 16.8478 771.172 16.8278 769.316C16.8006 765.944 16.8137 762.577 16.8438 759.206C16.8666 755.541 16.8373 751.876 16.8146 748.21C16.7821 741.785 16.7831 735.361 16.806 728.936C16.84 719.383 16.8227 709.829 16.7951 700.276C16.7477 683.214 16.7519 666.152 16.7778 649.091C16.8005 634.16 16.8064 619.229 16.7956 604.298C16.795 603.309 16.7943 602.319 16.7936 601.299C16.7908 597.282 16.7879 593.264 16.7849 589.247C16.7574 551.546 16.7824 513.846 16.8308 476.145C16.8735 442.638 16.8697 409.132 16.8266 375.625C16.7785 337.994 16.7593 300.363 16.7872 262.732C16.79 258.722 16.7929 254.712 16.7956 250.702C16.7964 249.714 16.7971 248.727 16.7978 247.709C16.808 232.787 16.7961 217.864 16.7733 202.941C16.7476 185.976 16.754 169.012 16.8029 152.047C16.8293 142.547 16.8309 133.049 16.797 123.55C16.7769 117.209 16.7893 110.869 16.8286 104.529C16.85 100.913 16.8572 97.2981 16.8249 93.6821C16.7905 89.79 16.8255 85.9003 16.8674 82.0082C16.8463 80.8815 16.8253 79.7548 16.8036 78.5939C16.965 71.15 16.965 71.15 19.9714 67.8095C22.2413 66.0407 24.5638 64.5264 27 63C31.6399 58.8656 34.3367 53.784 37.125 48.3125C37.4499 47.6777 37.7748 47.0429 38.1096 46.3889C41.0707 40.3381 42.8155 34.5535 45 28ZM48 33C45.36 39.6 42.72 46.2 40 53C36.0445 59.8265 33.0036 64.3477 26.8205 69.073C23.0322 72.4464 21.3127 74.5693 20.7488 79.6494C20.6974 81.814 20.7004 83.9803 20.7472 86.145C20.7332 87.3486 20.7193 88.5523 20.7049 89.7924C20.6764 93.1283 20.6926 96.4585 20.7277 99.7939C20.7549 103.424 20.724 107.053 20.7006 110.683C20.6676 117.042 20.6717 123.401 20.7003 129.76C20.7426 139.217 20.7277 148.672 20.7015 158.129C20.6566 175.017 20.6686 191.905 20.7044 208.793C20.7355 223.571 20.7472 238.348 20.7397 253.126C20.7392 254.106 20.7388 255.086 20.7383 256.096C20.7363 260.073 20.7343 264.051 20.7321 268.028C20.7119 305.346 20.7485 342.664 20.8115 379.981C20.8673 413.146 20.8772 446.311 20.8472 479.476C20.8395 487.969 20.8319 496.463 20.8248 504.956C20.8239 506.002 20.8231 507.047 20.8222 508.125C20.7997 535.827 20.8144 563.53 20.8406 591.232C20.8434 594.212 20.8461 597.192 20.8489 600.173C20.8507 602.15 20.8525 604.127 20.8544 606.104C20.868 620.874 20.8627 635.645 20.8485 650.416C20.8326 667.207 20.8456 683.998 20.8968 700.789C20.9247 710.191 20.9306 719.591 20.905 728.993C20.8901 735.268 20.9042 741.543 20.9421 747.818C20.9629 751.397 20.971 754.974 20.9441 758.553C20.9155 762.405 20.9484 766.255 20.9877 770.107C20.9695 771.222 20.9514 772.337 20.9326 773.485C21.0188 779.25 21.0188 779.25 23.7253 784.168C25.7384 785.939 27.8072 787.461 30 789C38.8305 797.113 43.2761 808.828 47 820C146 820 245 820 347 820C348.65 815.38 350.3 810.76 352 806C361.515 788.028 361.515 788.028 369.069 784.612C372.386 781.656 372.458 781.183 372.759 776.976C372.794 774.812 372.796 772.646 372.772 770.481C372.782 769.285 372.793 768.088 372.804 766.855C372.827 763.517 372.823 760.18 372.808 756.842C372.798 753.217 372.823 749.592 372.843 745.967C372.874 739.608 372.883 733.249 372.877 726.889C372.868 717.433 372.893 707.977 372.924 698.52C372.982 680.649 372.999 662.778 373.002 644.906C373.005 631.106 373.017 617.305 373.037 603.504C373.042 599.535 373.047 595.565 373.053 591.596C373.054 590.609 373.055 589.622 373.057 588.606C373.094 560.839 373.117 533.073 373.115 505.306C373.114 504.259 373.114 503.211 373.114 502.132C373.114 496.823 373.113 491.514 373.113 486.205C373.112 484.623 373.112 484.623 373.112 483.01C373.112 480.878 373.112 478.745 373.111 476.613C373.108 443.442 373.153 410.271 373.235 377.1C373.327 339.849 373.379 302.599 373.373 265.348C373.373 261.376 373.372 257.404 373.372 253.433C373.372 252.455 373.372 251.477 373.372 250.469C373.372 234.724 373.41 218.979 373.462 203.234C373.513 187.41 373.519 171.586 373.479 155.762C373.457 146.359 373.468 136.958 373.527 127.555C373.563 121.273 373.555 114.992 373.512 108.711C373.489 105.131 373.484 101.554 373.533 97.975C374.471 83.2489 374.471 83.2489 369.383 70.0634C367.35 68.0264 365.441 66.6715 363 65.0688C353.257 58.3501 349.777 43.072 346 33C247.66 33 149.32 33 48 33Z" fill="#C38310"/>
<path d="M3.99999 55C4.65999 55 5.31999 55 5.99999 55C5.99999 300.85 5.99999 546.7 5.99999 800C10.455 801.485 10.455 801.485 15 803C24.175 807.693 29.0507 816.654 32.2629 826.092C32.4855 826.784 32.7081 827.475 32.9375 828.188C33.1491 828.84 33.3608 829.493 33.5788 830.166C35.0553 835.16 35 838.492 35 844C141.92 843.67 248.84 843.34 359 843C359.33 844.65 359.66 846.3 360 848C318.521 848.091 277.041 848.162 235.562 848.204C230.669 848.209 225.776 848.214 220.883 848.22C219.908 848.221 218.934 848.222 217.931 848.223C202.141 848.24 186.352 848.272 170.563 848.309C154.371 848.346 138.179 848.368 121.987 848.376C111.989 848.382 101.992 848.399 91.9946 848.432C85.1461 848.453 78.2977 848.459 71.4491 848.454C67.4933 848.451 63.5378 848.455 59.582 848.477C55.9641 848.496 52.3467 848.497 48.7288 848.484C46.7924 848.481 44.856 848.498 42.9197 848.516C41.2073 848.504 41.2073 848.504 39.4604 848.492C38.4712 848.494 37.4821 848.495 36.4629 848.497C34 848 34 848 32.1587 846.094C31 844 31 844 31 842C30.34 842 29.68 842 29 842C28.7087 840.961 28.4173 839.922 28.1172 838.852C24.8518 827.582 21.7231 817.156 11 811C9.67999 810.67 8.35999 810.34 6.99999 810C6.99999 821.22 6.99999 832.44 6.99999 844C14.59 844 22.18 844 30 844C30.33 845.32 30.66 846.64 31 848C22.42 848 13.84 848 4.99999 848C3.38697 844.774 3.87945 841.253 3.90233 837.711C3.90375 836.893 3.90516 836.074 3.90662 835.231C3.91222 832.612 3.92478 829.994 3.93749 827.375C3.9425 825.602 3.94706 823.828 3.95116 822.055C3.9622 817.703 3.97946 813.352 3.99999 809C4.65999 808.67 5.31999 808.34 5.99999 808C5.50499 806.515 5.50499 806.515 4.99999 805C5.65999 805 6.31999 805 6.99999 805C6.99999 805.66 6.99999 806.32 6.99999 807C7.71928 807.075 8.43858 807.15 9.17967 807.227C12.7479 808.205 14.4474 809.845 17.125 812.375C18.3973 813.562 18.3973 813.562 19.6953 814.773C21.4816 816.499 23.2552 818.232 25 820C18.7543 811.286 14.4257 806.979 3.99999 804C3.99999 556.83 3.99999 309.66 3.99999 55Z" fill="#A16701"/>
<path d="M0 0C129.69 0 259.38 0 393 0C393 280.5 393 561 393 850C392.34 849.67 391.68 849.34 391 849C391 570.15 391 291.3 391 4C262.96 4 134.92 4 3 4C2.01 3.34 1.02 2.68 0 2C0 1.34 0 0.68 0 0Z" fill="#9B5F00"/>
<path d="M21 74C21.33 74 21.66 74 22 74C22 307.64 22 541.28 22 782C23.32 782.66 24.64 783.32 26 784C37.1448 793.402 44.9388 806.572 47 821C146.66 821.33 246.32 821.66 349 822C349 822.99 349 823.98 349 825C248.35 825 147.7 825 44 825C42.35 820.05 40.7 815.1 39 810C33.703 800.068 28.9868 793.137 19.793 786.613C19.2013 786.081 18.6096 785.549 18 785C18 784.01 18 783.02 18 782C18.66 782 19.32 782 20 782C19.67 781.34 19.34 780.68 19 780C18.9052 778.416 18.874 776.827 18.8735 775.24C18.8694 773.72 18.8694 773.72 18.8651 772.17C18.8672 771.046 18.8692 769.923 18.8714 768.765C18.8696 767.575 18.8679 766.384 18.8661 765.158C18.8622 761.829 18.8628 758.5 18.8653 755.171C18.867 751.558 18.8628 747.946 18.8594 744.334C18.8543 737.995 18.8529 731.655 18.8539 725.316C18.8554 715.89 18.8513 706.463 18.846 697.037C18.8363 679.225 18.8335 661.414 18.8329 643.602C18.8325 629.852 18.8304 616.102 18.8272 602.352C18.8263 598.399 18.8255 594.447 18.8246 590.494C18.8242 589.02 18.8242 589.02 18.8239 587.517C18.8177 559.867 18.8138 532.218 18.8142 504.569C18.8143 503.526 18.8143 502.482 18.8143 501.408C18.8144 496.12 18.8145 490.833 18.8146 485.545C18.8146 484.495 18.8146 483.445 18.8146 482.363C18.8147 480.239 18.8147 478.115 18.8148 475.991C18.8154 442.935 18.8079 409.879 18.7942 376.822C18.7788 339.717 18.7702 302.611 18.7712 265.506C18.7712 261.553 18.7713 257.601 18.7713 253.648C18.7713 252.675 18.7713 251.701 18.7713 250.699C18.7714 235.002 18.765 219.305 18.7564 203.608C18.7479 187.847 18.7469 172.086 18.7535 156.324C18.7572 146.949 18.7553 137.573 18.7455 128.198C18.7396 121.946 18.7408 115.694 18.748 109.442C18.7519 105.873 18.7526 102.304 18.7446 98.7346C18.736 94.9014 18.7427 91.0683 18.7511 87.2351C18.7461 86.1115 18.7412 84.9879 18.7361 83.8302C18.7408 82.8171 18.7456 81.804 18.7505 80.7602C18.7504 79.8824 18.7503 79.0047 18.7502 78.1004C19 76 19 76 21 74Z" fill="#B56F02"/>
<path d="M44 30C143.66 30 243.32 30 346 30C346.66 31.32 347.32 32.64 348 34C249 33.67 150 33.34 48 33C47.01 36.63 46.02 40.26 45 44C39.5619 57.1645 31.9526 68.0316 20 76C19.548 78.1879 19.548 78.1879 19.6274 80.7753C19.6207 81.7918 19.6139 82.8083 19.607 83.8556C19.6149 84.983 19.6227 86.1104 19.6309 87.272C19.6274 88.4663 19.6239 89.6606 19.6204 90.891C19.6138 94.2314 19.6207 97.5713 19.6332 100.912C19.6435 104.536 19.6364 108.16 19.6315 111.785C19.6252 118.145 19.6302 124.505 19.6424 130.865C19.6604 140.323 19.6614 149.781 19.6588 159.238C19.6548 175.146 19.6649 191.053 19.6828 206.96C19.7005 222.717 19.7121 238.473 19.7154 254.23C19.7156 255.209 19.7158 256.187 19.716 257.196C19.717 262.165 19.7179 267.135 19.7188 272.105C19.7251 307.332 19.7453 342.559 19.7737 377.787C19.8012 412.016 19.8225 446.245 19.8352 480.474C19.8356 481.529 19.836 482.583 19.8364 483.67C19.8404 494.26 19.8442 504.849 19.8479 515.439C19.8555 537.013 19.864 558.587 19.873 580.161C19.8734 581.153 19.8738 582.145 19.8742 583.167C19.9018 649.445 19.9494 715.722 20 782C19.34 782 18.68 782 18 782C17.8458 714.219 17.7027 646.438 17.6189 578.657C17.617 577.153 17.617 577.153 17.6151 575.618C17.5882 553.827 17.5633 532.035 17.5404 510.244C17.5292 499.558 17.5175 488.871 17.5056 478.185C17.5044 477.122 17.5033 476.058 17.502 474.963C17.4637 440.478 17.3961 405.994 17.3133 371.51C17.2285 336.08 17.173 300.651 17.1548 265.221C17.1522 260.22 17.1492 255.219 17.1461 250.218C17.1452 248.741 17.1452 248.741 17.1443 247.235C17.1336 231.373 17.0918 215.512 17.0385 199.65C16.9856 183.714 16.9653 167.778 16.9785 151.842C16.9853 142.367 16.967 132.893 16.9128 123.418C16.8791 117.094 16.878 110.77 16.9035 104.445C16.9171 100.838 16.9164 97.2329 16.8761 93.626C16.833 89.7436 16.8593 85.8635 16.8926 81.9809C16.8689 80.857 16.8453 79.7331 16.8209 78.5751C16.9659 71.1491 16.9659 71.1491 19.9699 67.8111C22.2403 66.042 24.5635 64.5271 27 63C31.6751 58.8334 34.3786 53.701 37.1875 48.1875C37.5208 47.536 37.8541 46.8844 38.1975 46.2131C40.8391 40.8162 42.22 35.9335 44 30Z" fill="#AA6900"/>
<path d="M0 2C0.99 2.495 0.99 2.495 2 3C2.33 282.84 2.66 562.68 3 851C2.01 851 1.02 851 0 851C0 570.83 0 290.66 0 2Z" fill="#F8BF1E"/>
<path d="M1.99999 3C2.32999 3 2.65999 3 2.99999 3C3.32999 281.85 3.65999 560.7 3.99999 848C131.71 848 259.42 848 391 848C391.66 848.99 392.32 849.98 393 851C264.3 851 135.6 851 2.99999 851C1.6664 848.333 1.87535 846.316 1.87579 843.327C1.87354 842.11 1.8713 840.893 1.86898 839.639C1.87155 838.273 1.8742 836.907 1.87694 835.542C1.8762 834.097 1.87502 832.651 1.87344 831.206C1.87036 827.203 1.87356 823.2 1.87772 819.197C1.88114 814.854 1.87879 810.511 1.87714 806.168C1.87507 798.546 1.87672 790.924 1.88078 783.302C1.8868 771.968 1.88712 760.634 1.88624 749.301C1.88493 730.238 1.88828 711.175 1.89426 692.113C1.90017 673.23 1.90402 654.347 1.90511 635.464C1.90518 634.292 1.90525 633.119 1.90532 631.911C1.90566 625.955 1.90596 620 1.90625 614.045C1.90835 571.83 1.91509 529.614 1.92455 487.399C1.93373 446.379 1.94081 405.36 1.94506 364.34C1.94519 363.077 1.94532 361.813 1.94546 360.511C1.94677 347.821 1.94805 335.13 1.94929 322.44C1.95183 296.587 1.95465 270.734 1.95765 244.88C1.95778 243.692 1.95792 242.503 1.95806 241.278C1.96727 161.852 1.98311 82.426 1.99999 3Z" fill="#CA8502"/>
<path d="M33 5C140.25 5 247.5 5 358 5C358 5.99 358 6.98 358 8C358.66 8 359.32 8 360 8C360.33 7.01 360.66 6.02 361 5C361.33 6.65 361.66 8.3 362 10C362.99 10.33 363.98 10.66 365 11C365.147 11.9552 365.294 12.9104 365.445 13.8945C367.449 25.4448 370.539 35.0652 380.031 42.6953C382.565 44.3741 385.041 45.3343 388 46C388 47.32 388 48.64 388 50C383.495 50.3975 380.81 49.4101 377 47C374.787 44.8224 372.747 42.5705 371 40C371 39.34 371 38.68 371 38C370.34 38 369.68 38 369 38C367.35 33.71 365.7 29.42 364 25C364 27.31 364 29.62 364 32C363.34 32 362.68 32 362 32C361.506 30.4213 361.031 28.8366 360.562 27.25C360.296 26.3683 360.029 25.4866 359.754 24.5781C359.056 21.268 358.717 18.1436 358.453 14.7764C358.367 13.6949 358.281 12.6134 358.192 11.4992C358.129 10.6745 358.065 9.84973 358 9C357.32 9.00152 356.64 9.00304 355.939 9.0046C315.656 9.09405 275.373 9.16271 235.09 9.20426C230.258 9.20926 225.425 9.21444 220.592 9.21973C219.629 9.22078 218.667 9.22183 217.676 9.22291C202.081 9.24033 186.485 9.27188 170.89 9.30861C154.897 9.34597 138.904 9.36823 122.911 9.37635C113.036 9.38185 103.162 9.39924 93.287 9.43167C86.5226 9.45275 79.7583 9.45921 72.9938 9.45401C69.0866 9.45143 65.1797 9.45547 61.2725 9.47682C57.0432 9.49976 52.8145 9.49199 48.5851 9.48102C46.7189 9.4985 46.7189 9.4985 44.815 9.51633C43.6874 9.50836 42.5597 9.5004 41.3979 9.49219C39.9324 9.49447 39.9324 9.49447 38.4373 9.49679C36 9 36 9 33 5Z" fill="#C87F01"/>
<path d="M388 58C388.33 58 388.66 58 389 58C389.001 58.9624 389.001 58.9624 389.002 59.9443C389.08 129.775 389.158 199.606 389.244 269.436C389.245 270.479 389.246 271.521 389.248 272.595C389.275 295.25 389.303 317.905 389.331 340.56C389.345 351.669 389.359 362.778 389.372 373.887C389.374 374.993 389.375 376.099 389.376 377.238C389.421 413.094 389.462 448.95 389.501 484.807C389.541 521.643 389.585 558.479 389.633 595.315C389.64 600.514 389.646 605.712 389.653 610.911C389.654 611.934 389.656 612.957 389.657 614.012C389.678 630.506 389.696 647 389.712 663.494C389.729 680.062 389.749 696.63 389.773 713.198C389.787 723.051 389.798 732.903 389.805 742.756C389.811 749.33 389.819 755.903 389.831 762.477C389.838 766.228 389.843 769.978 389.843 773.729C389.844 777.762 389.852 781.795 389.861 785.828C389.86 787.002 389.859 788.176 389.858 789.386C389.862 790.458 389.866 791.53 389.869 792.634C389.87 793.557 389.872 794.479 389.873 795.43C390.002 798.045 390.447 800.445 391 803C391.081 804.565 391.118 806.132 391.114 807.698C391.113 809.049 391.113 809.049 391.113 810.427C391.108 811.386 391.103 812.344 391.098 813.332C391.096 814.324 391.095 815.316 391.093 816.337C391.088 819.496 391.075 822.654 391.062 825.812C391.057 827.958 391.053 830.103 391.049 832.248C391.038 837.499 391.021 842.749 391 848C388.634 849.183 387.223 849.123 384.583 849.12C383.655 849.122 382.727 849.123 381.77 849.124C380.749 849.121 379.728 849.117 378.675 849.114C377.066 849.114 377.066 849.114 375.423 849.114C371.863 849.113 368.303 849.105 364.742 849.098C362.279 849.096 359.815 849.094 357.352 849.093C350.858 849.09 344.365 849.08 337.871 849.069C331.249 849.058 324.626 849.054 318.004 849.049C305.003 849.038 292.001 849.021 279 849C279 848.67 279 848.34 279 848C305.73 848 332.46 848 360 848C359.01 845.03 359.01 845.03 358 842C358.85 828.649 364.589 815.466 373.809 805.777C377.73 802.597 382.853 800 388 800C388 555.14 388 310.28 388 58ZM376.09 814.625C368.369 822.77 365 832.993 365 844C372.26 844 379.52 844 387 844C387 832.45 387 820.9 387 809C383.209 809 378.88 812.251 376.09 814.625Z" fill="#FFB522"/>
<path d="M389 51C389.66 51.33 390.32 51.66 391 52C391 299.83 391 547.66 391 803C390.67 803 390.34 803 390 803C389.199 799.476 388.873 796.223 388.868 792.612C388.864 791.535 388.86 790.458 388.856 789.349C388.857 788.169 388.858 786.989 388.858 785.774C388.855 784.513 388.852 783.252 388.849 781.953C388.84 778.439 388.838 774.926 388.837 771.412C388.834 767.595 388.826 763.778 388.818 759.961C388.805 753.266 388.796 746.572 388.79 739.877C388.78 729.922 388.765 719.968 388.749 710.013C388.719 692.236 388.696 674.46 388.675 656.684C388.656 641.129 388.636 625.574 388.614 610.019C388.612 608.988 388.611 607.958 388.61 606.896C388.604 602.712 388.598 598.529 388.592 594.345C388.536 555.081 388.486 515.816 388.438 476.552C388.396 441.642 388.349 406.732 388.297 371.823C388.239 332.628 388.184 293.434 388.134 254.239C388.129 250.064 388.124 245.889 388.118 241.713C388.117 240.685 388.116 239.657 388.114 238.598C388.095 223.049 388.072 207.499 388.049 191.95C388.022 174.278 387.999 156.605 387.981 138.933C387.97 129.033 387.957 119.133 387.94 109.234C387.929 102.631 387.921 96.0286 387.917 89.4261C387.914 85.6576 387.91 81.8891 387.901 78.1206C387.892 74.0719 387.89 70.0232 387.89 65.9745C387.884 64.198 387.884 64.198 387.878 62.3856C387.879 61.3137 387.88 60.2418 387.881 59.1374C387.88 58.2106 387.879 57.2838 387.877 56.3289C388 54 388 54 389 51Z" fill="#CE850F"/>
<path d="M3 54C3.99 54.495 3.99 54.495 5 55C4.67 302.17 4.34 549.34 4 804C6.31 804.33 8.62 804.66 11 805C17.2227 808.698 22.4252 813.713 26 820C25.67 820.99 25.34 821.98 25 823C24.6481 822.492 24.2962 821.984 23.9336 821.461C19.4318 815.184 14.6424 809.316 7 807C7 806.34 7 805.68 7 805C6.34 805 5.68 805 5 805C5.66 806.32 6.32 807.64 7 809C6.01 809 5.02 809 4 809C4.33 821.87 4.66 834.74 5 848C13.58 848 22.16 848 31 848C30.01 845.03 30.01 845.03 29 842C30.32 842 31.64 842 33 842C33.495 844.475 33.495 844.475 34 847C114.85 847.33 195.7 847.66 279 848C279 848.33 279 848.66 279 849C243.984 849.023 208.967 849.041 173.951 849.051C169.821 849.052 165.692 849.054 161.562 849.055C160.74 849.055 159.918 849.055 159.071 849.056C145.741 849.06 132.411 849.068 119.081 849.077C105.413 849.086 91.7457 849.092 78.0781 849.094C69.6376 849.095 61.1972 849.1 52.7567 849.108C46.9767 849.113 41.1968 849.115 35.4168 849.114C32.077 849.113 28.7372 849.114 25.3974 849.119C21.785 849.124 18.1727 849.123 14.5603 849.12C13.4932 849.123 12.4261 849.126 11.3267 849.129C9.8868 849.126 9.8868 849.126 8.41782 849.123C7.16531 849.124 7.16531 849.124 5.8875 849.124C4 849 4 849 3 848C2.90221 846.264 2.87552 844.524 2.8758 842.785C2.87355 841.644 2.8713 840.504 2.86899 839.329C2.87162 838.058 2.87424 836.786 2.87695 835.477C2.87621 834.121 2.87503 832.766 2.87345 831.411C2.87036 827.653 2.87358 823.894 2.87773 820.136C2.88115 816.06 2.8788 811.984 2.87715 807.909C2.87507 800.754 2.87673 793.599 2.88079 786.445C2.88681 775.806 2.88713 765.167 2.88625 754.528C2.88493 736.635 2.88829 718.742 2.89427 700.849C2.90018 683.123 2.90403 665.398 2.90512 647.673C2.90519 646.572 2.90526 645.471 2.90533 644.337C2.90567 638.748 2.90597 633.158 2.90625 627.569C2.90836 587.943 2.9151 548.317 2.92456 508.691C2.93374 470.187 2.94082 431.683 2.94506 393.178C2.9452 391.992 2.94533 390.806 2.94546 389.584C2.94678 377.673 2.94806 365.761 2.9493 353.85C2.95184 329.583 2.95466 305.317 2.95765 281.05C2.95779 279.934 2.95793 278.819 2.95807 277.669C2.96728 203.113 2.98312 128.556 3 54Z" fill="#C89B23"/>
<path d="M19 783C28.9601 786.372 35.1526 796.151 40 805C41.3908 807.937 42.7116 810.882 43.957 813.883C44.8129 816.158 44.8129 816.158 47 817C47 818.32 47 819.64 47 821C146.66 821.33 246.32 821.66 349 822C349 822.99 349 823.98 349 825C248.35 825 147.7 825 44 825C41.525 817.575 41.525 817.575 39 810C33.9566 800.544 29.5194 793.397 20.5742 787.395C20.0547 786.934 19.5352 786.474 19 786C19 785.01 19 784.02 19 783Z" fill="#B57000"/>
<path d="M41 45C42.2461 46.543 42.2461 46.543 43 49C41.8114 51.666 40.6215 53.8777 39.0625 56.3125C38.6437 56.9846 38.2249 57.6567 37.7935 58.3491C34.5128 63.4844 30.9424 69.0591 25.3136 71.8302C23.1385 73.0292 21.6401 74.1237 20 76C18.9381 79.8628 19.0732 83.656 19.1387 87.6411C19.1306 88.8389 19.1225 90.0366 19.1142 91.2707C19.0988 94.6076 19.1149 97.9417 19.1441 101.278C19.1682 104.903 19.1516 108.528 19.1401 112.153C19.1256 118.51 19.1371 124.866 19.1656 131.223C19.2078 140.675 19.2099 150.127 19.2038 159.58C19.1946 175.479 19.218 191.378 19.2599 207.277C19.3013 223.023 19.3282 238.769 19.3359 254.515C19.3363 255.493 19.3368 256.472 19.3373 257.48C19.3397 262.449 19.3418 267.417 19.3438 272.386C19.3585 307.595 19.4057 342.804 19.4719 378.013C19.5362 412.222 19.5858 446.43 19.6155 480.639C19.6164 481.693 19.6173 482.747 19.6183 483.833C19.6275 494.419 19.6364 505.005 19.6451 515.591C19.6629 537.157 19.6826 558.723 19.7036 580.288C19.7046 581.28 19.7055 582.271 19.7065 583.293C19.7709 649.529 19.8819 715.764 20 782C19.34 782 18.68 782 18 782C18 547.7 18 313.4 18 72C19.98 71.34 21.96 70.68 24 70C26.2282 67.4656 26.2282 67.4656 28 65C28.66 65 29.32 65 30 65C30.2578 64.4521 30.5156 63.9043 30.7812 63.3398C32.7055 59.6455 35.0595 56.2335 37.3438 52.7539C38.8706 50.2151 39.9914 47.7787 41 45Z" fill="#FECA26"/>
<path d="M45 28C145.32 28 245.64 28 349 28C350.98 33.94 352.96 39.88 355 46C357.377 51.0822 357.377 51.0822 360 56C356.125 54.25 356.125 54.25 355 52C354.34 52.33 353.68 52.66 353 53C346 38.7061 346 38.7061 346 31C246.67 31 147.34 31 45 31C45 30.01 45 29.02 45 28Z" fill="#985D00"/>
<path d="M393 850C393 850.33 393 850.66 393 851C264.3 851 135.6 851 3 851C3 850.67 3 850.34 3 850C72.5998 848.915 142.205 848.664 211.812 848.423C212.662 848.42 213.513 848.417 214.39 848.414C215.668 848.41 215.668 848.41 216.972 848.405C218.696 848.399 220.421 848.393 222.146 848.387C223.428 848.383 223.428 848.383 224.736 848.378C238.805 848.33 252.875 848.272 266.944 848.21C281.56 848.146 296.176 848.089 310.792 848.04C318.933 848.013 327.074 847.982 335.215 847.943C342.08 847.91 348.944 847.884 355.808 847.867C359.301 847.858 362.794 847.846 366.286 847.825C370.064 847.805 373.841 847.796 377.619 847.791C378.725 847.782 379.831 847.773 380.971 847.763C381.979 847.764 382.987 847.766 384.026 847.767C384.896 847.763 385.767 847.76 386.663 847.757C389.189 848.02 390.821 848.729 393 850Z" fill="#C17800"/>
<path d="M352 811C353.184 814.552 352.695 815.698 351.562 819.188C351.275 820.089 350.988 820.99 350.691 821.918C350.349 822.949 350.349 822.949 350 824C349.67 823.34 349.34 822.68 349 822C249.01 822 149.02 822 46 822C46.33 821.34 46.66 820.68 47 820C146 820 245 820 347 820C347.33 819.01 347.66 818.02 348 817C348.33 817.66 348.66 818.32 349 819C350.485 815.04 350.485 815.04 352 811Z" fill="#985D00"/>
<path d="M353 4C365.54 4 378.08 4 391 4C391.069 10.7814 391.129 17.5616 391.165 24.343C391.18 26.6507 391.2 28.9583 391.226 31.2659C391.263 34.5797 391.28 37.8931 391.293 41.207C391.308 42.2415 391.324 43.2759 391.34 44.3418C391.34 45.3025 391.34 46.2633 391.341 47.2532C391.347 48.0992 391.354 48.9453 391.361 49.817C390.915 52.5162 390.203 53.4116 388 55C381.512 55.1298 376.8 52.2072 372 48C364.876 39.6593 362.615 32.8213 363 22C364.787 24.68 365.932 27.0313 367.125 30C367.655 31.2994 367.655 31.2994 368.195 32.625C369 35 369 35 369 38C369.66 38 370.32 38 371 38C372.364 39.9795 373.694 41.9819 375 44C377.382 46.9094 379.592 47.707 383.188 48.6875C384.539 49.0646 384.539 49.0646 385.918 49.4492C386.605 49.631 387.292 49.8127 388 50C387.756 49.259 387.756 49.259 387.506 48.5029C386.796 44.991 386.878 41.5196 386.902 37.9531C386.904 37.1819 386.905 36.4107 386.907 35.6161C386.912 33.1607 386.925 30.7054 386.938 28.25C386.943 26.582 386.947 24.9141 386.951 23.2461C386.962 19.164 386.979 15.082 387 11C383.042 10.9421 379.084 10.9065 375.125 10.875C373.997 10.8582 372.869 10.8415 371.707 10.8242C370.631 10.8178 369.554 10.8113 368.445 10.8047C367.45 10.7942 366.455 10.7837 365.43 10.7729C362.818 10.7562 362.818 10.7562 361 13C360.67 11.35 360.34 9.7 360 8C359.34 8 358.68 8 358 8C358 7.01 358 6.02 358 5C356.35 5 354.7 5 353 5C353 4.67 353 4.34 353 4Z" fill="#F1AE2B"/>
<path d="M44 30C143.66 30 243.32 30 346 30C346.66 31.32 347.32 32.64 348 34C347.01 33.67 346.02 33.34 345 33C345 32.34 345 31.68 345 31C246.99 31 148.98 31 48 31C47.67 33.31 47.34 35.62 47 38C46.0273 40.8711 46.0273 40.8711 44.9375 43.4375C44.5753 44.3025 44.213 45.1674 43.8398 46.0586C43.5627 46.6993 43.2855 47.3399 43 48C42.34 47.67 41.68 47.34 41 47C40.7087 47.6291 40.4173 48.2581 40.1172 48.9062C36.0969 57.3009 30.3061 68.5878 21 72C20.01 72 19.02 72 18 72C19.1401 68.5798 19.8105 68.2009 22.6875 66.25C29.5561 61.1992 33.3499 55.7277 37.1875 48.1875C37.5207 47.536 37.8539 46.8846 38.1973 46.2134C40.8392 40.8165 42.2199 35.9336 44 30Z" fill="#D7900E"/>
<path d="M19 783C28.9601 786.372 35.1526 796.151 40 805C41.3908 807.937 42.7116 810.882 43.957 813.883C44.8129 816.158 44.8129 816.158 47 817C47 818.32 47 819.64 47 821C146.66 821.33 246.32 821.66 349 822C348.67 822.99 348.34 823.98 348 825C347.01 824.67 346.02 824.34 345 824C343.33 823.908 341.657 823.874 339.985 823.874C338.422 823.87 338.422 823.87 336.827 823.866C335.104 823.87 335.104 823.87 333.346 823.873C332.129 823.871 330.911 823.87 329.657 823.868C326.272 823.865 322.887 823.866 319.502 823.869C315.854 823.872 312.205 823.868 308.557 823.865C301.408 823.861 294.258 823.862 287.109 823.865C281.3 823.867 275.491 823.867 269.682 823.866C268.856 823.866 268.03 823.866 267.18 823.866C265.502 823.865 263.825 823.865 262.147 823.865C246.407 823.862 230.666 823.865 214.926 823.871C201.411 823.875 187.896 823.874 174.381 823.87C158.698 823.864 143.015 823.862 127.332 823.865C125.661 823.866 123.989 823.866 122.318 823.866C121.084 823.866 121.084 823.866 119.826 823.867C114.022 823.868 108.218 823.866 102.414 823.864C95.3437 823.861 88.2735 823.862 81.2034 823.867C77.5939 823.87 73.9845 823.871 70.3751 823.867C66.468 823.864 62.5609 823.868 58.6538 823.873C57.5051 823.871 56.3564 823.869 55.1728 823.866C54.1307 823.869 53.0885 823.871 52.0147 823.874C51.1123 823.874 50.2098 823.874 49.2799 823.875C46.8348 823.909 46.8348 823.909 44 825C43.7203 824.056 43.4405 823.113 43.1523 822.141C38.867 808.219 32.9627 795.707 20.5742 787.395C20.0547 786.934 19.5352 786.474 19 786C19 785.01 19 784.02 19 783Z" fill="#B88B1B"/>
<path d="M12.5977 13.9023C14.086 13.909 15.5743 13.921 17.0625 13.9375C17.8211 13.942 18.5797 13.9465 19.3613 13.9512C21.2409 13.963 23.1205 13.9809 25 14C25.56 22.8193 23.6098 28.9661 18.125 35.9375C15.4315 38.9059 12.9729 40.1487 9 41C7.25454 39.2545 7.86977 36.8388 7.86719 34.4688C7.8659 33.3486 7.86461 32.2284 7.86328 31.0742C7.86715 29.8947 7.87102 28.7152 7.875 27.5C7.87113 26.3205 7.86727 25.141 7.86328 23.9258C7.86457 22.8056 7.86586 21.6854 7.86719 20.5312C7.86831 19.4955 7.86944 18.4597 7.8706 17.3926C8.07983 13.5238 8.55856 14.012 12.5977 13.9023Z" fill="#D89609"/>
<path d="M369 14.0001C371.646 13.9733 374.292 13.9533 376.938 13.9376C377.692 13.9292 378.447 13.9208 379.225 13.9122C381.15 13.9036 383.075 13.9479 385 14.0001C386 15.0001 386 15.0001 386.114 17.4086C386.108 18.4507 386.103 19.4928 386.098 20.5665C386.094 21.6912 386.091 22.8159 386.088 23.9747C386.08 25.1587 386.071 26.3427 386.063 27.5626C386.058 28.7505 386.053 29.9383 386.049 31.1622C386.037 34.1082 386.021 37.0541 386 40.0001C385.01 40.3301 384.02 40.6601 383 41.0001C376.638 37.7483 372.626 32.4739 369.625 26.0626C368.798 22.0085 368.835 18.1215 369 14.0001Z" fill="#EDA620"/>
<path d="M8 815C13.2353 815.714 16.5959 816.857 20 821C24.0404 827.681 25.6363 833.237 25 841C22.3541 841.027 19.7085 841.047 17.0625 841.062C16.3078 841.071 15.553 841.079 14.7754 841.088C12.8501 841.097 10.9246 841.052 9 841C8 840 8 840 7.88647 837.592C7.89171 836.549 7.89695 835.507 7.90234 834.434C7.90557 833.309 7.90879 832.184 7.91211 831.025C7.92049 829.841 7.92887 828.657 7.9375 827.438C7.94201 826.25 7.94652 825.062 7.95117 823.838C7.963 820.892 7.97949 817.946 8 815Z" fill="#D7960D"/>
<path d="M386 815C386.029 819.146 386.047 823.292 386.062 827.438C386.071 828.622 386.079 829.806 386.088 831.025C386.093 832.712 386.093 832.712 386.098 834.434C386.106 835.997 386.106 835.997 386.114 837.592C386 840 386 840 385 841C382.303 841.073 379.633 841.092 376.937 841.062C376.179 841.058 375.42 841.053 374.639 841.049C372.759 841.037 370.88 841.019 369 841C368.181 832.814 370.441 826.834 375 820C378.877 816.557 380.749 815 386 815Z" fill="#9D6001"/>
<path d="M291.914 6.73197C296.765 7.00312 301.433 6.93758 306.277 6.53129C316.299 5.72287 326.328 5.89343 336.375 5.93754C338.383 5.94256 340.391 5.94712 342.398 5.95121C347.266 5.96211 352.133 5.9793 357 6.00004C357 6.99004 357 7.98004 357 9.00004C310.47 9.00004 263.94 9.00004 216 9.00004C216 8.67004 216 8.34004 216 8.00004C239.163 2.39764 268.249 5.26115 291.914 6.73197Z" fill="#A56400"/>
<path d="M4 11C4.99 11 5.98 11 7 11C7.33 22.22 7.66 33.44 8 45C17.375 40.9821 21.0283 36.8269 24.9375 27.5C25.6408 25.6727 26.3341 23.8413 27 22C27.33 22 27.66 22 28 22C28.3591 27.7449 27.248 31.7436 25 37C24.6906 37.825 24.3812 38.65 24.0625 39.5C23.5366 40.7375 23.5366 40.7375 23 42C22.5862 42.9784 22.5862 42.9784 22.1641 43.9766C20.1345 48.4416 18.6406 50.9117 14 53C12.9791 53.5878 12.9791 53.5878 11.9375 54.1875C10 55 10 55 6 55C0.0890024 44.2863 4 23.2802 4 11Z" fill="#AC7305"/>
<path d="M4.99999 805C5.65999 805 6.31999 805 6.99999 805C6.99999 805.66 6.99999 806.32 6.99999 807C7.72057 807.076 8.44116 807.152 9.18358 807.23C12.7282 808.199 14.402 809.8 17.0625 812.312C17.8991 813.092 18.7357 813.872 19.5976 814.676C26.4735 821.328 31.5765 827.083 32.1875 837.062C32.0947 838.022 32.0947 838.022 32 839C30.5862 836.361 29.6276 833.929 29 831C28.01 831 27.02 831 26 831C25.5875 830.059 25.175 829.118 24.75 828.148C21.4321 820.883 18.5468 814.657 11 811C9.67999 810.67 8.35999 810.34 6.99999 810C6.99999 821.22 6.99999 832.44 6.99999 844C14.59 844 22.18 844 30 844C30.33 845.32 30.66 846.64 31 848C22.42 848 13.84 848 4.99999 848C3.38697 844.774 3.87945 841.253 3.90233 837.711C3.90375 836.893 3.90516 836.074 3.90662 835.231C3.91222 832.612 3.92478 829.994 3.93749 827.375C3.9425 825.602 3.94706 823.828 3.95116 822.055C3.9622 817.703 3.97946 813.352 3.99999 809C4.65999 808.67 5.31999 808.34 5.99999 808C5.66999 807.01 5.33999 806.02 4.99999 805Z" fill="#AA7204"/>
<path d="M94.6445 5.83208C96.0263 5.82885 97.4082 5.82549 98.79 5.82199C101.668 5.81605 104.547 5.81415 107.425 5.81474C111.069 5.81484 114.712 5.80119 118.356 5.78397C121.206 5.77272 124.055 5.77083 126.904 5.77135C128.886 5.76964 130.869 5.75889 132.851 5.7478C141.741 5.76984 150.23 6.63192 159 8.00005C159 8.33005 159 8.66005 159 9.00005C119.4 9.00005 79.8 9.00005 39 9.00005C39 8.67005 39 8.34005 39 8.00005C39.8157 7.97499 40.6313 7.94993 41.4717 7.92412C44.5582 7.8278 47.6446 7.72866 50.731 7.62773C52.6995 7.56418 54.6681 7.50375 56.6367 7.44341C57.9064 7.40151 59.1762 7.35962 60.4844 7.31645C61.6365 7.27979 62.7886 7.24314 63.9756 7.20537C67.181 7.07299 70.3603 6.78796 73.5544 6.49077C80.587 5.88884 87.5896 5.83816 94.6445 5.83208Z" fill="#A56400"/>
<path d="M389 800C389 801.32 389 802.64 389 804C388.01 804.33 387.02 804.66 386 805C386.33 805.99 386.66 806.98 387 808C387.66 808 388.32 808 389 808C388.67 807.01 388.34 806.02 388 805C388.66 805 389.32 805 390 805C390 817.87 390 830.74 390 844C387.18 841.18 387.701 839.259 387.621 835.312C387.604 834.654 387.587 833.996 387.57 833.318C387.516 831.212 387.476 829.106 387.438 827C387.394 824.894 387.347 822.788 387.295 820.682C387.248 818.771 387.211 816.86 387.174 814.949C387.198 812.068 387.198 812.068 386 810C385.397 810.3 384.793 810.601 384.172 810.91C383.373 811.29 382.573 811.671 381.75 812.062C380.961 812.445 380.172 812.828 379.359 813.223C376.74 814.086 375.551 813.93 373 813C368.638 818.337 365.525 823.585 363 830C362.34 830 361.68 830 361 830C362.279 819.956 368.308 810.516 376 804C380.216 801.682 384.158 800 389 800Z" fill="#C97D04"/>
<path d="M373 812C375.062 812.438 375.062 812.438 377 813C375.623 815.817 374.165 818.554 372.562 821.25C371.946 822.31 371.946 822.31 371.316 823.391C370.882 823.922 370.448 824.453 370 825C369.01 825 368.02 825 367 825C366.324 827.54 365.659 830.081 365 832.625C364.714 833.694 364.714 833.694 364.422 834.785C364.151 835.839 364.151 835.839 363.875 836.914C363.707 837.553 363.54 838.192 363.367 838.85C362.832 841.622 362.832 841.622 363 847C370.92 847.33 378.84 847.66 387 848C387 848.33 387 848.66 387 849C351.36 849 315.72 849 279 849C279 848.67 279 848.34 279 848C305.73 848 332.46 848 360 848C359.01 845.03 359.01 845.03 358 842C358.242 838.789 358.242 838.789 358.875 835.625C359.079 834.565 359.282 833.506 359.492 832.414C359.66 831.617 359.827 830.821 360 830C360.99 830 361.98 830 363 830C363.147 829.443 363.294 828.886 363.445 828.312C365.329 821.904 368.248 816.752 373 812Z" fill="#C89427"/>
<path d="M362 10C362.99 10.33 363.98 10.66 365 11C365.147 11.9552 365.294 12.9104 365.445 13.8945C367.449 25.4448 370.539 35.0652 380.031 42.6953C382.565 44.3741 385.041 45.3343 388 46C388 47.32 388 48.64 388 50C383.495 50.3975 380.81 49.4101 377 47C374.787 44.8224 372.747 42.5705 371 40C371 39.34 371 38.68 371 38C370.34 38 369.68 38 369 38C367.35 33.71 365.7 29.42 364 25C364 27.31 364 29.62 364 32C363.34 32 362.68 32 362 32C358.37 20.0504 358.37 20.0504 359 14C361 11 361 11 362 10Z" fill="#A06403"/>
<path d="M368.496 5.86708C369.612 5.86579 370.727 5.8645 371.877 5.86317C373.639 5.86897 373.639 5.86897 375.438 5.87489C376.609 5.87102 377.78 5.86716 378.986 5.86317C380.662 5.86511 380.662 5.86511 382.371 5.86708C383.402 5.86821 384.432 5.86934 385.494 5.8705C388 5.99989 388 5.99989 390 6.99989C390 19.8699 390 32.7399 390 45.9999C387.17 43.1698 387.648 40.3804 387.586 36.5858C387.567 35.8562 387.547 35.1265 387.527 34.3748C387.467 32.0416 387.421 29.7084 387.375 27.3749C387.337 25.7941 387.298 24.2134 387.258 22.6327C387.162 18.7553 387.078 14.8777 387 10.9999C386.349 11.0208 385.699 11.0418 385.028 11.0634C382.081 11.1465 379.135 11.1985 376.188 11.2499C375.163 11.2834 374.139 11.3169 373.084 11.3515C372.101 11.3643 371.118 11.3772 370.105 11.3905C368.747 11.4219 368.747 11.4219 367.36 11.454C365 10.9999 365 10.9999 363.181 8.97548C362.791 8.32353 362.402 7.67159 362 6.99989C363.741 5.25916 366.131 5.86967 368.496 5.86708Z" fill="#C87C04"/>
<path d="M19 783C28.9601 786.372 35.1526 796.151 40 805C41.3908 807.937 42.7116 810.882 43.957 813.883C44.8129 816.158 44.8129 816.158 47 817C47 818.32 47 819.64 47 821C62.18 821.33 77.36 821.66 93 822C93 822.33 93 822.66 93 823C92.4304 823.01 91.8607 823.021 91.2738 823.031C85.3529 823.139 79.4322 823.254 73.5115 823.372C71.3009 823.416 69.0903 823.457 66.8796 823.497C63.7048 823.555 60.5302 823.619 57.3555 823.684C56.3648 823.7 55.374 823.717 54.3533 823.734C53.4326 823.754 52.5119 823.774 51.5632 823.795C50.3474 823.818 50.3474 823.818 49.1071 823.842C46.8085 823.928 46.8085 823.928 44 825C43.7203 824.056 43.4405 823.113 43.1523 822.141C38.867 808.219 32.9627 795.707 20.5742 787.395C20.0547 786.934 19.5352 786.474 19 786C19 785.01 19 784.02 19 783Z" fill="#C58F1A"/>
<path d="M369 14.0001C371.646 13.9733 374.292 13.9533 376.938 13.9376C377.692 13.9292 378.447 13.9208 379.225 13.9122C381.15 13.9036 383.075 13.9479 385 14.0001C386 15.0001 386 15.0001 386.114 17.3168C386.108 18.317 386.103 19.3172 386.098 20.3478C386.094 21.4274 386.091 22.5069 386.088 23.6192C386.08 24.7556 386.071 25.8919 386.062 27.0626C386.058 28.2028 386.053 29.343 386.049 30.5177C386.037 33.3452 386.021 36.1726 386 39.0001C384.134 37.4271 383.098 36.545 382.659 34.099C382.675 33.4025 382.691 32.706 382.707 31.9884C382.717 31.2311 382.726 30.4737 382.736 29.6935C382.761 28.9078 382.787 28.1221 382.812 27.3126C382.833 26.1167 382.833 26.1167 382.854 24.8966C382.889 22.9308 382.943 20.9654 383 19.0001C379.7 19.3301 376.4 19.6601 373 20.0001C373.588 21.6089 373.588 21.6089 374.187 23.2501C375 27.0001 375 27.0001 373.625 29.4376C373.089 29.9532 372.552 30.4689 372 31.0001C369.408 25.0612 368.596 20.459 369 14.0001Z" fill="#A54E00"/>
<path d="M367 825C367.66 825 368.32 825 369 825C368.795 825.785 368.59 826.57 368.379 827.379C368.109 828.429 367.84 829.48 367.562 830.562C367.296 831.595 367.029 832.628 366.754 833.691C365.979 837.09 365.493 840.549 365 844C372.59 844 380.18 844 388 844C388 845.32 388 846.64 388 848C383.854 848.029 379.708 848.047 375.562 848.062C373.786 848.075 373.786 848.075 371.975 848.088C370.85 848.091 369.725 848.094 368.566 848.098C367.003 848.106 367.003 848.106 365.408 848.114C363 848 363 848 362 847C361.934 838.97 363.567 832.217 367 825Z" fill="#9B5D00"/>
<path d="M383 820C383 825.28 383 830.56 383 836C378.38 836.33 373.76 836.66 369 837C369 835.35 369 833.7 369 832C369.99 832 370.98 832 372 832C372.227 831.299 372.454 830.598 372.688 829.875C374.652 825.572 377.736 820 383 820Z" fill="#F2A61E"/>
<path d="M12 19C15.3 19 18.6 19 22 19C23.5666 27.797 23.5666 27.797 21.9531 31.2227C20.5625 33.125 20.5625 33.125 18 36C17.34 34.68 16.68 33.36 16 32C14.02 32.99 14.02 32.99 12 34C12 29.05 12 24.1 12 19Z" fill="#FCB71A"/>
<path d="M5 6C9.31249 5.97113 13.6249 5.95325 17.9375 5.9375C19.1692 5.92912 20.4009 5.92074 21.6699 5.91211C22.8397 5.90889 24.0096 5.90566 25.2148 5.90234C26.8409 5.89449 26.8409 5.89449 28.4998 5.88647C31 6 31 6 32 7C32.0408 8.99958 32.0425 11.0005 32 13C31.01 13 30.02 13 29 13C29 12.34 29 11.68 29 11C28.016 11.0157 28.016 11.0157 27.0122 11.0317C24.0498 11.0732 21.0875 11.0993 18.125 11.125C17.0925 11.1418 16.0599 11.1585 14.9961 11.1758C14.01 11.1822 13.0238 11.1887 12.0078 11.1953C10.641 11.211 10.641 11.211 9.24658 11.2271C7 11 7 11 5 9C5 8.01 5 7.02 5 6Z" fill="#DD990C"/>
<path d="M389 800C389 801.32 389 802.64 389 804C388.299 804.196 387.598 804.392 386.875 804.594C377.958 807.404 372.443 811.356 367.953 819.633C366.194 823.042 364.572 826.502 363 830C362.34 830 361.68 830 361 830C362.279 819.956 368.308 810.516 376 804C380.216 801.682 384.158 800 389 800Z" fill="#A16401"/>
<path d="M373 812C375.062 812.438 375.062 812.438 377 813C375.623 815.817 374.165 818.554 372.562 821.25C372.151 821.956 371.74 822.663 371.316 823.391C370.882 823.922 370.448 824.453 370 825C369.01 825 368.02 825 367 825C366.01 828.3 365.02 831.6 364 835C363.34 835 362.68 835 362 835C361.67 839.29 361.34 843.58 361 848C358.402 842.803 357.911 841.55 358.937 835.875C359.229 834.231 359.229 834.231 359.527 832.555C359.683 831.712 359.839 830.869 360 830C360.99 830 361.98 830 363 830C363.147 829.443 363.294 828.886 363.445 828.312C365.329 821.904 368.248 816.752 373 812Z" fill="#F6D656"/>
<path d="M358 4.99991C358 5.98991 358 6.97991 358 7.99991C358.66 7.99991 359.32 7.99991 360 7.99991C360.33 7.00991 360.66 6.01991 361 4.99991C360.67 7.96991 360.34 10.9399 360 13.9999C359.34 13.9999 358.68 13.9999 358 13.9999C357.505 10.0399 357.505 10.0399 357 5.99991C350.312 6.14166 343.625 6.28829 336.938 6.43741C335.951 6.45915 334.965 6.48088 333.95 6.50327C322.874 6.74983 311.813 7.03892 300.75 7.62491C292.412 8.06019 284.31 7.85322 276 6.99991C276 6.66991 276 6.33991 276 5.99991C303.337 4.98272 330.646 4.88444 358 4.99991Z" fill="#C17400"/>
<path d="M388 798C388.66 798 389.32 798 390 798C390.735 801.292 391.123 804.328 391.114 807.698C391.113 808.599 391.113 809.5 391.113 810.427C391.108 811.386 391.103 812.344 391.098 813.332C391.096 814.324 391.095 815.316 391.093 816.337C391.088 819.496 391.075 822.654 391.062 825.812C391.057 827.958 391.053 830.103 391.049 832.248C391.038 837.499 391.021 842.749 391 848C389.02 848.495 389.02 848.495 387 849C387 836.79 387 824.58 387 812C387.33 812 387.66 812 388 812C388.33 821.9 388.66 831.8 389 842C389.33 829.79 389.66 817.58 390 805C389.67 805.99 389.34 806.98 389 808C388.34 808 387.68 808 387 808C386.67 807.34 386.34 806.68 386 806C384.02 806.33 382.04 806.66 380 807C382.762 804.238 385.207 804.421 389 804C388.67 802.02 388.34 800.04 388 798Z" fill="#F1B634"/>
<path d="M12 820C17.6522 823.391 17.6522 823.391 19.8125 828C20.2314 828.866 20.6504 829.733 21.082 830.625C22 833 22 833 22 836C18.7 836 15.4 836 12 836C12 830.72 12 825.44 12 820Z" fill="#FCB91E"/>
<path d="M363 22C366.222 26.8331 368.743 32.375 369.312 38.1875C370.41 42.6758 373.428 45.2117 377 48C380.187 49.7884 383.538 50.8461 387 52C387 52.99 387 53.98 387 55C380.875 54.6859 376.535 51.9132 372 48C364.87 39.6683 362.615 32.815 363 22Z" fill="#CB901A"/>
<path d="M3 802C3.33 802.66 3.66 803.32 4 804C4.96938 804.041 5.93875 804.082 6.9375 804.125C13.4538 804.877 18.5726 810.307 22.7852 814.98C24.1875 816.812 24.1875 816.812 26 820C25.67 820.99 25.34 821.98 25 823C24.6481 822.492 24.2962 821.984 23.9336 821.461C19.4318 815.184 14.6424 809.316 7 807C7 806.34 7 805.68 7 805C6.34 805 5.68 805 5 805C5.66 806.32 6.32 807.64 7 809C6.01 809 5.02 809 4 809C4.11823 814.215 4.24248 819.429 4.37231 824.643C4.41564 826.417 4.45732 828.191 4.49731 829.966C4.55508 832.515 4.61875 835.064 4.68359 837.613C4.70031 838.407 4.71702 839.201 4.73424 840.019C4.82118 843.247 4.9725 845.918 6 849C5.01 848.67 4.02 848.34 3 848C3 832.82 3 817.64 3 802Z" fill="#F7C131"/>
<path d="M144 6C147.333 5.97063 150.667 5.95308 154 5.9375C154.935 5.92912 155.869 5.92074 156.832 5.91211C157.754 5.90889 158.675 5.90566 159.625 5.90234C160.882 5.89449 160.882 5.89449 162.164 5.88647C165 6 165 6 168.631 6.5C173.844 7.18733 179.031 7.12452 184.281 7.09766C185.862 7.09553 185.862 7.09553 187.475 7.09337C190.817 7.08781 194.158 7.07526 197.5 7.0625C199.776 7.05748 202.052 7.05292 204.328 7.04883C209.885 7.03785 215.443 7.02115 221 7C221 7.33 221 7.66 221 8C217.42 8.81649 214.107 9.13064 210.438 9.14526C208.799 9.15483 208.799 9.15483 207.128 9.1646C205.954 9.16571 204.78 9.16682 203.57 9.16797C201.737 9.17296 201.737 9.17296 199.866 9.17805C197.275 9.18312 194.684 9.18546 192.094 9.1853C188.174 9.18747 184.255 9.20559 180.336 9.22461C155.932 9.2778 155.932 9.2778 144 7C144 6.67 144 6.34 144 6Z" fill="#AB7200"/>
<path d="M29 13C29.66 13 30.32 13 31 13C31.5193 24.7512 31.1744 36.1959 23.4023 45.6094C22 47 22 47 20 48C20.5434 44.0874 21.6658 42.1123 24 39C24.3822 37.3439 24.714 35.6754 25 34C25.3506 33.2369 25.7012 32.4737 26.0625 31.6875C27.0966 28.723 27.0323 26.2489 26.9375 23.1367C27.0412 19.5904 28.0282 16.4011 29 13Z" fill="#F9DB54"/>
<path d="M9 14C14.28 14 19.56 14 25 14C25.2857 23.5714 25.2857 23.5714 23 28C22.67 28 22.34 28 22 28C22 25.03 22 22.06 22 19C21.2407 19.0232 20.4815 19.0464 19.6992 19.0703C18.7054 19.0884 17.7115 19.1064 16.6875 19.125C15.2083 19.1598 15.2083 19.1598 13.6992 19.1953C11 19 11 19 8 17C8.33 16.01 8.66 15.02 9 14Z" fill="#B86205"/>
<path d="M43 34C44.9792 39.0221 42.4187 43.6363 40.5938 48.3789C37.3669 55.7105 32.8029 61.5195 27 67C26.5256 67.7425 26.0513 68.485 25.5625 69.25C23.3354 71.7444 21.2361 71.7123 18 72C19.1401 68.5798 19.8105 68.2009 22.6875 66.25C33.2746 58.4648 39.2023 46.4201 43 34Z" fill="#AD7505"/>
<path d="M23 37C23.66 37 24.32 37 25 37C20.5652 48.8261 20.5652 48.8261 16.5 51.875C15.675 52.2463 14.85 52.6175 14 53C13.3194 53.3919 12.6388 53.7837 11.9375 54.1875C10 55 10 55 6 55C5.34 53.68 4.68 52.36 4 51C4.87012 50.6365 4.87012 50.6365 5.75781 50.2656C13.3815 46.9948 18.4478 44.1535 23 37Z" fill="#B47C09"/>
<path d="M8 815C12.3072 815.308 15.3022 816.277 18.543 819.219C22.3823 823.912 25.3 830.056 25.3125 836.188C25.2094 837.116 25.1063 838.044 25 839C22.2714 836.641 21.2876 834.51 20.125 831.125C17.9536 825.445 14.9564 822.522 10.1875 818.812C9.46562 818.214 8.74375 817.616 8 817C8 816.34 8 815.68 8 815Z" fill="#A87204"/>
<path d="M8 807C16.0083 809.252 24.7506 818.046 29 825C30.881 829.603 32.4878 833.96 32 839C30.5862 836.361 29.6276 833.929 29 831C28.01 831 27.02 831 26 831C25.5875 830.059 25.175 829.118 24.75 828.148C21.393 820.8 18.5168 814.84 11 811C10.01 810.67 9.02 810.34 8 810C8 809.01 8 808.02 8 807Z" fill="#CF9817"/>
<path d="M387 14C387.33 14 387.66 14 388 14C388.495 33.8 388.495 33.8 389 54C388.01 54.495 388.01 54.495 387 55C387 54.01 387 53.02 387 52C386.051 52.0206 385.103 52.0412 384.125 52.0625C378.185 51.2486 373.804 46.3114 370 42C368.707 39.2031 368.707 39.2031 368 37C372.026 38.3421 372.752 40.487 375 44C377.381 46.9096 379.593 47.7073 383.188 48.6875C384.539 49.0646 384.539 49.0646 385.918 49.4492C386.605 49.631 387.292 49.8127 388 50C387.756 49.2386 387.756 49.2386 387.506 48.4619C386.824 45.1462 386.889 41.9942 386.902 38.6094C386.904 37.9048 386.905 37.2001 386.907 36.4742C386.912 34.2327 386.925 31.9914 386.938 29.75C386.943 28.2266 386.947 26.7031 386.951 25.1797C386.962 21.4531 386.979 17.7266 387 14Z" fill="#FEC234"/>
<path d="M33 5C56.265 5.495 56.265 5.495 80 6C80 6.33 80 6.66 80 7C71.2069 7.81867 62.4107 8.3754 53.5876 8.72241C52.1377 8.78316 50.6882 8.85236 49.239 8.92944C47.1167 9.04154 44.9948 9.12716 42.8711 9.20703C41.6226 9.26351 40.374 9.31999 39.0876 9.37817C38.0687 9.25338 37.0498 9.12858 36 9C35.01 7.68 34.02 6.36 33 5Z" fill="#C07400"/>
<path d="M376.938 835.688C377.998 835.65 379.059 835.613 380.152 835.574C383 836 383 836 384.879 838.02C385.249 838.673 385.619 839.327 386 840C385 841 385 841 381.402 841.098C379.914 841.091 378.426 841.079 376.938 841.062C376.179 841.058 375.42 841.053 374.639 841.049C372.759 841.037 370.88 841.019 369 841C369 839.68 369 838.36 369 837C371.7 835.65 373.925 835.757 376.938 835.688Z" fill="#BC7909"/>
<path d="M354 50C356.777 53.3991 359.322 56.8878 361.812 60.5C364.265 63.9216 366.418 66.613 369.938 68.9375C373 71 373 71 373.691 73.1289C373.793 73.7464 373.895 74.3638 374 75C365.395 70.6977 358.031 63.8763 354 55C353.688 52 353.688 52 354 50Z" fill="#E29E1D"/>
<path d="M19 783C27.9891 786.017 34.6125 794.862 39 803C39 803.66 39 804.32 39 805C35.0454 803.495 33.5472 801.224 31.25 797.75C28.1029 793.23 25.115 790.149 20.4688 787.219C19.9841 786.817 19.4994 786.414 19 786C19 785.01 19 784.02 19 783Z" fill="#F6C935"/>
<path d="M362 7C369.92 7.33 377.84 7.66 386 8C386 8.99 386 9.98 386 11C382.563 11.116 379.126 11.1872 375.688 11.25C374.223 11.3003 374.223 11.3003 372.729 11.3516C371.791 11.3645 370.853 11.3773 369.887 11.3906C368.591 11.422 368.591 11.422 367.268 11.4541C365 11 365 11 362 7Z" fill="#B26D00"/>
<path d="M5 7C12.59 7.33 20.18 7.66 28 8C28 8.99 28 9.98 28 11C21.07 11 14.14 11 7 11C6.34 9.68 5.68 8.36 5 7Z" fill="#BA7B02"/>
<path d="M41 45C42.25 46.5352 42.25 46.5352 43 49C41.7912 51.7048 40.5737 53.9607 39 56.4375C38.612 57.093 38.224 57.7485 37.8242 58.4238C35.0873 62.868 32.1644 65.8585 28 69C28.9711 65.1157 30.3606 62.3512 32.8125 59.25C36.2882 54.8435 38.6494 50.0757 41 45Z" fill="#FCF48D"/>
<path d="M33 8C33.99 8.66 34.98 9.32 36 10C35.0188 18.8434 33.4552 26.7813 30 35C29.67 35 29.34 35 29 35C29.6429 28.7649 30.5001 22.6139 31.5625 16.4375C31.7704 15.2106 31.7704 15.2106 31.9824 13.959C32.3193 11.9723 32.6593 9.98608 33 8Z" fill="#B77303"/>
<path d="M363 6C371.25 6 379.5 6 388 6C388.33 7.32 388.66 8.64 389 10C388.01 10.33 387.02 10.66 386 11C386 10.01 386 9.02 386 8C385.374 8.01047 384.749 8.02095 384.104 8.03174C381.278 8.07323 378.451 8.0993 375.625 8.125C374.64 8.14176 373.655 8.15852 372.641 8.17578C371.7 8.18223 370.759 8.18867 369.789 8.19531C368.485 8.21102 368.485 8.21102 367.155 8.22705C365 8 365 8 363 6Z" fill="#D48A0B"/>
<path d="M370 42C370.636 42.5975 370.636 42.5975 371.285 43.207C376.243 47.6855 380.659 49.8864 387 52C387 52.99 387 53.98 387 55C380.915 54.688 376.594 51.7656 372 48C369.938 45.125 369.938 45.125 369 43C369.33 42.67 369.66 42.34 370 42Z" fill="#FAAF1C"/>
<path d="M37 805C37.99 805 38.98 805 40 805C40.3377 805.782 40.6755 806.565 41.0234 807.371C41.4695 808.383 41.9155 809.395 42.375 810.438C42.8159 811.447 43.2567 812.456 43.7109 813.496C44.7508 816.121 44.7508 816.121 47 817C47 818.32 47 819.64 47 821C46.34 821 45.68 821 45 821C44.67 821.99 44.34 822.98 44 824C43.0202 821.396 42.0411 818.792 41.0625 816.188C40.6458 815.081 40.6458 815.081 40.2207 813.951C39.9532 813.239 39.6857 812.527 39.4102 811.793C39.164 811.138 38.9179 810.484 38.6643 809.809C38.0796 808.217 37.5364 806.609 37 805Z" fill="#CD8304"/>
<path d="M366 790C366.66 790.33 367.32 790.66 368 791C367.346 791.692 367.346 791.692 366.68 792.398C362.487 796.99 359.257 801.645 356.262 807.094C355.637 808.037 355.637 808.037 355 809C354.34 809 353.68 809 353 809C354.23 801.927 358.196 797.204 363 792C363.99 791.34 364.98 790.68 366 790Z" fill="#FAEF92"/>
<path d="M369 17C373.29 17.33 377.58 17.66 382 18C382 18.33 382 18.66 382 19C377.545 19.495 377.545 19.495 373 20C373.588 21.6087 373.588 21.6087 374.188 23.25C375 27 375 27 373.625 29.4375C373.089 29.9531 372.553 30.4688 372 31C369.763 25.593 369 23.1035 369 17Z" fill="#B27308"/>
<path d="M44 30C45.32 30.33 46.64 30.66 48 31C47.4625 37.1816 45.4542 42.3269 43 48C42.67 48 42.34 48 42 48C42.5791 41.9867 43.2234 35.9911 44 30Z" fill="#DFA524"/>
<path d="M367 825C367.66 825 368.32 825 369 825C368.795 825.785 368.59 826.57 368.379 827.379C366.96 832.91 365.645 838.324 365 844C364.01 843.67 363.02 843.34 362 843C363.743 830.33 363.743 830.33 367 825Z" fill="#9A5E00"/>
<path d="M8 806C14.08 806.38 18.7341 810.478 22.6602 814.848C24.0625 816.688 24.0625 816.688 26 820C25.67 820.99 25.34 821.98 25 823C24.6481 822.492 24.2962 821.984 23.9336 821.461C19.4138 815.159 14.2742 810.517 8 806Z" fill="#F8E55F"/>
<path d="M8 17C8.99 17.33 9.98 17.66 11 18C10.67 23.94 10.34 29.88 10 36C9.34 36.33 8.68 36.66 8 37C8 30.4 8 23.8 8 17Z" fill="#FEC83A"/>
<path d="M8 817C11 820 11 820 11.1445 823.758C11.0503 825.215 10.939 826.671 10.8125 828.125C10.768 828.866 10.7236 829.607 10.6777 830.371C10.5382 832.256 10.2781 834.131 10 836C9.34 836.33 8.68 836.66 8 837C8 830.4 8 823.8 8 817Z" fill="#FEC93A"/>
<path d="M36 798C39 799 39 799 40.8594 802.273C41.5005 803.636 42.1303 805.003 42.75 806.375C43.0787 807.061 43.4074 807.747 43.7461 808.453C46.1274 813.618 46.1274 813.618 45 817C43.4933 814.212 41.9958 811.419 40.5 808.625C40.0707 807.831 39.6415 807.037 39.1992 806.219C38.7932 805.458 38.3871 804.698 37.9688 803.914C37.4032 802.861 37.4032 802.861 36.8262 801.788C36 800 36 800 36 798Z" fill="#A76A01"/>
<path d="M11 838C14.96 838 18.92 838 23 838C23.33 838.99 23.66 839.98 24 841C19.38 841 14.76 841 10 841C10.33 840.01 10.66 839.02 11 838Z" fill="#B57902"/>
<path d="M27 830C27.99 830.33 28.98 830.66 30 831C30.9492 833.504 30.9492 833.504 31.6875 836.562C31.9389 837.574 32.1902 838.586 32.4492 839.629C32.631 840.411 32.8127 841.194 33 842C32.34 842.66 31.68 843.32 31 844C31 843.34 31 842.68 31 842C30.34 842 29.68 842 29 842C27.8624 837.734 27 834.435 27 830Z" fill="#B57303"/>
<path d="M27 33C27.33 33 27.66 33 28 33C28.4803 36.2019 28.3964 38.3283 26.7344 41.1445C22.6164 46.6918 22.6164 46.6918 20 48C20.5816 43.9652 21.8676 41.1476 24 37.6875C24.5362 36.8045 25.0725 35.9215 25.625 35.0117C26.0788 34.3479 26.5325 33.684 27 33Z" fill="#FFFEAD"/>
<path d="M362 831C363.125 834.75 363.125 834.75 362 837C361.773 838.871 361.59 840.747 361.438 842.625C361.354 843.628 361.27 844.631 361.184 845.664C361.123 846.435 361.062 847.206 361 848C357.857 841.714 357.857 841.714 358.813 836.938C359.07 835.59 359.07 835.59 359.332 834.215C359.553 833.484 359.773 832.753 360 832C360.66 831.67 361.32 831.34 362 831Z" fill="#FDF595"/>
<path d="M350 808C351.65 808.33 353.3 808.66 355 809C354.01 810.485 354.01 810.485 353 812C352.274 813.387 351.566 814.783 350.875 816.188C350.522 816.903 350.169 817.618 349.805 818.355C349.539 818.898 349.274 819.441 349 820C348.67 820 348.34 820 348 820C347.822 815.452 348.002 812.121 350 808Z" fill="#CC911B"/>
<path d="M17 31C17.375 33.75 17.375 33.75 17 37C14 39.375 14 39.375 11 41C10 39 10 39 10.125 37.125C11.1847 34.5514 13.9192 31 17 31Z" fill="#C58808"/>
<path d="M8 807C13.3452 808.503 17.1351 812.171 21 816C21.33 816.66 21.66 817.32 22 818C18.5452 816.48 15.685 814.374 12.6836 812.121C10.8811 810.814 10.8811 810.814 8 810C8 809.01 8 808.02 8 807Z" fill="#F4B313"/>
<path d="M29 794C32.6626 795.231 34.6585 796.272 36.8125 799.5C37.2314 800.108 37.6504 800.717 38.082 801.344C39 803 39 803 39 805C35.3135 803.541 33.8386 801.698 31.75 798.375C30.9688 797.149 30.9688 797.149 30.1719 795.898C29.7852 795.272 29.3984 794.645 29 794Z" fill="#F0AD17"/>
<path d="M364 65C367.743 67.3818 370.977 69.7448 374 73C373.67 73.66 373.34 74.32 373 75C371.678 74.0967 370.368 73.1768 369.062 72.25C368.332 71.7395 367.601 71.2291 366.848 70.7031C364.792 68.8082 364.373 67.7257 364 65Z" fill="#F2B831"/>
<path d="M376 814C374.348 817.579 372.217 820.748 370 824C369.01 823.67 368.02 823.34 367 823C372.8 814 372.8 814 376 814Z" fill="#FEFD9B"/>
<path d="M43 34C44.7225 38.0845 43.0728 41.3697 41.5625 45.25C41.3195 45.8997 41.0765 46.5494 40.8262 47.2188C40.2271 48.8162 39.6149 50.4086 39 52C38.34 51.67 37.68 51.34 37 51C38.8549 45.2806 40.931 39.6444 43 34Z" fill="#C77606"/>
<path d="M349 38C352.153 42.729 354.527 47.2065 354 53C349.899 47.7808 348.739 44.7758 349 38Z" fill="#B67103"/>
<path d="M376 33C376.577 33.495 377.155 33.99 377.75 34.5C380.104 36.3698 380.104 36.3698 384 36C384.66 37.32 385.32 38.64 386 40C385.01 40.33 384.02 40.66 383 41C377.374 37.962 377.374 37.962 376.125 34.75C376.084 34.1725 376.043 33.595 376 33Z" fill="#E9A11B"/>
<path d="M368 37C371 38 371 38 372.812 40.75C375.241 44.3584 377.585 46.3614 381 49C380.01 49.495 380.01 49.495 379 50C377.725 48.9217 376.455 47.8371 375.188 46.75C374.48 46.1467 373.772 45.5434 373.043 44.9219C371.066 43.0619 369.486 41.269 368 39C368 38.34 368 37.68 368 37Z" fill="#F3E069"/>
<path d="M364 31C366.748 34.4022 370 38.4846 370 43C369.34 43 368.68 43 368 43C367.134 41.5699 366.282 40.1306 365.438 38.6875C364.724 37.4867 364.724 37.4867 363.996 36.2617C363 34 363 34 364 31Z" fill="#CD7901"/>
<path d="M20 818C20.99 818 21.98 818 23 818C24.65 821.3 26.3 824.6 28 828C27.01 828 26.02 828 25 828C23.35 824.7 21.7 821.4 20 818Z" fill="#DA9404"/>
<path d="M378 807C378.66 807.33 379.32 807.66 380 808C379.67 808.33 379.34 808.66 379 809C379.66 809.33 380.32 809.66 381 810C380.67 810.99 380.34 811.98 380 813C377 814 377 814 374 813C375.152 810.532 376.048 808.952 378 807Z" fill="#C5840C"/>
<path d="M386 806C386 807.32 386 808.64 386 810C383.688 810.625 383.688 810.625 381 811C380.01 810.34 379.02 809.68 378 809C382.625 806 382.625 806 386 806Z" fill="#A46400"/>
<path d="M373 783C373.66 783 374.32 783 375 783C375 783.99 375 784.98 375 786C373.547 786.864 372.088 787.716 370.625 788.562C369.407 789.276 369.407 789.276 368.164 790.004C367.45 790.333 366.736 790.661 366 791C365.34 790.67 364.68 790.34 364 790C366.53 786.908 369.225 786.091 373 785C373 784.34 373 783.68 373 783Z" fill="#CF8A14"/>
<path d="M388 47C388.33 47 388.66 47 389 47C389 49.31 389 51.62 389 54C388.01 54.495 388.01 54.495 387 55C387 54.01 387 53.02 387 52C384.69 51.67 382.38 51.34 380 51C380 50.01 380 49.02 380 48C382.64 48.66 385.28 49.32 388 50C388 49.01 388 48.02 388 47Z" fill="#E9BF40"/>
<path d="M5 7C12.59 7.33 20.18 7.66 28 8C28 8.33 28 8.66 28 9C17.11 9.495 17.11 9.495 6 10C5.67 9.01 5.34 8.02 5 7Z" fill="#C88504"/>
<path d="M20 25C21.125 26.6875 21.125 26.6875 22 29C21.0045 32.801 20.3415 33.7723 17 36C17.5511 32.0507 18.3894 28.6508 20 25Z" fill="#FEFA9B"/>
<path d="M378 51C380.97 51.33 383.94 51.66 387 52C387 52.99 387 53.98 387 55C382.532 54.5035 381.31 54.3101 378 51Z" fill="#D38002"/>
<path d="M27 22C27.33 22 27.66 22 28 22C28.1784 26.5481 27.9979 29.8794 26 34C24.8125 32.5 24.8125 32.5 24 30C24.729 27.2118 25.8157 24.6233 27 22Z" fill="#BD8105"/>
<path d="M373 812C374.32 812.33 375.64 812.66 377 813C375.725 815.549 374.508 815.746 372 817C370.291 818.541 370.291 818.541 369 820C368.34 819.67 367.68 819.34 367 819C368.98 816.69 370.96 814.38 373 812Z" fill="#E3AD2E"/>
<path d="M23 37C23.66 37 24.32 37 25 37C23.4104 41.0352 21.7177 45.0181 20 49C18.8594 47.2656 18.8594 47.2656 18 45C18.8281 42.8594 18.8281 42.8594 20.25 40.75C20.7089 40.0436 21.1678 39.3372 21.6406 38.6094C22.0892 38.0783 22.5378 37.5472 23 37Z" fill="#E4B22A"/>
<path d="M44 816C44.99 816.33 45.98 816.66 47 817C47 818.32 47 819.64 47 821C46.34 821 45.68 821 45 821C44.67 821.99 44.34 822.98 44 824C43.6194 821.674 43.2873 819.339 43 817C43.33 816.67 43.66 816.34 44 816Z" fill="#BB7D00"/>
<path d="M29 13C29.66 13 30.32 13 31 13C30.67 16.63 30.34 20.26 30 24C27.2136 19.8204 28.2044 17.8533 29 13Z" fill="#FFFDA1"/>
<path d="M367 825C367.66 825 368.32 825 369 825C368.745 826.316 368.471 827.628 368.188 828.938C368.037 829.668 367.886 830.399 367.73 831.152C367.489 831.762 367.248 832.372 367 833C366.01 833.33 365.02 833.66 364 834C364.557 830.656 365.352 827.967 367 825Z" fill="#B37103"/>
<path d="M28 65C29 67 29 67 28.375 69C26.6073 71.5711 24.9241 72.0766 22 73C21.67 72.34 21.34 71.68 21 71C21.99 70.67 22.98 70.34 24 70C25.3858 68.3767 26.7264 66.7128 28 65Z" fill="#E2A310"/>
<path d="M41 45C41.66 46.32 42.32 47.64 43 49C41.625 51.75 41.625 51.75 40 54C39.01 53.67 38.02 53.34 37 53C38.32 50.36 39.64 47.72 41 45Z" fill="#FAE564"/>
<path d="M373 829C373.33 829.66 373.66 830.32 374 831C373.066 833.031 372.068 835.035 371 837C370.34 837 369.68 837 369 837C369 835.35 369 833.7 369 832C369.99 832 370.98 832 372 832C372.33 831.01 372.66 830.02 373 829Z" fill="#FCEF7C"/>
<path d="M366 790C366.66 790.33 367.32 790.66 368 791C364.387 795.688 364.387 795.688 363 797C362.01 797 361.02 797 360 797C361.393 793.633 362.979 792.014 366 790Z" fill="#F8E35B"/>
<path d="M16 45C16.99 45 17.98 45 19 45C19.1875 47.375 19.1875 47.375 19 50C17.515 50.99 17.515 50.99 16 52C15.6187 50.0086 15.2867 48.0072 15 46C15.33 45.67 15.66 45.34 16 45Z" fill="#D8960A"/>
<path d="M23 40C23.66 41.32 24.32 42.64 25 44C23.35 45.32 21.7 46.64 20 48C20.5472 44.6254 21.0549 42.9176 23 40Z" fill="#FEF976"/>
<path d="M346 33C346.99 33.33 347.98 33.66 349 34C349.812 35.8125 349.812 35.8125 350 38C349.34 39.32 348.68 40.64 348 42C347.34 39.03 346.68 36.06 346 33Z" fill="#9D6301"/>
<path d="M360 5C360.33 5 360.66 5 361 5C360.67 7.97 360.34 10.94 360 14C359.34 14 358.68 14 358 14C357.799 10.3747 358.142 8.13498 360 5Z" fill="#B66C00"/>
</g>
<defs>
<clipPath id="clip0_138_1699">
<rect width="393" height="851" fill="white"/>
</clipPath>
</defs>
</svg>
