<svg width="324" height="75" viewBox="0 0 324 75" fill="none" xmlns="http://www.w3.org/2000/svg">
<rect width="75" height="75" fill="black"/>
<rect width="75" height="75" fill="#EE8D46" fill-opacity="0.2"/>
<rect x="83" width="75" height="75" fill="black"/>
<rect x="83" width="75" height="75" fill="#EE8D46" fill-opacity="0.2"/>
<rect x="166" width="75" height="75" fill="black"/>
<rect x="166" width="75" height="75" fill="#EE8D46" fill-opacity="0.2"/>
<rect x="249" width="75" height="75" fill="black"/>
<rect x="249" width="75" height="75" fill="#EE8D46" fill-opacity="0.2"/>
<path d="M27.308 28.632C26.132 28.632 25.124 28.356 24.284 27.804C23.444 27.252 22.796 26.52 22.34 25.608C21.908 24.672 21.692 23.652 21.692 22.548C21.692 21.276 21.992 20.16 22.592 19.2C23.192 18.216 24.02 17.46 25.076 16.932C26.132 16.38 27.32 16.104 28.64 16.104C30.896 16.104 32.6 16.884 33.752 18.444C34.904 20.004 35.48 22.092 35.48 24.708C35.48 27.06 35.012 29.352 34.076 31.584C33.164 33.792 31.832 35.616 30.08 37.056C28.328 38.496 26.288 39.288 23.96 39.432C23.888 39.456 23.828 39.396 23.78 39.252C23.756 39.132 23.792 39.06 23.888 39.036C25.856 38.652 27.536 37.764 28.928 36.372C30.32 34.98 31.364 33.312 32.06 31.368C32.756 29.4 33.104 27.372 33.104 25.284C33.104 22.884 32.648 20.868 31.736 19.236C30.848 17.58 29.504 16.752 27.704 16.752C26.456 16.752 25.532 17.172 24.932 18.012C24.356 18.852 24.068 20.04 24.068 21.576C24.068 23.424 24.464 24.912 25.256 26.04C26.072 27.144 27.128 27.696 28.424 27.696C28.88 27.696 29.312 27.612 29.72 27.444C30.152 27.252 30.632 26.928 31.16 26.472C31.184 26.448 31.22 26.436 31.268 26.436C31.34 26.436 31.4 26.472 31.448 26.544C31.52 26.616 31.544 26.676 31.52 26.724C30.512 27.996 29.108 28.632 27.308 28.632ZM44.9213 28.632C43.7453 28.632 42.7373 28.356 41.8973 27.804C41.0573 27.252 40.4093 26.52 39.9533 25.608C39.5213 24.672 39.3053 23.652 39.3053 22.548C39.3053 21.276 39.6053 20.16 40.2053 19.2C40.8053 18.216 41.6333 17.46 42.6893 16.932C43.7453 16.38 44.9333 16.104 46.2533 16.104C48.5093 16.104 50.2133 16.884 51.3653 18.444C52.5173 20.004 53.0933 22.092 53.0933 24.708C53.0933 27.06 52.6253 29.352 51.6893 31.584C50.7773 33.792 49.4453 35.616 47.6933 37.056C45.9413 38.496 43.9013 39.288 41.5733 39.432C41.5013 39.456 41.4413 39.396 41.3933 39.252C41.3693 39.132 41.4053 39.06 41.5013 39.036C43.4693 38.652 45.1493 37.764 46.5413 36.372C47.9333 34.98 48.9773 33.312 49.6733 31.368C50.3693 29.4 50.7173 27.372 50.7173 25.284C50.7173 22.884 50.2613 20.868 49.3493 19.236C48.4613 17.58 47.1173 16.752 45.3173 16.752C44.0693 16.752 43.1453 17.172 42.5453 18.012C41.9693 18.852 41.6813 20.04 41.6813 21.576C41.6813 23.424 42.0773 24.912 42.8693 26.04C43.6853 27.144 44.7413 27.696 46.0373 27.696C46.4933 27.696 46.9253 27.612 47.3333 27.444C47.7653 27.252 48.2453 26.928 48.7733 26.472C48.7973 26.448 48.8333 26.436 48.8813 26.436C48.9533 26.436 49.0133 26.472 49.0613 26.544C49.1333 26.616 49.1573 26.676 49.1333 26.724C48.1253 27.996 46.7213 28.632 44.9213 28.632Z" fill="white"/>
<path d="M27.308 28.632C26.132 28.632 25.124 28.356 24.284 27.804C23.444 27.252 22.796 26.52 22.34 25.608C21.908 24.672 21.692 23.652 21.692 22.548C21.692 21.276 21.992 20.16 22.592 19.2C23.192 18.216 24.02 17.46 25.076 16.932C26.132 16.38 27.32 16.104 28.64 16.104C30.896 16.104 32.6 16.884 33.752 18.444C34.904 20.004 35.48 22.092 35.48 24.708C35.48 27.06 35.012 29.352 34.076 31.584C33.164 33.792 31.832 35.616 30.08 37.056C28.328 38.496 26.288 39.288 23.96 39.432C23.888 39.456 23.828 39.396 23.78 39.252C23.756 39.132 23.792 39.06 23.888 39.036C25.856 38.652 27.536 37.764 28.928 36.372C30.32 34.98 31.364 33.312 32.06 31.368C32.756 29.4 33.104 27.372 33.104 25.284C33.104 22.884 32.648 20.868 31.736 19.236C30.848 17.58 29.504 16.752 27.704 16.752C26.456 16.752 25.532 17.172 24.932 18.012C24.356 18.852 24.068 20.04 24.068 21.576C24.068 23.424 24.464 24.912 25.256 26.04C26.072 27.144 27.128 27.696 28.424 27.696C28.88 27.696 29.312 27.612 29.72 27.444C30.152 27.252 30.632 26.928 31.16 26.472C31.184 26.448 31.22 26.436 31.268 26.436C31.34 26.436 31.4 26.472 31.448 26.544C31.52 26.616 31.544 26.676 31.52 26.724C30.512 27.996 29.108 28.632 27.308 28.632ZM44.9213 28.632C43.7453 28.632 42.7373 28.356 41.8973 27.804C41.0573 27.252 40.4093 26.52 39.9533 25.608C39.5213 24.672 39.3053 23.652 39.3053 22.548C39.3053 21.276 39.6053 20.16 40.2053 19.2C40.8053 18.216 41.6333 17.46 42.6893 16.932C43.7453 16.38 44.9333 16.104 46.2533 16.104C48.5093 16.104 50.2133 16.884 51.3653 18.444C52.5173 20.004 53.0933 22.092 53.0933 24.708C53.0933 27.06 52.6253 29.352 51.6893 31.584C50.7773 33.792 49.4453 35.616 47.6933 37.056C45.9413 38.496 43.9013 39.288 41.5733 39.432C41.5013 39.456 41.4413 39.396 41.3933 39.252C41.3693 39.132 41.4053 39.06 41.5013 39.036C43.4693 38.652 45.1493 37.764 46.5413 36.372C47.9333 34.98 48.9773 33.312 49.6733 31.368C50.3693 29.4 50.7173 27.372 50.7173 25.284C50.7173 22.884 50.2613 20.868 49.3493 19.236C48.4613 17.58 47.1173 16.752 45.3173 16.752C44.0693 16.752 43.1453 17.172 42.5453 18.012C41.9693 18.852 41.6813 20.04 41.6813 21.576C41.6813 23.424 42.0773 24.912 42.8693 26.04C43.6853 27.144 44.7413 27.696 46.0373 27.696C46.4933 27.696 46.9253 27.612 47.3333 27.444C47.7653 27.252 48.2453 26.928 48.7733 26.472C48.7973 26.448 48.8333 26.436 48.8813 26.436C48.9533 26.436 49.0133 26.472 49.0613 26.544C49.1333 26.616 49.1573 26.676 49.1333 26.724C48.1253 27.996 46.7213 28.632 44.9213 28.632Z" fill="#EE8D46" fill-opacity="0.2"/>
<path d="M105.44 39C105.32 39 105.212 38.94 105.116 38.82C105.044 38.7 105.056 38.604 105.152 38.532L107.204 35.976C108.932 33.864 110.312 32.112 111.344 30.72C112.376 29.304 113.24 27.864 113.936 26.4C114.632 24.912 114.98 23.484 114.98 22.116C114.98 20.724 114.608 19.632 113.864 18.84C113.12 18.024 112.076 17.616 110.732 17.616C109.532 17.616 108.512 17.964 107.672 18.66C106.832 19.332 106.208 20.304 105.8 21.576C105.8 21.6 105.752 21.612 105.656 21.612C105.464 21.612 105.38 21.564 105.404 21.468C105.74 19.764 106.472 18.444 107.6 17.508C108.728 16.572 110.12 16.104 111.776 16.104C113.504 16.104 114.86 16.608 115.844 17.616C116.852 18.6 117.356 19.872 117.356 21.432C117.356 22.824 116.972 24.264 116.204 25.752C115.436 27.24 114.548 28.608 113.54 29.856C112.532 31.104 111.284 32.544 109.796 34.176C109.58 34.416 109.196 34.836 108.644 35.436C108.116 36.012 107.72 36.492 107.456 36.876C107.336 37.044 107.384 37.128 107.6 37.128C110.72 37.128 112.928 37.092 114.224 37.02C115.52 36.924 116.432 36.708 116.96 36.372C117.488 36.012 117.764 35.436 117.788 34.644C117.788 34.596 117.848 34.572 117.968 34.572C118.112 34.572 118.184 34.596 118.184 34.644L118.148 38.604C118.148 38.7 118.112 38.796 118.04 38.892C117.992 38.964 117.92 39 117.824 39H105.44ZM132.197 36.084C132.197 36.828 132.257 37.368 132.377 37.704C132.497 38.04 132.737 38.268 133.097 38.388C133.457 38.508 134.033 38.568 134.825 38.568C134.873 38.568 134.897 38.64 134.897 38.784C134.897 38.928 134.873 39 134.825 39C134.201 39 133.709 38.988 133.349 38.964L131.081 38.928L128.381 38.964C127.925 38.988 127.301 39 126.509 39C126.437 39 126.401 38.928 126.401 38.784C126.401 38.64 126.437 38.568 126.509 38.568C127.637 38.568 128.429 38.52 128.885 38.424C129.341 38.304 129.641 38.088 129.785 37.776C129.953 37.44 130.037 36.876 130.037 36.084V19.38L130.901 18.732L122.477 31.08C122.381 31.248 122.441 31.332 122.657 31.332C126.977 31.332 131.153 31.26 135.185 31.116C135.281 31.116 135.329 31.368 135.329 31.872C135.329 32.376 135.281 32.628 135.185 32.628C131.657 32.46 126.905 32.376 120.929 32.376C120.809 32.376 120.713 32.34 120.641 32.268C120.593 32.172 120.605 32.076 120.677 31.98L131.621 16.32C131.669 16.272 131.741 16.248 131.837 16.248C132.077 16.248 132.197 16.32 132.197 16.464V36.084Z" fill="white"/>
<path d="M105.44 39C105.32 39 105.212 38.94 105.116 38.82C105.044 38.7 105.056 38.604 105.152 38.532L107.204 35.976C108.932 33.864 110.312 32.112 111.344 30.72C112.376 29.304 113.24 27.864 113.936 26.4C114.632 24.912 114.98 23.484 114.98 22.116C114.98 20.724 114.608 19.632 113.864 18.84C113.12 18.024 112.076 17.616 110.732 17.616C109.532 17.616 108.512 17.964 107.672 18.66C106.832 19.332 106.208 20.304 105.8 21.576C105.8 21.6 105.752 21.612 105.656 21.612C105.464 21.612 105.38 21.564 105.404 21.468C105.74 19.764 106.472 18.444 107.6 17.508C108.728 16.572 110.12 16.104 111.776 16.104C113.504 16.104 114.86 16.608 115.844 17.616C116.852 18.6 117.356 19.872 117.356 21.432C117.356 22.824 116.972 24.264 116.204 25.752C115.436 27.24 114.548 28.608 113.54 29.856C112.532 31.104 111.284 32.544 109.796 34.176C109.58 34.416 109.196 34.836 108.644 35.436C108.116 36.012 107.72 36.492 107.456 36.876C107.336 37.044 107.384 37.128 107.6 37.128C110.72 37.128 112.928 37.092 114.224 37.02C115.52 36.924 116.432 36.708 116.96 36.372C117.488 36.012 117.764 35.436 117.788 34.644C117.788 34.596 117.848 34.572 117.968 34.572C118.112 34.572 118.184 34.596 118.184 34.644L118.148 38.604C118.148 38.7 118.112 38.796 118.04 38.892C117.992 38.964 117.92 39 117.824 39H105.44ZM132.197 36.084C132.197 36.828 132.257 37.368 132.377 37.704C132.497 38.04 132.737 38.268 133.097 38.388C133.457 38.508 134.033 38.568 134.825 38.568C134.873 38.568 134.897 38.64 134.897 38.784C134.897 38.928 134.873 39 134.825 39C134.201 39 133.709 38.988 133.349 38.964L131.081 38.928L128.381 38.964C127.925 38.988 127.301 39 126.509 39C126.437 39 126.401 38.928 126.401 38.784C126.401 38.64 126.437 38.568 126.509 38.568C127.637 38.568 128.429 38.52 128.885 38.424C129.341 38.304 129.641 38.088 129.785 37.776C129.953 37.44 130.037 36.876 130.037 36.084V19.38L130.901 18.732L122.477 31.08C122.381 31.248 122.441 31.332 122.657 31.332C126.977 31.332 131.153 31.26 135.185 31.116C135.281 31.116 135.329 31.368 135.329 31.872C135.329 32.376 135.281 32.628 135.185 32.628C131.657 32.46 126.905 32.376 120.929 32.376C120.809 32.376 120.713 32.34 120.641 32.268C120.593 32.172 120.605 32.076 120.677 31.98L131.621 16.32C131.669 16.272 131.741 16.248 131.837 16.248C132.077 16.248 132.197 16.32 132.197 16.464V36.084Z" fill="#EE8D46" fill-opacity="0.2"/>
<path d="M196.584 26.76C197.688 26.76 198.636 27.036 199.428 27.588C200.244 28.14 200.868 28.872 201.3 29.784C201.732 30.696 201.948 31.68 201.948 32.736C201.948 34.008 201.648 35.16 201.048 36.192C200.448 37.2 199.62 38.004 198.564 38.604C197.508 39.18 196.32 39.468 195 39.468C192.744 39.468 191.04 38.688 189.888 37.128C188.736 35.544 188.16 33.444 188.16 30.828C188.16 28.452 188.616 26.16 189.528 23.952C190.464 21.744 191.796 19.92 193.524 18.48C195.252 17.016 197.28 16.224 199.608 16.104C199.68 16.104 199.728 16.164 199.752 16.284C199.8 16.38 199.776 16.44 199.68 16.464C197.736 16.872 196.068 17.772 194.676 19.164C193.308 20.556 192.276 22.236 191.58 24.204C190.884 26.172 190.536 28.2 190.536 30.288C190.536 32.664 190.98 34.68 191.868 36.336C192.78 37.968 194.136 38.784 195.936 38.784C197.16 38.784 198.072 38.34 198.672 37.452C199.272 36.564 199.572 35.328 199.572 33.744C199.572 31.944 199.212 30.516 198.492 29.46C197.796 28.38 196.836 27.84 195.612 27.84C194.484 27.84 193.44 28.32 192.48 29.28L192.408 29.316C192.312 29.316 192.216 29.28 192.12 29.208C192.048 29.136 192.036 29.076 192.084 29.028C192.66 28.284 193.332 27.72 194.1 27.336C194.868 26.952 195.696 26.76 196.584 26.76ZM212.684 39.468C211.244 39.468 209.96 38.976 208.832 37.992C207.728 37.008 206.864 35.628 206.24 33.852C205.64 32.076 205.34 30.036 205.34 27.732C205.34 25.452 205.652 23.436 206.276 21.684C206.9 19.908 207.764 18.528 208.868 17.544C209.996 16.56 211.292 16.068 212.756 16.068C214.172 16.068 215.42 16.56 216.5 17.544C217.604 18.528 218.456 19.92 219.056 21.72C219.656 23.496 219.956 25.536 219.956 27.84C219.956 30.12 219.644 32.148 219.02 33.924C218.42 35.676 217.568 37.044 216.464 38.028C215.36 38.988 214.1 39.468 212.684 39.468ZM213.116 38.964C214.556 38.964 215.636 38.04 216.356 36.192C217.076 34.32 217.436 31.68 217.436 28.272C217.436 25.68 217.208 23.508 216.752 21.756C216.32 20.004 215.72 18.696 214.952 17.832C214.208 16.968 213.344 16.536 212.36 16.536C210.92 16.536 209.804 17.52 209.012 19.488C208.244 21.456 207.86 24.12 207.86 27.48C207.86 31.008 208.328 33.804 209.264 35.868C210.2 37.932 211.484 38.964 213.116 38.964Z" fill="white"/>
<path d="M196.584 26.76C197.688 26.76 198.636 27.036 199.428 27.588C200.244 28.14 200.868 28.872 201.3 29.784C201.732 30.696 201.948 31.68 201.948 32.736C201.948 34.008 201.648 35.16 201.048 36.192C200.448 37.2 199.62 38.004 198.564 38.604C197.508 39.18 196.32 39.468 195 39.468C192.744 39.468 191.04 38.688 189.888 37.128C188.736 35.544 188.16 33.444 188.16 30.828C188.16 28.452 188.616 26.16 189.528 23.952C190.464 21.744 191.796 19.92 193.524 18.48C195.252 17.016 197.28 16.224 199.608 16.104C199.68 16.104 199.728 16.164 199.752 16.284C199.8 16.38 199.776 16.44 199.68 16.464C197.736 16.872 196.068 17.772 194.676 19.164C193.308 20.556 192.276 22.236 191.58 24.204C190.884 26.172 190.536 28.2 190.536 30.288C190.536 32.664 190.98 34.68 191.868 36.336C192.78 37.968 194.136 38.784 195.936 38.784C197.16 38.784 198.072 38.34 198.672 37.452C199.272 36.564 199.572 35.328 199.572 33.744C199.572 31.944 199.212 30.516 198.492 29.46C197.796 28.38 196.836 27.84 195.612 27.84C194.484 27.84 193.44 28.32 192.48 29.28L192.408 29.316C192.312 29.316 192.216 29.28 192.12 29.208C192.048 29.136 192.036 29.076 192.084 29.028C192.66 28.284 193.332 27.72 194.1 27.336C194.868 26.952 195.696 26.76 196.584 26.76ZM212.684 39.468C211.244 39.468 209.96 38.976 208.832 37.992C207.728 37.008 206.864 35.628 206.24 33.852C205.64 32.076 205.34 30.036 205.34 27.732C205.34 25.452 205.652 23.436 206.276 21.684C206.9 19.908 207.764 18.528 208.868 17.544C209.996 16.56 211.292 16.068 212.756 16.068C214.172 16.068 215.42 16.56 216.5 17.544C217.604 18.528 218.456 19.92 219.056 21.72C219.656 23.496 219.956 25.536 219.956 27.84C219.956 30.12 219.644 32.148 219.02 33.924C218.42 35.676 217.568 37.044 216.464 38.028C215.36 38.988 214.1 39.468 212.684 39.468ZM213.116 38.964C214.556 38.964 215.636 38.04 216.356 36.192C217.076 34.32 217.436 31.68 217.436 28.272C217.436 25.68 217.208 23.508 216.752 21.756C216.32 20.004 215.72 18.696 214.952 17.832C214.208 16.968 213.344 16.536 212.36 16.536C210.92 16.536 209.804 17.52 209.012 19.488C208.244 21.456 207.86 24.12 207.86 27.48C207.86 31.008 208.328 33.804 209.264 35.868C210.2 37.932 211.484 38.964 213.116 38.964Z" fill="#EE8D46" fill-opacity="0.2"/>
<path d="M279.584 26.76C280.688 26.76 281.636 27.036 282.428 27.588C283.244 28.14 283.868 28.872 284.3 29.784C284.732 30.696 284.948 31.68 284.948 32.736C284.948 34.008 284.648 35.16 284.048 36.192C283.448 37.2 282.62 38.004 281.564 38.604C280.508 39.18 279.32 39.468 278 39.468C275.744 39.468 274.04 38.688 272.888 37.128C271.736 35.544 271.16 33.444 271.16 30.828C271.16 28.452 271.616 26.16 272.528 23.952C273.464 21.744 274.796 19.92 276.524 18.48C278.252 17.016 280.28 16.224 282.608 16.104C282.68 16.104 282.728 16.164 282.752 16.284C282.8 16.38 282.776 16.44 282.68 16.464C280.736 16.872 279.068 17.772 277.676 19.164C276.308 20.556 275.276 22.236 274.58 24.204C273.884 26.172 273.536 28.2 273.536 30.288C273.536 32.664 273.98 34.68 274.868 36.336C275.78 37.968 277.136 38.784 278.936 38.784C280.16 38.784 281.072 38.34 281.672 37.452C282.272 36.564 282.572 35.328 282.572 33.744C282.572 31.944 282.212 30.516 281.492 29.46C280.796 28.38 279.836 27.84 278.612 27.84C277.484 27.84 276.44 28.32 275.48 29.28L275.408 29.316C275.312 29.316 275.216 29.28 275.12 29.208C275.048 29.136 275.036 29.076 275.084 29.028C275.66 28.284 276.332 27.72 277.1 27.336C277.868 26.952 278.696 26.76 279.584 26.76ZM295.684 39.468C294.244 39.468 292.96 38.976 291.832 37.992C290.728 37.008 289.864 35.628 289.24 33.852C288.64 32.076 288.34 30.036 288.34 27.732C288.34 25.452 288.652 23.436 289.276 21.684C289.9 19.908 290.764 18.528 291.868 17.544C292.996 16.56 294.292 16.068 295.756 16.068C297.172 16.068 298.42 16.56 299.5 17.544C300.604 18.528 301.456 19.92 302.056 21.72C302.656 23.496 302.956 25.536 302.956 27.84C302.956 30.12 302.644 32.148 302.02 33.924C301.42 35.676 300.568 37.044 299.464 38.028C298.36 38.988 297.1 39.468 295.684 39.468ZM296.116 38.964C297.556 38.964 298.636 38.04 299.356 36.192C300.076 34.32 300.436 31.68 300.436 28.272C300.436 25.68 300.208 23.508 299.752 21.756C299.32 20.004 298.72 18.696 297.952 17.832C297.208 16.968 296.344 16.536 295.36 16.536C293.92 16.536 292.804 17.52 292.012 19.488C291.244 21.456 290.86 24.12 290.86 27.48C290.86 31.008 291.328 33.804 292.264 35.868C293.2 37.932 294.484 38.964 296.116 38.964Z" fill="white"/>
<path d="M279.584 26.76C280.688 26.76 281.636 27.036 282.428 27.588C283.244 28.14 283.868 28.872 284.3 29.784C284.732 30.696 284.948 31.68 284.948 32.736C284.948 34.008 284.648 35.16 284.048 36.192C283.448 37.2 282.62 38.004 281.564 38.604C280.508 39.18 279.32 39.468 278 39.468C275.744 39.468 274.04 38.688 272.888 37.128C271.736 35.544 271.16 33.444 271.16 30.828C271.16 28.452 271.616 26.16 272.528 23.952C273.464 21.744 274.796 19.92 276.524 18.48C278.252 17.016 280.28 16.224 282.608 16.104C282.68 16.104 282.728 16.164 282.752 16.284C282.8 16.38 282.776 16.44 282.68 16.464C280.736 16.872 279.068 17.772 277.676 19.164C276.308 20.556 275.276 22.236 274.58 24.204C273.884 26.172 273.536 28.2 273.536 30.288C273.536 32.664 273.98 34.68 274.868 36.336C275.78 37.968 277.136 38.784 278.936 38.784C280.16 38.784 281.072 38.34 281.672 37.452C282.272 36.564 282.572 35.328 282.572 33.744C282.572 31.944 282.212 30.516 281.492 29.46C280.796 28.38 279.836 27.84 278.612 27.84C277.484 27.84 276.44 28.32 275.48 29.28L275.408 29.316C275.312 29.316 275.216 29.28 275.12 29.208C275.048 29.136 275.036 29.076 275.084 29.028C275.66 28.284 276.332 27.72 277.1 27.336C277.868 26.952 278.696 26.76 279.584 26.76ZM295.684 39.468C294.244 39.468 292.96 38.976 291.832 37.992C290.728 37.008 289.864 35.628 289.24 33.852C288.64 32.076 288.34 30.036 288.34 27.732C288.34 25.452 288.652 23.436 289.276 21.684C289.9 19.908 290.764 18.528 291.868 17.544C292.996 16.56 294.292 16.068 295.756 16.068C297.172 16.068 298.42 16.56 299.5 17.544C300.604 18.528 301.456 19.92 302.056 21.72C302.656 23.496 302.956 25.536 302.956 27.84C302.956 30.12 302.644 32.148 302.02 33.924C301.42 35.676 300.568 37.044 299.464 38.028C298.36 38.988 297.1 39.468 295.684 39.468ZM296.116 38.964C297.556 38.964 298.636 38.04 299.356 36.192C300.076 34.32 300.436 31.68 300.436 28.272C300.436 25.68 300.208 23.508 299.752 21.756C299.32 20.004 298.72 18.696 297.952 17.832C297.208 16.968 296.344 16.536 295.36 16.536C293.92 16.536 292.804 17.52 292.012 19.488C291.244 21.456 290.86 24.12 290.86 27.48C290.86 31.008 291.328 33.804 292.264 35.868C293.2 37.932 294.484 38.964 296.116 38.964Z" fill="#EE8D46" fill-opacity="0.2"/>
<path d="M31.136 50.328C31.136 50.008 31.0987 49.7733 31.024 49.624C30.96 49.464 30.832 49.352 30.64 49.288C30.448 49.224 30.144 49.192 29.728 49.192C29.696 49.192 29.68 49.16 29.68 49.096C29.68 49.032 29.696 49 29.728 49L30.496 49.016C30.9653 49.0373 31.3547 49.048 31.664 49.048C31.952 49.048 32.32 49.0373 32.768 49.016L33.552 49C33.584 49 33.6 49.032 33.6 49.096C33.6 49.16 33.584 49.192 33.552 49.192C33.1467 49.192 32.848 49.224 32.656 49.288C32.464 49.3413 32.3307 49.4427 32.256 49.592C32.192 49.7413 32.16 49.976 32.16 50.296V57.704C32.16 58.024 32.192 58.264 32.256 58.424C32.3307 58.5733 32.464 58.6747 32.656 58.728C32.848 58.7813 33.1467 58.808 33.552 58.808C33.584 58.808 33.6 58.84 33.6 58.904C33.6 58.968 33.584 59 33.552 59C33.2213 59 32.96 58.9947 32.768 58.984L31.664 58.968L30.496 58.984C30.304 58.9947 30.048 59 29.728 59C29.696 59 29.68 58.968 29.68 58.904C29.68 58.84 29.696 58.808 29.728 58.808C30.144 58.808 30.448 58.7813 30.64 58.728C30.832 58.6747 30.96 58.5733 31.024 58.424C31.0987 58.264 31.136 58.024 31.136 57.704V50.328ZM24.432 53.624H31.584V53.96H24.432V53.624ZM23.968 50.296C23.968 49.976 23.9307 49.7413 23.856 49.592C23.792 49.4427 23.664 49.3413 23.472 49.288C23.28 49.224 22.9813 49.192 22.576 49.192C22.5547 49.192 22.544 49.16 22.544 49.096C22.544 49.032 22.5547 49 22.576 49L23.392 49.016C23.84 49.0373 24.1973 49.048 24.464 49.048C24.7733 49.048 25.1627 49.0373 25.632 49.016L26.4 49C26.4213 49 26.432 49.032 26.432 49.096C26.432 49.16 26.4213 49.192 26.4 49.192C25.9947 49.192 25.6907 49.224 25.488 49.288C25.296 49.352 25.1627 49.464 25.088 49.624C25.024 49.7733 24.992 50.008 24.992 50.328V57.704C24.992 58.024 25.024 58.264 25.088 58.424C25.1627 58.5733 25.296 58.6747 25.488 58.728C25.68 58.7813 25.984 58.808 26.4 58.808C26.4213 58.808 26.432 58.84 26.432 58.904C26.432 58.968 26.4213 59 26.4 59C26.0693 59 25.808 58.9947 25.616 58.984L24.464 58.968L23.36 58.984C23.168 58.9947 22.9013 59 22.56 59C22.5387 59 22.528 58.968 22.528 58.904C22.528 58.84 22.5387 58.808 22.56 58.808C22.9653 58.808 23.264 58.7813 23.456 58.728C23.6587 58.6747 23.792 58.5733 23.856 58.424C23.9307 58.264 23.968 58.024 23.968 57.704V50.296ZM37.0206 59.16C36.37 59.16 35.8206 58.92 35.3726 58.44C34.9353 57.96 34.7166 57.288 34.7166 56.424C34.7166 55.656 34.898 54.984 35.2606 54.408C35.6233 53.832 36.0766 53.3893 36.6206 53.08C37.1753 52.7707 37.73 52.616 38.2846 52.616C38.658 52.616 39.0153 52.6853 39.3566 52.824C39.698 52.9627 39.9753 53.1547 40.1886 53.4L39.5486 54.296C39.5486 53.9013 39.378 53.576 39.0366 53.32C38.6953 53.064 38.3113 52.936 37.8846 52.936C37.2553 52.936 36.7433 53.2187 36.3486 53.784C35.9646 54.3387 35.7726 55.064 35.7726 55.96C35.7726 56.76 35.9326 57.4053 36.2526 57.896C36.5833 58.3867 37.0206 58.632 37.5646 58.632C37.97 58.632 38.3486 58.5093 38.7006 58.264C39.0633 58.008 39.4313 57.6827 39.8046 57.288L39.9326 57.4C39.4633 57.9333 38.9993 58.36 38.5406 58.68C38.0926 59 37.586 59.16 37.0206 59.16ZM39.9806 59.144C39.8846 59.144 39.7886 59.0053 39.6926 58.728C39.5966 58.4507 39.5486 58.1147 39.5486 57.72V53.224C39.762 53.1387 39.9166 53.064 40.0126 53C40.1086 52.936 40.1993 52.8293 40.2846 52.68C40.2953 52.6587 40.322 52.6587 40.3646 52.68C40.4073 52.6907 40.4286 52.7067 40.4286 52.728V57.288C40.4286 57.6507 40.4713 57.912 40.5566 58.072C40.642 58.2213 40.786 58.296 40.9886 58.296C41.17 58.296 41.4526 58.2213 41.8366 58.072H41.8686C41.9113 58.072 41.938 58.0987 41.9486 58.152C41.97 58.1947 41.9593 58.2213 41.9166 58.232L40.0606 59.128C40.0393 59.1387 40.0126 59.144 39.9806 59.144ZM44.2084 54.488C44.7737 53.784 45.211 53.3093 45.5204 53.064C45.8297 52.808 46.1177 52.68 46.3844 52.68C46.619 52.68 46.843 52.744 47.0564 52.872C47.2697 53 47.3764 53.1547 47.3764 53.336C47.3764 53.4747 47.3284 53.592 47.2324 53.688C47.1364 53.784 47.0084 53.832 46.8484 53.832C46.7524 53.832 46.667 53.816 46.5924 53.784C46.5284 53.7413 46.4484 53.6827 46.3524 53.608C46.2564 53.5227 46.1657 53.4587 46.0804 53.416C45.995 53.3733 45.8937 53.352 45.7764 53.352C45.6164 53.352 45.4404 53.432 45.2484 53.592C45.0564 53.752 44.731 54.1093 44.2724 54.664L44.2084 54.488ZM42.7044 59C42.6724 59 42.6564 58.968 42.6564 58.904C42.6564 58.84 42.6724 58.808 42.7044 58.808C42.9924 58.808 43.2057 58.7813 43.3444 58.728C43.483 58.664 43.5737 58.5573 43.6164 58.408C43.6697 58.2587 43.6964 58.024 43.6964 57.704V54.536C43.6964 54.1733 43.6537 53.912 43.5684 53.752C43.483 53.592 43.339 53.512 43.1364 53.512C42.9657 53.512 42.6777 53.592 42.2724 53.752H42.2404C42.1977 53.752 42.1657 53.7307 42.1444 53.688C42.1337 53.6347 42.1497 53.5973 42.1924 53.576L44.0484 52.696C44.0697 52.6853 44.1017 52.68 44.1444 52.68C44.2404 52.68 44.3417 52.8027 44.4484 53.048C44.555 53.2933 44.6084 53.608 44.6084 53.992V57.704C44.6084 58.024 44.6457 58.2587 44.7204 58.408C44.8057 58.5573 44.955 58.664 45.1684 58.728C45.3817 58.7813 45.7124 58.808 46.1604 58.808C46.203 58.808 46.2244 58.84 46.2244 58.904C46.2244 58.968 46.203 59 46.1604 59C45.819 59 45.547 58.9947 45.3444 58.984L44.1604 58.968L43.2804 58.984C43.1417 58.9947 42.9497 59 42.7044 59ZM48.6605 59C48.6392 59 48.6285 58.968 48.6285 58.904C48.6285 58.84 48.6392 58.808 48.6605 58.808C48.9485 58.808 49.1618 58.7813 49.3005 58.728C49.4498 58.664 49.5512 58.5573 49.6045 58.408C49.6578 58.2587 49.6845 58.024 49.6845 57.704V54.712C49.6845 54.328 49.6418 54.0507 49.5565 53.88C49.4818 53.7093 49.3485 53.624 49.1565 53.624C48.9645 53.624 48.7245 53.6987 48.4365 53.848H48.4205C48.3778 53.848 48.3458 53.8213 48.3245 53.768C48.3032 53.7147 48.3085 53.6773 48.3405 53.656L50.4205 52.696L50.4845 52.68C50.5058 52.68 50.5325 52.696 50.5645 52.728C50.5965 52.7493 50.6125 52.776 50.6125 52.808C50.6125 52.8827 50.6072 53.096 50.5965 53.448C50.5858 53.8 50.5805 54.216 50.5805 54.696V57.704C50.5805 58.024 50.6072 58.2587 50.6605 58.408C50.7138 58.5573 50.8098 58.664 50.9485 58.728C51.0872 58.7813 51.3005 58.808 51.5885 58.808C51.6205 58.808 51.6365 58.84 51.6365 58.904C51.6365 58.968 51.6205 59 51.5885 59C51.3432 59 51.1458 58.9947 50.9965 58.984L50.1325 58.968L49.2685 58.984C49.1192 58.9947 48.9165 59 48.6605 59ZM50.0045 50.808C49.7912 50.808 49.6205 50.7493 49.4925 50.632C49.3645 50.5147 49.3005 50.3493 49.3005 50.136C49.3005 49.9227 49.3645 49.7573 49.4925 49.64C49.6205 49.5227 49.7912 49.464 50.0045 49.464C50.2178 49.464 50.3832 49.5227 50.5005 49.64C50.6178 49.7573 50.6765 49.9227 50.6765 50.136C50.6765 50.3493 50.6178 50.5147 50.5005 50.632C50.3832 50.7493 50.2178 50.808 50.0045 50.808Z" fill="white"/>
<path d="M31.136 50.328C31.136 50.008 31.0987 49.7733 31.024 49.624C30.96 49.464 30.832 49.352 30.64 49.288C30.448 49.224 30.144 49.192 29.728 49.192C29.696 49.192 29.68 49.16 29.68 49.096C29.68 49.032 29.696 49 29.728 49L30.496 49.016C30.9653 49.0373 31.3547 49.048 31.664 49.048C31.952 49.048 32.32 49.0373 32.768 49.016L33.552 49C33.584 49 33.6 49.032 33.6 49.096C33.6 49.16 33.584 49.192 33.552 49.192C33.1467 49.192 32.848 49.224 32.656 49.288C32.464 49.3413 32.3307 49.4427 32.256 49.592C32.192 49.7413 32.16 49.976 32.16 50.296V57.704C32.16 58.024 32.192 58.264 32.256 58.424C32.3307 58.5733 32.464 58.6747 32.656 58.728C32.848 58.7813 33.1467 58.808 33.552 58.808C33.584 58.808 33.6 58.84 33.6 58.904C33.6 58.968 33.584 59 33.552 59C33.2213 59 32.96 58.9947 32.768 58.984L31.664 58.968L30.496 58.984C30.304 58.9947 30.048 59 29.728 59C29.696 59 29.68 58.968 29.68 58.904C29.68 58.84 29.696 58.808 29.728 58.808C30.144 58.808 30.448 58.7813 30.64 58.728C30.832 58.6747 30.96 58.5733 31.024 58.424C31.0987 58.264 31.136 58.024 31.136 57.704V50.328ZM24.432 53.624H31.584V53.96H24.432V53.624ZM23.968 50.296C23.968 49.976 23.9307 49.7413 23.856 49.592C23.792 49.4427 23.664 49.3413 23.472 49.288C23.28 49.224 22.9813 49.192 22.576 49.192C22.5547 49.192 22.544 49.16 22.544 49.096C22.544 49.032 22.5547 49 22.576 49L23.392 49.016C23.84 49.0373 24.1973 49.048 24.464 49.048C24.7733 49.048 25.1627 49.0373 25.632 49.016L26.4 49C26.4213 49 26.432 49.032 26.432 49.096C26.432 49.16 26.4213 49.192 26.4 49.192C25.9947 49.192 25.6907 49.224 25.488 49.288C25.296 49.352 25.1627 49.464 25.088 49.624C25.024 49.7733 24.992 50.008 24.992 50.328V57.704C24.992 58.024 25.024 58.264 25.088 58.424C25.1627 58.5733 25.296 58.6747 25.488 58.728C25.68 58.7813 25.984 58.808 26.4 58.808C26.4213 58.808 26.432 58.84 26.432 58.904C26.432 58.968 26.4213 59 26.4 59C26.0693 59 25.808 58.9947 25.616 58.984L24.464 58.968L23.36 58.984C23.168 58.9947 22.9013 59 22.56 59C22.5387 59 22.528 58.968 22.528 58.904C22.528 58.84 22.5387 58.808 22.56 58.808C22.9653 58.808 23.264 58.7813 23.456 58.728C23.6587 58.6747 23.792 58.5733 23.856 58.424C23.9307 58.264 23.968 58.024 23.968 57.704V50.296ZM37.0206 59.16C36.37 59.16 35.8206 58.92 35.3726 58.44C34.9353 57.96 34.7166 57.288 34.7166 56.424C34.7166 55.656 34.898 54.984 35.2606 54.408C35.6233 53.832 36.0766 53.3893 36.6206 53.08C37.1753 52.7707 37.73 52.616 38.2846 52.616C38.658 52.616 39.0153 52.6853 39.3566 52.824C39.698 52.9627 39.9753 53.1547 40.1886 53.4L39.5486 54.296C39.5486 53.9013 39.378 53.576 39.0366 53.32C38.6953 53.064 38.3113 52.936 37.8846 52.936C37.2553 52.936 36.7433 53.2187 36.3486 53.784C35.9646 54.3387 35.7726 55.064 35.7726 55.96C35.7726 56.76 35.9326 57.4053 36.2526 57.896C36.5833 58.3867 37.0206 58.632 37.5646 58.632C37.97 58.632 38.3486 58.5093 38.7006 58.264C39.0633 58.008 39.4313 57.6827 39.8046 57.288L39.9326 57.4C39.4633 57.9333 38.9993 58.36 38.5406 58.68C38.0926 59 37.586 59.16 37.0206 59.16ZM39.9806 59.144C39.8846 59.144 39.7886 59.0053 39.6926 58.728C39.5966 58.4507 39.5486 58.1147 39.5486 57.72V53.224C39.762 53.1387 39.9166 53.064 40.0126 53C40.1086 52.936 40.1993 52.8293 40.2846 52.68C40.2953 52.6587 40.322 52.6587 40.3646 52.68C40.4073 52.6907 40.4286 52.7067 40.4286 52.728V57.288C40.4286 57.6507 40.4713 57.912 40.5566 58.072C40.642 58.2213 40.786 58.296 40.9886 58.296C41.17 58.296 41.4526 58.2213 41.8366 58.072H41.8686C41.9113 58.072 41.938 58.0987 41.9486 58.152C41.97 58.1947 41.9593 58.2213 41.9166 58.232L40.0606 59.128C40.0393 59.1387 40.0126 59.144 39.9806 59.144ZM44.2084 54.488C44.7737 53.784 45.211 53.3093 45.5204 53.064C45.8297 52.808 46.1177 52.68 46.3844 52.68C46.619 52.68 46.843 52.744 47.0564 52.872C47.2697 53 47.3764 53.1547 47.3764 53.336C47.3764 53.4747 47.3284 53.592 47.2324 53.688C47.1364 53.784 47.0084 53.832 46.8484 53.832C46.7524 53.832 46.667 53.816 46.5924 53.784C46.5284 53.7413 46.4484 53.6827 46.3524 53.608C46.2564 53.5227 46.1657 53.4587 46.0804 53.416C45.995 53.3733 45.8937 53.352 45.7764 53.352C45.6164 53.352 45.4404 53.432 45.2484 53.592C45.0564 53.752 44.731 54.1093 44.2724 54.664L44.2084 54.488ZM42.7044 59C42.6724 59 42.6564 58.968 42.6564 58.904C42.6564 58.84 42.6724 58.808 42.7044 58.808C42.9924 58.808 43.2057 58.7813 43.3444 58.728C43.483 58.664 43.5737 58.5573 43.6164 58.408C43.6697 58.2587 43.6964 58.024 43.6964 57.704V54.536C43.6964 54.1733 43.6537 53.912 43.5684 53.752C43.483 53.592 43.339 53.512 43.1364 53.512C42.9657 53.512 42.6777 53.592 42.2724 53.752H42.2404C42.1977 53.752 42.1657 53.7307 42.1444 53.688C42.1337 53.6347 42.1497 53.5973 42.1924 53.576L44.0484 52.696C44.0697 52.6853 44.1017 52.68 44.1444 52.68C44.2404 52.68 44.3417 52.8027 44.4484 53.048C44.555 53.2933 44.6084 53.608 44.6084 53.992V57.704C44.6084 58.024 44.6457 58.2587 44.7204 58.408C44.8057 58.5573 44.955 58.664 45.1684 58.728C45.3817 58.7813 45.7124 58.808 46.1604 58.808C46.203 58.808 46.2244 58.84 46.2244 58.904C46.2244 58.968 46.203 59 46.1604 59C45.819 59 45.547 58.9947 45.3444 58.984L44.1604 58.968L43.2804 58.984C43.1417 58.9947 42.9497 59 42.7044 59ZM48.6605 59C48.6392 59 48.6285 58.968 48.6285 58.904C48.6285 58.84 48.6392 58.808 48.6605 58.808C48.9485 58.808 49.1618 58.7813 49.3005 58.728C49.4498 58.664 49.5512 58.5573 49.6045 58.408C49.6578 58.2587 49.6845 58.024 49.6845 57.704V54.712C49.6845 54.328 49.6418 54.0507 49.5565 53.88C49.4818 53.7093 49.3485 53.624 49.1565 53.624C48.9645 53.624 48.7245 53.6987 48.4365 53.848H48.4205C48.3778 53.848 48.3458 53.8213 48.3245 53.768C48.3032 53.7147 48.3085 53.6773 48.3405 53.656L50.4205 52.696L50.4845 52.68C50.5058 52.68 50.5325 52.696 50.5645 52.728C50.5965 52.7493 50.6125 52.776 50.6125 52.808C50.6125 52.8827 50.6072 53.096 50.5965 53.448C50.5858 53.8 50.5805 54.216 50.5805 54.696V57.704C50.5805 58.024 50.6072 58.2587 50.6605 58.408C50.7138 58.5573 50.8098 58.664 50.9485 58.728C51.0872 58.7813 51.3005 58.808 51.5885 58.808C51.6205 58.808 51.6365 58.84 51.6365 58.904C51.6365 58.968 51.6205 59 51.5885 59C51.3432 59 51.1458 58.9947 50.9965 58.984L50.1325 58.968L49.2685 58.984C49.1192 58.9947 48.9165 59 48.6605 59ZM50.0045 50.808C49.7912 50.808 49.6205 50.7493 49.4925 50.632C49.3645 50.5147 49.3005 50.3493 49.3005 50.136C49.3005 49.9227 49.3645 49.7573 49.4925 49.64C49.6205 49.5227 49.7912 49.464 50.0045 49.464C50.2178 49.464 50.3832 49.5227 50.5005 49.64C50.6178 49.7573 50.6765 49.9227 50.6765 50.136C50.6765 50.3493 50.6178 50.5147 50.5005 50.632C50.3832 50.7493 50.2178 50.808 50.0045 50.808Z" fill="#EE8D46" fill-opacity="0.2"/>
<path d="M113.48 49C113.501 49 113.512 49.032 113.512 49.096C113.512 49.16 113.501 49.192 113.48 49.192C113.128 49.192 112.872 49.224 112.712 49.288C112.552 49.352 112.44 49.464 112.376 49.624C112.323 49.7733 112.296 50.008 112.296 50.328V59.448C112.296 60.504 112.051 61.3413 111.56 61.96C111.069 62.5893 110.36 62.904 109.432 62.904C109.069 62.904 108.787 62.84 108.584 62.712C108.371 62.5947 108.264 62.4293 108.264 62.216C108.264 62.056 108.312 61.928 108.408 61.832C108.504 61.736 108.637 61.688 108.808 61.688C108.989 61.688 109.128 61.7253 109.224 61.8C109.32 61.8853 109.421 62.008 109.528 62.168C109.624 62.3173 109.709 62.424 109.784 62.488C109.859 62.552 109.965 62.584 110.104 62.584C110.488 62.584 110.771 62.36 110.952 61.912C111.144 61.4747 111.24 60.7653 111.24 59.784V50.296C111.24 49.976 111.203 49.7413 111.128 49.592C111.053 49.4427 110.904 49.3413 110.68 49.288C110.467 49.224 110.131 49.192 109.672 49.192C109.651 49.192 109.64 49.16 109.64 49.096C109.64 49.032 109.651 49 109.672 49L110.6 49.016C111.091 49.0373 111.475 49.048 111.752 49.048C112.029 49.048 112.371 49.0373 112.776 49.016L113.48 49ZM116.755 59.16C116.104 59.16 115.555 58.92 115.107 58.44C114.67 57.96 114.451 57.288 114.451 56.424C114.451 55.656 114.632 54.984 114.995 54.408C115.358 53.832 115.811 53.3893 116.355 53.08C116.91 52.7707 117.464 52.616 118.019 52.616C118.392 52.616 118.75 52.6853 119.091 52.824C119.432 52.9627 119.71 53.1547 119.923 53.4L119.283 54.296C119.283 53.9013 119.112 53.576 118.771 53.32C118.43 53.064 118.046 52.936 117.619 52.936C116.99 52.936 116.478 53.2187 116.083 53.784C115.699 54.3387 115.507 55.064 115.507 55.96C115.507 56.76 115.667 57.4053 115.987 57.896C116.318 58.3867 116.755 58.632 117.299 58.632C117.704 58.632 118.083 58.5093 118.435 58.264C118.798 58.008 119.166 57.6827 119.539 57.288L119.667 57.4C119.198 57.9333 118.734 58.36 118.275 58.68C117.827 59 117.32 59.16 116.755 59.16ZM119.715 59.144C119.619 59.144 119.523 59.0053 119.427 58.728C119.331 58.4507 119.283 58.1147 119.283 57.72V53.224C119.496 53.1387 119.651 53.064 119.747 53C119.843 52.936 119.934 52.8293 120.019 52.68C120.03 52.6587 120.056 52.6587 120.099 52.68C120.142 52.6907 120.163 52.7067 120.163 52.728V57.288C120.163 57.6507 120.206 57.912 120.291 58.072C120.376 58.2213 120.52 58.296 120.723 58.296C120.904 58.296 121.187 58.2213 121.571 58.072H121.603C121.646 58.072 121.672 58.0987 121.683 58.152C121.704 58.1947 121.694 58.2213 121.651 58.232L119.795 59.128C119.774 59.1387 119.747 59.144 119.715 59.144ZM130.679 59C130.647 59 130.631 58.968 130.631 58.904C130.631 58.84 130.647 58.808 130.679 58.808C130.967 58.808 131.18 58.7813 131.319 58.728C131.457 58.664 131.553 58.5573 131.607 58.408C131.66 58.248 131.687 58.0133 131.687 57.704V55.16C131.687 54.5307 131.575 54.0613 131.351 53.752C131.127 53.4427 130.78 53.288 130.311 53.288C129.937 53.288 129.553 53.416 129.159 53.672C128.775 53.9173 128.444 54.2533 128.167 54.68L128.103 54.488C128.551 53.8587 128.993 53.4 129.431 53.112C129.879 52.8133 130.348 52.664 130.839 52.664C131.404 52.664 131.836 52.824 132.135 53.144C132.433 53.464 132.583 53.9493 132.583 54.6V57.704C132.583 58.024 132.609 58.2587 132.663 58.408C132.716 58.5573 132.812 58.664 132.951 58.728C133.089 58.7813 133.303 58.808 133.591 58.808C133.623 58.808 133.639 58.84 133.639 58.904C133.639 58.968 133.623 59 133.591 59C133.345 59 133.148 58.9947 132.999 58.984L132.135 58.968L131.271 58.984C131.121 58.9947 130.924 59 130.679 59ZM126.551 59C126.519 59 126.503 58.968 126.503 58.904C126.503 58.84 126.519 58.808 126.551 58.808C126.839 58.808 127.052 58.7813 127.191 58.728C127.329 58.664 127.42 58.5573 127.463 58.408C127.516 58.2587 127.543 58.024 127.543 57.704V55.16C127.543 54.5307 127.431 54.0613 127.207 53.752C126.983 53.4427 126.641 53.288 126.183 53.288C125.799 53.288 125.415 53.416 125.031 53.672C124.647 53.9173 124.316 54.2533 124.039 54.68L123.975 54.488C124.423 53.8587 124.865 53.4 125.303 53.112C125.751 52.8133 126.215 52.664 126.695 52.664C127.26 52.664 127.692 52.824 127.991 53.144C128.3 53.464 128.455 53.9387 128.455 54.568V57.704C128.455 58.024 128.481 58.2587 128.535 58.408C128.588 58.5573 128.684 58.664 128.823 58.728C128.961 58.7813 129.175 58.808 129.463 58.808C129.495 58.808 129.511 58.84 129.511 58.904C129.511 58.968 129.495 59 129.463 59C129.217 59 129.02 58.9947 128.871 58.984L128.007 58.968L127.127 58.984C126.988 58.9947 126.796 59 126.551 59ZM122.439 59C122.407 59 122.391 58.968 122.391 58.904C122.391 58.84 122.407 58.808 122.439 58.808C122.727 58.808 122.94 58.7813 123.079 58.728C123.217 58.664 123.308 58.5573 123.351 58.408C123.404 58.2587 123.431 58.024 123.431 57.704V54.536C123.431 54.1733 123.388 53.912 123.303 53.752C123.217 53.592 123.073 53.512 122.871 53.512C122.7 53.512 122.412 53.592 122.007 53.752H121.975C121.932 53.752 121.9 53.7307 121.879 53.688C121.868 53.6347 121.884 53.5973 121.927 53.576L123.783 52.696C123.804 52.6853 123.836 52.68 123.879 52.68C123.975 52.68 124.076 52.8027 124.183 53.048C124.289 53.2933 124.343 53.608 124.343 53.992V57.704C124.343 58.024 124.364 58.2587 124.407 58.408C124.46 58.5573 124.556 58.664 124.695 58.728C124.833 58.7813 125.047 58.808 125.335 58.808C125.367 58.808 125.383 58.84 125.383 58.904C125.383 58.968 125.367 59 125.335 59C125.089 59 124.897 58.9947 124.759 58.984L123.895 58.968L123.015 58.984C122.876 58.9947 122.684 59 122.439 59Z" fill="white"/>
<path d="M113.48 49C113.501 49 113.512 49.032 113.512 49.096C113.512 49.16 113.501 49.192 113.48 49.192C113.128 49.192 112.872 49.224 112.712 49.288C112.552 49.352 112.44 49.464 112.376 49.624C112.323 49.7733 112.296 50.008 112.296 50.328V59.448C112.296 60.504 112.051 61.3413 111.56 61.96C111.069 62.5893 110.36 62.904 109.432 62.904C109.069 62.904 108.787 62.84 108.584 62.712C108.371 62.5947 108.264 62.4293 108.264 62.216C108.264 62.056 108.312 61.928 108.408 61.832C108.504 61.736 108.637 61.688 108.808 61.688C108.989 61.688 109.128 61.7253 109.224 61.8C109.32 61.8853 109.421 62.008 109.528 62.168C109.624 62.3173 109.709 62.424 109.784 62.488C109.859 62.552 109.965 62.584 110.104 62.584C110.488 62.584 110.771 62.36 110.952 61.912C111.144 61.4747 111.24 60.7653 111.24 59.784V50.296C111.24 49.976 111.203 49.7413 111.128 49.592C111.053 49.4427 110.904 49.3413 110.68 49.288C110.467 49.224 110.131 49.192 109.672 49.192C109.651 49.192 109.64 49.16 109.64 49.096C109.64 49.032 109.651 49 109.672 49L110.6 49.016C111.091 49.0373 111.475 49.048 111.752 49.048C112.029 49.048 112.371 49.0373 112.776 49.016L113.48 49ZM116.755 59.16C116.104 59.16 115.555 58.92 115.107 58.44C114.67 57.96 114.451 57.288 114.451 56.424C114.451 55.656 114.632 54.984 114.995 54.408C115.358 53.832 115.811 53.3893 116.355 53.08C116.91 52.7707 117.464 52.616 118.019 52.616C118.392 52.616 118.75 52.6853 119.091 52.824C119.432 52.9627 119.71 53.1547 119.923 53.4L119.283 54.296C119.283 53.9013 119.112 53.576 118.771 53.32C118.43 53.064 118.046 52.936 117.619 52.936C116.99 52.936 116.478 53.2187 116.083 53.784C115.699 54.3387 115.507 55.064 115.507 55.96C115.507 56.76 115.667 57.4053 115.987 57.896C116.318 58.3867 116.755 58.632 117.299 58.632C117.704 58.632 118.083 58.5093 118.435 58.264C118.798 58.008 119.166 57.6827 119.539 57.288L119.667 57.4C119.198 57.9333 118.734 58.36 118.275 58.68C117.827 59 117.32 59.16 116.755 59.16ZM119.715 59.144C119.619 59.144 119.523 59.0053 119.427 58.728C119.331 58.4507 119.283 58.1147 119.283 57.72V53.224C119.496 53.1387 119.651 53.064 119.747 53C119.843 52.936 119.934 52.8293 120.019 52.68C120.03 52.6587 120.056 52.6587 120.099 52.68C120.142 52.6907 120.163 52.7067 120.163 52.728V57.288C120.163 57.6507 120.206 57.912 120.291 58.072C120.376 58.2213 120.52 58.296 120.723 58.296C120.904 58.296 121.187 58.2213 121.571 58.072H121.603C121.646 58.072 121.672 58.0987 121.683 58.152C121.704 58.1947 121.694 58.2213 121.651 58.232L119.795 59.128C119.774 59.1387 119.747 59.144 119.715 59.144ZM130.679 59C130.647 59 130.631 58.968 130.631 58.904C130.631 58.84 130.647 58.808 130.679 58.808C130.967 58.808 131.18 58.7813 131.319 58.728C131.457 58.664 131.553 58.5573 131.607 58.408C131.66 58.248 131.687 58.0133 131.687 57.704V55.16C131.687 54.5307 131.575 54.0613 131.351 53.752C131.127 53.4427 130.78 53.288 130.311 53.288C129.937 53.288 129.553 53.416 129.159 53.672C128.775 53.9173 128.444 54.2533 128.167 54.68L128.103 54.488C128.551 53.8587 128.993 53.4 129.431 53.112C129.879 52.8133 130.348 52.664 130.839 52.664C131.404 52.664 131.836 52.824 132.135 53.144C132.433 53.464 132.583 53.9493 132.583 54.6V57.704C132.583 58.024 132.609 58.2587 132.663 58.408C132.716 58.5573 132.812 58.664 132.951 58.728C133.089 58.7813 133.303 58.808 133.591 58.808C133.623 58.808 133.639 58.84 133.639 58.904C133.639 58.968 133.623 59 133.591 59C133.345 59 133.148 58.9947 132.999 58.984L132.135 58.968L131.271 58.984C131.121 58.9947 130.924 59 130.679 59ZM126.551 59C126.519 59 126.503 58.968 126.503 58.904C126.503 58.84 126.519 58.808 126.551 58.808C126.839 58.808 127.052 58.7813 127.191 58.728C127.329 58.664 127.42 58.5573 127.463 58.408C127.516 58.2587 127.543 58.024 127.543 57.704V55.16C127.543 54.5307 127.431 54.0613 127.207 53.752C126.983 53.4427 126.641 53.288 126.183 53.288C125.799 53.288 125.415 53.416 125.031 53.672C124.647 53.9173 124.316 54.2533 124.039 54.68L123.975 54.488C124.423 53.8587 124.865 53.4 125.303 53.112C125.751 52.8133 126.215 52.664 126.695 52.664C127.26 52.664 127.692 52.824 127.991 53.144C128.3 53.464 128.455 53.9387 128.455 54.568V57.704C128.455 58.024 128.481 58.2587 128.535 58.408C128.588 58.5573 128.684 58.664 128.823 58.728C128.961 58.7813 129.175 58.808 129.463 58.808C129.495 58.808 129.511 58.84 129.511 58.904C129.511 58.968 129.495 59 129.463 59C129.217 59 129.02 58.9947 128.871 58.984L128.007 58.968L127.127 58.984C126.988 58.9947 126.796 59 126.551 59ZM122.439 59C122.407 59 122.391 58.968 122.391 58.904C122.391 58.84 122.407 58.808 122.439 58.808C122.727 58.808 122.94 58.7813 123.079 58.728C123.217 58.664 123.308 58.5573 123.351 58.408C123.404 58.2587 123.431 58.024 123.431 57.704V54.536C123.431 54.1733 123.388 53.912 123.303 53.752C123.217 53.592 123.073 53.512 122.871 53.512C122.7 53.512 122.412 53.592 122.007 53.752H121.975C121.932 53.752 121.9 53.7307 121.879 53.688C121.868 53.6347 121.884 53.5973 121.927 53.576L123.783 52.696C123.804 52.6853 123.836 52.68 123.879 52.68C123.975 52.68 124.076 52.8027 124.183 53.048C124.289 53.2933 124.343 53.608 124.343 53.992V57.704C124.343 58.024 124.364 58.2587 124.407 58.408C124.46 58.5573 124.556 58.664 124.695 58.728C124.833 58.7813 125.047 58.808 125.335 58.808C125.367 58.808 125.383 58.84 125.383 58.904C125.383 58.968 125.367 59 125.335 59C125.089 59 124.897 58.9947 124.759 58.984L123.895 58.968L123.015 58.984C122.876 58.9947 122.684 59 122.439 59Z" fill="#EE8D46" fill-opacity="0.2"/>
<path d="M187.064 49.368L187.448 49.4L187.288 57.256C187.277 57.8213 187.373 58.2213 187.576 58.456C187.779 58.6907 188.136 58.808 188.648 58.808C188.669 58.808 188.68 58.84 188.68 58.904C188.68 58.968 188.669 59 188.648 59C188.349 59 188.12 58.9947 187.96 58.984L187.096 58.968L186.264 58.984C186.115 58.9947 185.901 59 185.624 59C185.603 59 185.592 58.968 185.592 58.904C185.592 58.84 185.603 58.808 185.624 58.808C186.072 58.808 186.392 58.6907 186.584 58.456C186.787 58.2107 186.893 57.8107 186.904 57.256L187.064 49.368ZM197.992 58.808C198.024 58.808 198.04 58.84 198.04 58.904C198.04 58.968 198.024 59 197.992 59C197.661 59 197.4 58.9947 197.208 58.984L196.104 58.968L195.08 58.984C194.909 58.9947 194.669 59 194.36 59C194.339 59 194.328 58.968 194.328 58.904C194.328 58.84 194.339 58.808 194.36 58.808C194.723 58.808 194.989 58.7813 195.16 58.728C195.341 58.664 195.459 58.5573 195.512 58.408C195.576 58.2587 195.597 58.024 195.576 57.704L195.272 49.976L195.8 49.24L191.64 58.888C191.619 58.9307 191.576 58.952 191.512 58.952C191.459 58.952 191.411 58.9307 191.368 58.888L187.352 50.328C187.171 49.9333 186.947 49.6453 186.68 49.464C186.424 49.2827 186.109 49.192 185.736 49.192C185.715 49.192 185.704 49.16 185.704 49.096C185.704 49.032 185.715 49 185.736 49L186.328 49.016C186.435 49.0267 186.584 49.032 186.776 49.032C186.968 49.032 187.128 49.0267 187.256 49.016C187.395 49.0053 187.501 49 187.576 49C187.715 49 187.827 49.0533 187.912 49.16C188.008 49.256 188.141 49.48 188.312 49.832L191.96 57.512L191.464 58.344L195.368 49.4C195.485 49.1333 195.645 49 195.848 49C195.901 49 195.976 49.0053 196.072 49.016C196.179 49.0267 196.317 49.032 196.488 49.032L197.24 49.016C197.357 49.0053 197.533 49 197.768 49C197.789 49 197.8 49.032 197.8 49.096C197.8 49.16 197.789 49.192 197.768 49.192C197.224 49.192 196.835 49.272 196.6 49.432C196.376 49.5813 196.275 49.8693 196.296 50.296L196.616 57.704C196.627 58.0347 196.664 58.2747 196.728 58.424C196.803 58.5733 196.931 58.6747 197.112 58.728C197.293 58.7813 197.587 58.808 197.992 58.808ZM201.863 59.192C201.245 59.192 200.717 59.048 200.279 58.76C199.842 58.472 199.506 58.0933 199.271 57.624C199.047 57.1547 198.935 56.6533 198.935 56.12C198.935 55.4907 199.085 54.9147 199.383 54.392C199.682 53.8587 200.087 53.4427 200.599 53.144C201.122 52.8347 201.693 52.68 202.311 52.68C202.909 52.68 203.367 52.84 203.687 53.16C204.007 53.48 204.167 53.928 204.167 54.504C204.167 54.6533 204.151 54.76 204.119 54.824C204.098 54.888 204.05 54.92 203.975 54.92H203.079L203.095 54.632C203.095 54.0987 202.978 53.6933 202.743 53.416C202.509 53.1387 202.189 53 201.783 53C201.218 53 200.775 53.224 200.455 53.672C200.146 54.12 199.991 54.7333 199.991 55.512C199.991 56.44 200.21 57.192 200.647 57.768C201.085 58.344 201.698 58.632 202.487 58.632C202.807 58.632 203.079 58.5893 203.303 58.504C203.538 58.4187 203.799 58.2853 204.087 58.104H204.103C204.135 58.104 204.162 58.1253 204.183 58.168C204.215 58.2 204.221 58.232 204.199 58.264C203.474 58.8827 202.695 59.192 201.863 59.192ZM199.687 54.728L203.319 54.664V54.92L199.703 54.936L199.687 54.728ZM209.915 59C209.883 59 209.867 58.968 209.867 58.904C209.867 58.84 209.883 58.808 209.915 58.808C210.203 58.808 210.416 58.7813 210.555 58.728C210.693 58.664 210.784 58.5573 210.827 58.408C210.88 58.2587 210.907 58.024 210.907 57.704V55.112C210.907 54.472 210.784 54.008 210.539 53.72C210.304 53.4213 209.936 53.272 209.435 53.272C209.04 53.272 208.64 53.3947 208.235 53.64C207.84 53.8853 207.499 54.2213 207.211 54.648L207.147 54.456C207.616 53.8267 208.08 53.3627 208.539 53.064C208.997 52.7653 209.472 52.616 209.963 52.616C210.549 52.616 211.003 52.7867 211.323 53.128C211.653 53.4587 211.819 53.9387 211.819 54.568V57.704C211.819 58.024 211.84 58.2587 211.883 58.408C211.936 58.5573 212.032 58.664 212.171 58.728C212.309 58.7813 212.523 58.808 212.811 58.808C212.843 58.808 212.859 58.84 212.859 58.904C212.859 58.968 212.843 59 212.811 59C212.565 59 212.373 58.9947 212.235 58.984L211.371 58.968L210.491 58.984C210.352 58.9947 210.16 59 209.915 59ZM205.611 59C205.579 59 205.563 58.968 205.563 58.904C205.563 58.84 205.579 58.808 205.611 58.808C205.899 58.808 206.112 58.7813 206.251 58.728C206.389 58.664 206.48 58.5573 206.523 58.408C206.576 58.2587 206.603 58.024 206.603 57.704V54.536C206.603 54.1733 206.56 53.912 206.475 53.752C206.389 53.592 206.245 53.512 206.043 53.512C205.872 53.512 205.584 53.592 205.179 53.752H205.147C205.104 53.752 205.072 53.7307 205.051 53.688C205.04 53.6347 205.056 53.5973 205.099 53.576L206.955 52.696C206.976 52.6853 207.008 52.68 207.051 52.68C207.147 52.68 207.248 52.8027 207.355 53.048C207.461 53.2933 207.515 53.608 207.515 53.992V57.704C207.515 58.024 207.536 58.2587 207.579 58.408C207.632 58.5573 207.728 58.664 207.867 58.728C208.005 58.7813 208.219 58.808 208.507 58.808C208.539 58.808 208.555 58.84 208.555 58.904C208.555 58.968 208.539 59 208.507 59C208.261 59 208.069 58.9947 207.931 58.984L207.067 58.968L206.187 58.984C206.048 58.9947 205.856 59 205.611 59ZM214.004 59C213.983 59 213.972 58.968 213.972 58.904C213.972 58.84 213.983 58.808 214.004 58.808C214.292 58.808 214.506 58.7813 214.644 58.728C214.794 58.664 214.895 58.5573 214.948 58.408C215.002 58.2587 215.028 58.024 215.028 57.704V54.712C215.028 54.328 214.986 54.0507 214.9 53.88C214.826 53.7093 214.692 53.624 214.5 53.624C214.308 53.624 214.068 53.6987 213.78 53.848H213.764C213.722 53.848 213.69 53.8213 213.668 53.768C213.647 53.7147 213.652 53.6773 213.684 53.656L215.764 52.696L215.828 52.68C215.85 52.68 215.876 52.696 215.908 52.728C215.94 52.7493 215.956 52.776 215.956 52.808C215.956 52.8827 215.951 53.096 215.94 53.448C215.93 53.8 215.924 54.216 215.924 54.696V57.704C215.924 58.024 215.951 58.2587 216.004 58.408C216.058 58.5573 216.154 58.664 216.292 58.728C216.431 58.7813 216.644 58.808 216.932 58.808C216.964 58.808 216.98 58.84 216.98 58.904C216.98 58.968 216.964 59 216.932 59C216.687 59 216.49 58.9947 216.34 58.984L215.476 58.968L214.612 58.984C214.463 58.9947 214.26 59 214.004 59ZM215.348 50.808C215.135 50.808 214.964 50.7493 214.836 50.632C214.708 50.5147 214.644 50.3493 214.644 50.136C214.644 49.9227 214.708 49.7573 214.836 49.64C214.964 49.5227 215.135 49.464 215.348 49.464C215.562 49.464 215.727 49.5227 215.844 49.64C215.962 49.7573 216.02 49.9227 216.02 50.136C216.02 50.3493 215.962 50.5147 215.844 50.632C215.727 50.7493 215.562 50.808 215.348 50.808ZM220.539 59.192C220.091 59.192 219.723 59.0907 219.435 58.888C219.147 58.6853 219.003 58.3493 219.003 57.88V54.12C219.003 53.8427 218.982 53.6453 218.939 53.528C218.907 53.4107 218.838 53.336 218.731 53.304C218.625 53.2613 218.443 53.24 218.187 53.24C218.145 53.24 218.123 53.208 218.123 53.144C218.123 53.0693 218.145 53.032 218.187 53.032C218.614 53.0213 218.961 52.9093 219.227 52.696C219.494 52.472 219.649 52.1787 219.691 51.816C219.691 51.784 219.734 51.768 219.819 51.768C219.894 51.768 219.931 51.784 219.931 51.816V57.336C219.931 58.2 220.353 58.632 221.195 58.632C221.686 58.632 222.113 58.4827 222.475 58.184L222.507 58.168C222.55 58.168 222.582 58.1947 222.603 58.248C222.625 58.2907 222.619 58.3227 222.587 58.344C222.193 58.6533 221.835 58.872 221.515 59C221.206 59.128 220.881 59.192 220.539 59.192ZM222.091 53.608C221.409 53.4373 220.598 53.352 219.659 53.352V53C220.331 53 221.163 52.9467 222.155 52.84C222.177 52.84 222.198 52.8827 222.219 52.968C222.251 53.0427 222.267 53.128 222.267 53.224C222.267 53.3093 222.246 53.4 222.203 53.496C222.171 53.5813 222.134 53.6187 222.091 53.608Z" fill="white"/>
<path d="M187.064 49.368L187.448 49.4L187.288 57.256C187.277 57.8213 187.373 58.2213 187.576 58.456C187.779 58.6907 188.136 58.808 188.648 58.808C188.669 58.808 188.68 58.84 188.68 58.904C188.68 58.968 188.669 59 188.648 59C188.349 59 188.12 58.9947 187.96 58.984L187.096 58.968L186.264 58.984C186.115 58.9947 185.901 59 185.624 59C185.603 59 185.592 58.968 185.592 58.904C185.592 58.84 185.603 58.808 185.624 58.808C186.072 58.808 186.392 58.6907 186.584 58.456C186.787 58.2107 186.893 57.8107 186.904 57.256L187.064 49.368ZM197.992 58.808C198.024 58.808 198.04 58.84 198.04 58.904C198.04 58.968 198.024 59 197.992 59C197.661 59 197.4 58.9947 197.208 58.984L196.104 58.968L195.08 58.984C194.909 58.9947 194.669 59 194.36 59C194.339 59 194.328 58.968 194.328 58.904C194.328 58.84 194.339 58.808 194.36 58.808C194.723 58.808 194.989 58.7813 195.16 58.728C195.341 58.664 195.459 58.5573 195.512 58.408C195.576 58.2587 195.597 58.024 195.576 57.704L195.272 49.976L195.8 49.24L191.64 58.888C191.619 58.9307 191.576 58.952 191.512 58.952C191.459 58.952 191.411 58.9307 191.368 58.888L187.352 50.328C187.171 49.9333 186.947 49.6453 186.68 49.464C186.424 49.2827 186.109 49.192 185.736 49.192C185.715 49.192 185.704 49.16 185.704 49.096C185.704 49.032 185.715 49 185.736 49L186.328 49.016C186.435 49.0267 186.584 49.032 186.776 49.032C186.968 49.032 187.128 49.0267 187.256 49.016C187.395 49.0053 187.501 49 187.576 49C187.715 49 187.827 49.0533 187.912 49.16C188.008 49.256 188.141 49.48 188.312 49.832L191.96 57.512L191.464 58.344L195.368 49.4C195.485 49.1333 195.645 49 195.848 49C195.901 49 195.976 49.0053 196.072 49.016C196.179 49.0267 196.317 49.032 196.488 49.032L197.24 49.016C197.357 49.0053 197.533 49 197.768 49C197.789 49 197.8 49.032 197.8 49.096C197.8 49.16 197.789 49.192 197.768 49.192C197.224 49.192 196.835 49.272 196.6 49.432C196.376 49.5813 196.275 49.8693 196.296 50.296L196.616 57.704C196.627 58.0347 196.664 58.2747 196.728 58.424C196.803 58.5733 196.931 58.6747 197.112 58.728C197.293 58.7813 197.587 58.808 197.992 58.808ZM201.863 59.192C201.245 59.192 200.717 59.048 200.279 58.76C199.842 58.472 199.506 58.0933 199.271 57.624C199.047 57.1547 198.935 56.6533 198.935 56.12C198.935 55.4907 199.085 54.9147 199.383 54.392C199.682 53.8587 200.087 53.4427 200.599 53.144C201.122 52.8347 201.693 52.68 202.311 52.68C202.909 52.68 203.367 52.84 203.687 53.16C204.007 53.48 204.167 53.928 204.167 54.504C204.167 54.6533 204.151 54.76 204.119 54.824C204.098 54.888 204.05 54.92 203.975 54.92H203.079L203.095 54.632C203.095 54.0987 202.978 53.6933 202.743 53.416C202.509 53.1387 202.189 53 201.783 53C201.218 53 200.775 53.224 200.455 53.672C200.146 54.12 199.991 54.7333 199.991 55.512C199.991 56.44 200.21 57.192 200.647 57.768C201.085 58.344 201.698 58.632 202.487 58.632C202.807 58.632 203.079 58.5893 203.303 58.504C203.538 58.4187 203.799 58.2853 204.087 58.104H204.103C204.135 58.104 204.162 58.1253 204.183 58.168C204.215 58.2 204.221 58.232 204.199 58.264C203.474 58.8827 202.695 59.192 201.863 59.192ZM199.687 54.728L203.319 54.664V54.92L199.703 54.936L199.687 54.728ZM209.915 59C209.883 59 209.867 58.968 209.867 58.904C209.867 58.84 209.883 58.808 209.915 58.808C210.203 58.808 210.416 58.7813 210.555 58.728C210.693 58.664 210.784 58.5573 210.827 58.408C210.88 58.2587 210.907 58.024 210.907 57.704V55.112C210.907 54.472 210.784 54.008 210.539 53.72C210.304 53.4213 209.936 53.272 209.435 53.272C209.04 53.272 208.64 53.3947 208.235 53.64C207.84 53.8853 207.499 54.2213 207.211 54.648L207.147 54.456C207.616 53.8267 208.08 53.3627 208.539 53.064C208.997 52.7653 209.472 52.616 209.963 52.616C210.549 52.616 211.003 52.7867 211.323 53.128C211.653 53.4587 211.819 53.9387 211.819 54.568V57.704C211.819 58.024 211.84 58.2587 211.883 58.408C211.936 58.5573 212.032 58.664 212.171 58.728C212.309 58.7813 212.523 58.808 212.811 58.808C212.843 58.808 212.859 58.84 212.859 58.904C212.859 58.968 212.843 59 212.811 59C212.565 59 212.373 58.9947 212.235 58.984L211.371 58.968L210.491 58.984C210.352 58.9947 210.16 59 209.915 59ZM205.611 59C205.579 59 205.563 58.968 205.563 58.904C205.563 58.84 205.579 58.808 205.611 58.808C205.899 58.808 206.112 58.7813 206.251 58.728C206.389 58.664 206.48 58.5573 206.523 58.408C206.576 58.2587 206.603 58.024 206.603 57.704V54.536C206.603 54.1733 206.56 53.912 206.475 53.752C206.389 53.592 206.245 53.512 206.043 53.512C205.872 53.512 205.584 53.592 205.179 53.752H205.147C205.104 53.752 205.072 53.7307 205.051 53.688C205.04 53.6347 205.056 53.5973 205.099 53.576L206.955 52.696C206.976 52.6853 207.008 52.68 207.051 52.68C207.147 52.68 207.248 52.8027 207.355 53.048C207.461 53.2933 207.515 53.608 207.515 53.992V57.704C207.515 58.024 207.536 58.2587 207.579 58.408C207.632 58.5573 207.728 58.664 207.867 58.728C208.005 58.7813 208.219 58.808 208.507 58.808C208.539 58.808 208.555 58.84 208.555 58.904C208.555 58.968 208.539 59 208.507 59C208.261 59 208.069 58.9947 207.931 58.984L207.067 58.968L206.187 58.984C206.048 58.9947 205.856 59 205.611 59ZM214.004 59C213.983 59 213.972 58.968 213.972 58.904C213.972 58.84 213.983 58.808 214.004 58.808C214.292 58.808 214.506 58.7813 214.644 58.728C214.794 58.664 214.895 58.5573 214.948 58.408C215.002 58.2587 215.028 58.024 215.028 57.704V54.712C215.028 54.328 214.986 54.0507 214.9 53.88C214.826 53.7093 214.692 53.624 214.5 53.624C214.308 53.624 214.068 53.6987 213.78 53.848H213.764C213.722 53.848 213.69 53.8213 213.668 53.768C213.647 53.7147 213.652 53.6773 213.684 53.656L215.764 52.696L215.828 52.68C215.85 52.68 215.876 52.696 215.908 52.728C215.94 52.7493 215.956 52.776 215.956 52.808C215.956 52.8827 215.951 53.096 215.94 53.448C215.93 53.8 215.924 54.216 215.924 54.696V57.704C215.924 58.024 215.951 58.2587 216.004 58.408C216.058 58.5573 216.154 58.664 216.292 58.728C216.431 58.7813 216.644 58.808 216.932 58.808C216.964 58.808 216.98 58.84 216.98 58.904C216.98 58.968 216.964 59 216.932 59C216.687 59 216.49 58.9947 216.34 58.984L215.476 58.968L214.612 58.984C214.463 58.9947 214.26 59 214.004 59ZM215.348 50.808C215.135 50.808 214.964 50.7493 214.836 50.632C214.708 50.5147 214.644 50.3493 214.644 50.136C214.644 49.9227 214.708 49.7573 214.836 49.64C214.964 49.5227 215.135 49.464 215.348 49.464C215.562 49.464 215.727 49.5227 215.844 49.64C215.962 49.7573 216.02 49.9227 216.02 50.136C216.02 50.3493 215.962 50.5147 215.844 50.632C215.727 50.7493 215.562 50.808 215.348 50.808ZM220.539 59.192C220.091 59.192 219.723 59.0907 219.435 58.888C219.147 58.6853 219.003 58.3493 219.003 57.88V54.12C219.003 53.8427 218.982 53.6453 218.939 53.528C218.907 53.4107 218.838 53.336 218.731 53.304C218.625 53.2613 218.443 53.24 218.187 53.24C218.145 53.24 218.123 53.208 218.123 53.144C218.123 53.0693 218.145 53.032 218.187 53.032C218.614 53.0213 218.961 52.9093 219.227 52.696C219.494 52.472 219.649 52.1787 219.691 51.816C219.691 51.784 219.734 51.768 219.819 51.768C219.894 51.768 219.931 51.784 219.931 51.816V57.336C219.931 58.2 220.353 58.632 221.195 58.632C221.686 58.632 222.113 58.4827 222.475 58.184L222.507 58.168C222.55 58.168 222.582 58.1947 222.603 58.248C222.625 58.2907 222.619 58.3227 222.587 58.344C222.193 58.6533 221.835 58.872 221.515 59C221.206 59.128 220.881 59.192 220.539 59.192ZM222.091 53.608C221.409 53.4373 220.598 53.352 219.659 53.352V53C220.331 53 221.163 52.9467 222.155 52.84C222.177 52.84 222.198 52.8827 222.219 52.968C222.251 53.0427 222.267 53.128 222.267 53.224C222.267 53.3093 222.246 53.4 222.203 53.496C222.171 53.5813 222.134 53.6187 222.091 53.608Z" fill="#EE8D46" fill-opacity="0.2"/>
<path d="M273.848 59.064C273.539 59.064 273.181 59.048 272.776 59.016C272.627 59.0053 272.435 58.9947 272.2 58.984C271.976 58.9733 271.725 58.968 271.448 58.968L270.36 58.984C270.168 58.9947 269.901 59 269.56 59C269.539 59 269.528 58.968 269.528 58.904C269.528 58.84 269.539 58.808 269.56 58.808C269.965 58.808 270.259 58.7813 270.44 58.728C270.632 58.6747 270.76 58.5733 270.824 58.424C270.899 58.264 270.936 58.024 270.936 57.704V50.296C270.936 49.976 270.904 49.7413 270.84 49.592C270.776 49.4427 270.648 49.3413 270.456 49.288C270.275 49.224 269.981 49.192 269.576 49.192C269.555 49.192 269.544 49.16 269.544 49.096C269.544 49.032 269.555 49 269.576 49L270.376 49.016C270.824 49.0373 271.181 49.048 271.448 49.048C271.853 49.048 272.253 49.032 272.648 49C273.117 48.9787 273.443 48.968 273.624 48.968C274.733 48.968 275.715 49.1813 276.568 49.608C277.421 50.0347 278.083 50.616 278.552 51.352C279.032 52.088 279.272 52.9147 279.272 53.832C279.272 54.8667 279.027 55.784 278.536 56.584C278.056 57.3733 277.4 57.9867 276.568 58.424C275.736 58.8507 274.829 59.064 273.848 59.064ZM273.688 58.824C274.541 58.824 275.299 58.648 275.96 58.296C276.621 57.9333 277.133 57.4053 277.496 56.712C277.869 56.008 278.056 55.1653 278.056 54.184C278.056 53.256 277.88 52.4133 277.528 51.656C277.176 50.8987 276.675 50.3013 276.024 49.864C275.373 49.4267 274.621 49.208 273.768 49.208C273.309 49.208 272.952 49.2347 272.696 49.288C272.451 49.3413 272.269 49.448 272.152 49.608C272.035 49.768 271.976 50.008 271.976 50.328V57.528C271.976 57.848 272.019 58.0987 272.104 58.28C272.2 58.4613 272.371 58.6 272.616 58.696C272.872 58.7813 273.229 58.824 273.688 58.824ZM283.551 59.192C282.932 59.192 282.404 59.048 281.967 58.76C281.53 58.472 281.194 58.0933 280.959 57.624C280.735 57.1547 280.623 56.6533 280.623 56.12C280.623 55.4907 280.772 54.9147 281.071 54.392C281.37 53.8587 281.775 53.4427 282.287 53.144C282.81 52.8347 283.38 52.68 283.999 52.68C284.596 52.68 285.055 52.84 285.375 53.16C285.695 53.48 285.855 53.928 285.855 54.504C285.855 54.6533 285.839 54.76 285.807 54.824C285.786 54.888 285.738 54.92 285.663 54.92H284.767L284.783 54.632C284.783 54.0987 284.666 53.6933 284.431 53.416C284.196 53.1387 283.876 53 283.471 53C282.906 53 282.463 53.224 282.143 53.672C281.834 54.12 281.679 54.7333 281.679 55.512C281.679 56.44 281.898 57.192 282.335 57.768C282.772 58.344 283.386 58.632 284.175 58.632C284.495 58.632 284.767 58.5893 284.991 58.504C285.226 58.4187 285.487 58.2853 285.775 58.104H285.791C285.823 58.104 285.85 58.1253 285.871 58.168C285.903 58.2 285.908 58.232 285.887 58.264C285.162 58.8827 284.383 59.192 283.551 59.192ZM281.375 54.728L285.007 54.664V54.92L281.391 54.936L281.375 54.728ZM289.586 59.192C289.138 59.192 288.77 59.0907 288.482 58.888C288.194 58.6853 288.05 58.3493 288.05 57.88V54.12C288.05 53.8427 288.029 53.6453 287.986 53.528C287.954 53.4107 287.885 53.336 287.778 53.304C287.671 53.2613 287.49 53.24 287.234 53.24C287.191 53.24 287.17 53.208 287.17 53.144C287.17 53.0693 287.191 53.032 287.234 53.032C287.661 53.0213 288.007 52.9093 288.274 52.696C288.541 52.472 288.695 52.1787 288.738 51.816C288.738 51.784 288.781 51.768 288.866 51.768C288.941 51.768 288.978 51.784 288.978 51.816V57.336C288.978 58.2 289.399 58.632 290.242 58.632C290.733 58.632 291.159 58.4827 291.522 58.184L291.554 58.168C291.597 58.168 291.629 58.1947 291.65 58.248C291.671 58.2907 291.666 58.3227 291.634 58.344C291.239 58.6533 290.882 58.872 290.562 59C290.253 59.128 289.927 59.192 289.586 59.192ZM291.138 53.608C290.455 53.4373 289.645 53.352 288.706 53.352V53C289.378 53 290.21 52.9467 291.202 52.84C291.223 52.84 291.245 52.8827 291.266 52.968C291.298 53.0427 291.314 53.128 291.314 53.224C291.314 53.3093 291.293 53.4 291.25 53.496C291.218 53.5813 291.181 53.6187 291.138 53.608ZM292.832 59C292.811 59 292.8 58.968 292.8 58.904C292.8 58.84 292.811 58.808 292.832 58.808C293.12 58.808 293.334 58.7813 293.472 58.728C293.622 58.664 293.723 58.5573 293.776 58.408C293.83 58.2587 293.856 58.024 293.856 57.704V54.712C293.856 54.328 293.814 54.0507 293.728 53.88C293.654 53.7093 293.52 53.624 293.328 53.624C293.136 53.624 292.896 53.6987 292.608 53.848H292.592C292.55 53.848 292.518 53.8213 292.496 53.768C292.475 53.7147 292.48 53.6773 292.512 53.656L294.592 52.696L294.656 52.68C294.678 52.68 294.704 52.696 294.736 52.728C294.768 52.7493 294.784 52.776 294.784 52.808C294.784 52.8827 294.779 53.096 294.768 53.448C294.758 53.8 294.752 54.216 294.752 54.696V57.704C294.752 58.024 294.779 58.2587 294.832 58.408C294.886 58.5573 294.982 58.664 295.12 58.728C295.259 58.7813 295.472 58.808 295.76 58.808C295.792 58.808 295.808 58.84 295.808 58.904C295.808 58.968 295.792 59 295.76 59C295.515 59 295.318 58.9947 295.168 58.984L294.304 58.968L293.44 58.984C293.291 58.9947 293.088 59 292.832 59ZM294.176 50.808C293.963 50.808 293.792 50.7493 293.664 50.632C293.536 50.5147 293.472 50.3493 293.472 50.136C293.472 49.9227 293.536 49.7573 293.664 49.64C293.792 49.5227 293.963 49.464 294.176 49.464C294.39 49.464 294.555 49.5227 294.672 49.64C294.79 49.7573 294.848 49.9227 294.848 50.136C294.848 50.3493 294.79 50.5147 294.672 50.632C294.555 50.7493 294.39 50.808 294.176 50.808ZM296.775 59C296.743 59 296.727 58.968 296.727 58.904C296.727 58.84 296.743 58.808 296.775 58.808C297.063 58.808 297.277 58.7813 297.415 58.728C297.554 58.664 297.65 58.5573 297.703 58.408C297.757 58.248 297.783 58.0133 297.783 57.704V49.432C297.783 49.048 297.746 48.7707 297.671 48.6C297.597 48.4293 297.463 48.344 297.271 48.344C297.111 48.344 296.866 48.4187 296.535 48.568H296.503C296.471 48.568 296.445 48.5413 296.423 48.488C296.402 48.4347 296.413 48.4027 296.455 48.392L298.455 47.416L298.535 47.4C298.567 47.4 298.599 47.416 298.631 47.448C298.663 47.4693 298.679 47.496 298.679 47.528V57.704C298.679 58.024 298.706 58.2587 298.759 58.408C298.813 58.5573 298.909 58.664 299.047 58.728C299.186 58.7813 299.399 58.808 299.687 58.808C299.719 58.808 299.735 58.84 299.735 58.904C299.735 58.968 299.719 59 299.687 59C299.442 59 299.245 58.9947 299.095 58.984L298.231 58.968L297.367 58.984C297.218 58.9947 297.021 59 296.775 59ZM300.791 59C300.77 59 300.759 58.968 300.759 58.904C300.759 58.84 300.77 58.808 300.791 58.808C301.325 58.808 301.591 58.7067 301.591 58.504C301.591 58.408 301.543 58.2907 301.447 58.152L299.415 55.384L300.167 54.84L302.247 57.704C302.781 58.44 303.394 58.808 304.087 58.808C304.119 58.808 304.135 58.84 304.135 58.904C304.135 58.968 304.119 59 304.087 59C303.842 59 303.645 58.9947 303.495 58.984L302.631 58.968L301.479 58.984C301.309 58.9947 301.079 59 300.791 59ZM298.327 56.136L300.823 54.12C301.165 53.8533 301.335 53.6187 301.335 53.416C301.335 53.1493 301.031 53.016 300.423 53.016C300.391 53.016 300.375 52.984 300.375 52.92C300.375 52.856 300.391 52.824 300.423 52.824C300.711 52.824 300.93 52.8293 301.079 52.84L302.247 52.856L303.319 52.84C303.458 52.8293 303.65 52.824 303.895 52.824C303.927 52.824 303.943 52.856 303.943 52.92C303.943 52.984 303.927 53.016 303.895 53.016C303.501 53.016 303.063 53.112 302.583 53.304C302.103 53.496 301.623 53.784 301.143 54.168L298.391 56.328L298.327 56.136Z" fill="white"/>
<path d="M273.848 59.064C273.539 59.064 273.181 59.048 272.776 59.016C272.627 59.0053 272.435 58.9947 272.2 58.984C271.976 58.9733 271.725 58.968 271.448 58.968L270.36 58.984C270.168 58.9947 269.901 59 269.56 59C269.539 59 269.528 58.968 269.528 58.904C269.528 58.84 269.539 58.808 269.56 58.808C269.965 58.808 270.259 58.7813 270.44 58.728C270.632 58.6747 270.76 58.5733 270.824 58.424C270.899 58.264 270.936 58.024 270.936 57.704V50.296C270.936 49.976 270.904 49.7413 270.84 49.592C270.776 49.4427 270.648 49.3413 270.456 49.288C270.275 49.224 269.981 49.192 269.576 49.192C269.555 49.192 269.544 49.16 269.544 49.096C269.544 49.032 269.555 49 269.576 49L270.376 49.016C270.824 49.0373 271.181 49.048 271.448 49.048C271.853 49.048 272.253 49.032 272.648 49C273.117 48.9787 273.443 48.968 273.624 48.968C274.733 48.968 275.715 49.1813 276.568 49.608C277.421 50.0347 278.083 50.616 278.552 51.352C279.032 52.088 279.272 52.9147 279.272 53.832C279.272 54.8667 279.027 55.784 278.536 56.584C278.056 57.3733 277.4 57.9867 276.568 58.424C275.736 58.8507 274.829 59.064 273.848 59.064ZM273.688 58.824C274.541 58.824 275.299 58.648 275.96 58.296C276.621 57.9333 277.133 57.4053 277.496 56.712C277.869 56.008 278.056 55.1653 278.056 54.184C278.056 53.256 277.88 52.4133 277.528 51.656C277.176 50.8987 276.675 50.3013 276.024 49.864C275.373 49.4267 274.621 49.208 273.768 49.208C273.309 49.208 272.952 49.2347 272.696 49.288C272.451 49.3413 272.269 49.448 272.152 49.608C272.035 49.768 271.976 50.008 271.976 50.328V57.528C271.976 57.848 272.019 58.0987 272.104 58.28C272.2 58.4613 272.371 58.6 272.616 58.696C272.872 58.7813 273.229 58.824 273.688 58.824ZM283.551 59.192C282.932 59.192 282.404 59.048 281.967 58.76C281.53 58.472 281.194 58.0933 280.959 57.624C280.735 57.1547 280.623 56.6533 280.623 56.12C280.623 55.4907 280.772 54.9147 281.071 54.392C281.37 53.8587 281.775 53.4427 282.287 53.144C282.81 52.8347 283.38 52.68 283.999 52.68C284.596 52.68 285.055 52.84 285.375 53.16C285.695 53.48 285.855 53.928 285.855 54.504C285.855 54.6533 285.839 54.76 285.807 54.824C285.786 54.888 285.738 54.92 285.663 54.92H284.767L284.783 54.632C284.783 54.0987 284.666 53.6933 284.431 53.416C284.196 53.1387 283.876 53 283.471 53C282.906 53 282.463 53.224 282.143 53.672C281.834 54.12 281.679 54.7333 281.679 55.512C281.679 56.44 281.898 57.192 282.335 57.768C282.772 58.344 283.386 58.632 284.175 58.632C284.495 58.632 284.767 58.5893 284.991 58.504C285.226 58.4187 285.487 58.2853 285.775 58.104H285.791C285.823 58.104 285.85 58.1253 285.871 58.168C285.903 58.2 285.908 58.232 285.887 58.264C285.162 58.8827 284.383 59.192 283.551 59.192ZM281.375 54.728L285.007 54.664V54.92L281.391 54.936L281.375 54.728ZM289.586 59.192C289.138 59.192 288.77 59.0907 288.482 58.888C288.194 58.6853 288.05 58.3493 288.05 57.88V54.12C288.05 53.8427 288.029 53.6453 287.986 53.528C287.954 53.4107 287.885 53.336 287.778 53.304C287.671 53.2613 287.49 53.24 287.234 53.24C287.191 53.24 287.17 53.208 287.17 53.144C287.17 53.0693 287.191 53.032 287.234 53.032C287.661 53.0213 288.007 52.9093 288.274 52.696C288.541 52.472 288.695 52.1787 288.738 51.816C288.738 51.784 288.781 51.768 288.866 51.768C288.941 51.768 288.978 51.784 288.978 51.816V57.336C288.978 58.2 289.399 58.632 290.242 58.632C290.733 58.632 291.159 58.4827 291.522 58.184L291.554 58.168C291.597 58.168 291.629 58.1947 291.65 58.248C291.671 58.2907 291.666 58.3227 291.634 58.344C291.239 58.6533 290.882 58.872 290.562 59C290.253 59.128 289.927 59.192 289.586 59.192ZM291.138 53.608C290.455 53.4373 289.645 53.352 288.706 53.352V53C289.378 53 290.21 52.9467 291.202 52.84C291.223 52.84 291.245 52.8827 291.266 52.968C291.298 53.0427 291.314 53.128 291.314 53.224C291.314 53.3093 291.293 53.4 291.25 53.496C291.218 53.5813 291.181 53.6187 291.138 53.608ZM292.832 59C292.811 59 292.8 58.968 292.8 58.904C292.8 58.84 292.811 58.808 292.832 58.808C293.12 58.808 293.334 58.7813 293.472 58.728C293.622 58.664 293.723 58.5573 293.776 58.408C293.83 58.2587 293.856 58.024 293.856 57.704V54.712C293.856 54.328 293.814 54.0507 293.728 53.88C293.654 53.7093 293.52 53.624 293.328 53.624C293.136 53.624 292.896 53.6987 292.608 53.848H292.592C292.55 53.848 292.518 53.8213 292.496 53.768C292.475 53.7147 292.48 53.6773 292.512 53.656L294.592 52.696L294.656 52.68C294.678 52.68 294.704 52.696 294.736 52.728C294.768 52.7493 294.784 52.776 294.784 52.808C294.784 52.8827 294.779 53.096 294.768 53.448C294.758 53.8 294.752 54.216 294.752 54.696V57.704C294.752 58.024 294.779 58.2587 294.832 58.408C294.886 58.5573 294.982 58.664 295.12 58.728C295.259 58.7813 295.472 58.808 295.76 58.808C295.792 58.808 295.808 58.84 295.808 58.904C295.808 58.968 295.792 59 295.76 59C295.515 59 295.318 58.9947 295.168 58.984L294.304 58.968L293.44 58.984C293.291 58.9947 293.088 59 292.832 59ZM294.176 50.808C293.963 50.808 293.792 50.7493 293.664 50.632C293.536 50.5147 293.472 50.3493 293.472 50.136C293.472 49.9227 293.536 49.7573 293.664 49.64C293.792 49.5227 293.963 49.464 294.176 49.464C294.39 49.464 294.555 49.5227 294.672 49.64C294.79 49.7573 294.848 49.9227 294.848 50.136C294.848 50.3493 294.79 50.5147 294.672 50.632C294.555 50.7493 294.39 50.808 294.176 50.808ZM296.775 59C296.743 59 296.727 58.968 296.727 58.904C296.727 58.84 296.743 58.808 296.775 58.808C297.063 58.808 297.277 58.7813 297.415 58.728C297.554 58.664 297.65 58.5573 297.703 58.408C297.757 58.248 297.783 58.0133 297.783 57.704V49.432C297.783 49.048 297.746 48.7707 297.671 48.6C297.597 48.4293 297.463 48.344 297.271 48.344C297.111 48.344 296.866 48.4187 296.535 48.568H296.503C296.471 48.568 296.445 48.5413 296.423 48.488C296.402 48.4347 296.413 48.4027 296.455 48.392L298.455 47.416L298.535 47.4C298.567 47.4 298.599 47.416 298.631 47.448C298.663 47.4693 298.679 47.496 298.679 47.528V57.704C298.679 58.024 298.706 58.2587 298.759 58.408C298.813 58.5573 298.909 58.664 299.047 58.728C299.186 58.7813 299.399 58.808 299.687 58.808C299.719 58.808 299.735 58.84 299.735 58.904C299.735 58.968 299.719 59 299.687 59C299.442 59 299.245 58.9947 299.095 58.984L298.231 58.968L297.367 58.984C297.218 58.9947 297.021 59 296.775 59ZM300.791 59C300.77 59 300.759 58.968 300.759 58.904C300.759 58.84 300.77 58.808 300.791 58.808C301.325 58.808 301.591 58.7067 301.591 58.504C301.591 58.408 301.543 58.2907 301.447 58.152L299.415 55.384L300.167 54.84L302.247 57.704C302.781 58.44 303.394 58.808 304.087 58.808C304.119 58.808 304.135 58.84 304.135 58.904C304.135 58.968 304.119 59 304.087 59C303.842 59 303.645 58.9947 303.495 58.984L302.631 58.968L301.479 58.984C301.309 58.9947 301.079 59 300.791 59ZM298.327 56.136L300.823 54.12C301.165 53.8533 301.335 53.6187 301.335 53.416C301.335 53.1493 301.031 53.016 300.423 53.016C300.391 53.016 300.375 52.984 300.375 52.92C300.375 52.856 300.391 52.824 300.423 52.824C300.711 52.824 300.93 52.8293 301.079 52.84L302.247 52.856L303.319 52.84C303.458 52.8293 303.65 52.824 303.895 52.824C303.927 52.824 303.943 52.856 303.943 52.92C303.943 52.984 303.927 53.016 303.895 53.016C303.501 53.016 303.063 53.112 302.583 53.304C302.103 53.496 301.623 53.784 301.143 54.168L298.391 56.328L298.327 56.136Z" fill="#EE8D46" fill-opacity="0.2"/>
</svg>
