<svg width="28" height="28" viewBox="0 0 28 28" fill="none" xmlns="http://www.w3.org/2000/svg">
<path d="M16.9166 11.0833H16.9271M17.6505 16.0382C17.4535 16.2282 17.1904 16.3344 16.9166 16.3344C16.6429 16.3344 16.3798 16.2282 16.1828 16.0382C14.3815 14.2917 11.9676 12.3422 13.1448 9.51067C13.4592 8.76923 13.984 8.13623 14.6544 7.68999C15.3248 7.24376 16.1113 7.00387 16.9166 7C18.5243 7 20.0526 7.98 20.6885 9.51067C21.8645 12.3387 19.4565 14.2987 17.6505 16.0382Z" stroke="black" stroke-width="1.75" stroke-linecap="round" stroke-linejoin="round"/>
<path d="M19.8333 24.5L3.49999 8.16669M11.6667 16.3334L4.66666 23.3334M2.91666 14C2.91666 8.77569 2.91666 6.16235 4.53949 4.53952C6.16232 2.91669 8.77449 2.91669 14 2.91669C19.2243 2.91669 21.8377 2.91669 23.4605 4.53952C25.0833 6.16235 25.0833 8.77452 25.0833 14C25.0833 19.2244 25.0833 21.8377 23.4605 23.4605C21.8377 25.0834 19.2255 25.0834 14 25.0834C8.77566 25.0834 6.16232 25.0834 4.53949 23.4605C2.91666 21.8377 2.91666 19.2255 2.91666 14Z" stroke="black" stroke-width="1.75" stroke-linecap="round" stroke-linejoin="round"/>
</svg>
