<svg width="28" height="28" viewBox="0 0 28 28" fill="none" xmlns="http://www.w3.org/2000/svg">
<path d="M25.6667 14C25.6667 7.55998 20.44 2.33331 14 2.33331C7.56001 2.33331 2.33334 7.55998 2.33334 14C2.33334 19.6466 6.34668 24.3483 11.6667 25.4333V17.5H9.33334V14H11.6667V11.0833C11.6667 8.83165 13.4983 6.99998 15.75 6.99998H18.6667V10.5H16.3333C15.6917 10.5 15.1667 11.025 15.1667 11.6666V14H18.6667V17.5H15.1667V25.6083C21.0583 25.025 25.6667 20.055 25.6667 14Z" fill="black"/>
<path d="M25.6667 14C25.6667 7.55998 20.44 2.33331 14 2.33331C7.56001 2.33331 2.33334 7.55998 2.33334 14C2.33334 19.6466 6.34668 24.3483 11.6667 25.4333V17.5H9.33334V14H11.6667V11.0833C11.6667 8.83165 13.4983 6.99998 15.75 6.99998H18.6667V10.5H16.3333C15.6917 10.5 15.1667 11.025 15.1667 11.6666V14H18.6667V17.5H15.1667V25.6083C21.0583 25.025 25.6667 20.055 25.6667 14Z" fill="black" fill-opacity="0.2"/>
</svg>
