<svg width="28" height="28" viewBox="0 0 28 28" fill="none" xmlns="http://www.w3.org/2000/svg">
<path opacity="0.3" d="M4.2 8.39998H23.8V5.59998H4.2V8.39998Z" fill="#D9D9D9"/>
<path d="M23.8 2.8H22.4V0H19.6V2.8H8.4V0H5.6V2.8H4.2C2.646 2.8 1.414 4.06 1.414 5.6L1.4 25.2C1.4 25.9426 1.695 26.6548 2.2201 27.1799C2.7452 27.705 3.4574 28 4.2 28H23.8C25.34 28 26.6 26.74 26.6 25.2V5.6C26.6 4.06 25.34 2.8 23.8 2.8ZM23.8 25.2H4.2V11.2H23.8V25.2ZM23.8 8.4H4.2V5.6H23.8V8.4ZM14 15.4H21V22.4H14V15.4Z" fill="black"/>
</svg>
