<svg width="361" height="798" viewBox="0 0 361 798" fill="none" xmlns="http://www.w3.org/2000/svg">
<path d="M28.2415 0C128.562 0 228.882 0 332.242 0C334.222 5.94 336.202 11.88 338.242 18C345.142 31.2355 345.142 31.2355 356.824 39.8794C359.242 42 359.242 42 359.708 44.1967C359.895 47.3125 359.911 50.3946 359.882 53.516C359.89 54.7246 359.899 55.9331 359.908 57.1783C359.926 60.5543 359.922 63.929 359.909 67.3049C359.9 70.9695 359.919 74.6338 359.936 78.2983C359.96 84.7279 359.965 91.1572 359.959 97.5868C359.949 107.148 359.967 116.709 359.991 126.269C360.036 144.337 360.046 162.404 360.045 180.472C360.045 194.422 360.052 208.372 360.066 222.322C360.07 226.334 360.074 230.345 360.078 234.356C360.079 235.852 360.079 235.852 360.081 237.378C360.108 265.438 360.124 293.497 360.118 321.557C360.118 323.145 360.118 323.145 360.118 324.765C360.117 330.13 360.116 335.496 360.115 340.862C360.114 341.927 360.114 342.993 360.114 344.091C360.113 346.246 360.113 348.401 360.112 350.556C360.105 384.09 360.136 417.623 360.195 451.156C360.262 488.805 360.298 526.455 360.292 564.105C360.291 568.117 360.291 572.13 360.29 576.143C360.29 577.131 360.29 578.119 360.29 579.137C360.288 594.07 360.311 609.003 360.346 623.937C360.385 640.916 360.394 657.896 360.361 674.875C360.343 684.383 360.35 693.891 360.393 703.399C360.419 709.745 360.413 716.091 360.38 722.438C360.362 726.058 360.358 729.676 360.394 733.295C360.432 737.191 360.401 741.085 360.363 744.981C360.385 746.109 360.407 747.236 360.43 748.398C360.276 755.854 360.276 755.854 357.248 759.208C354.985 760.972 352.675 762.485 350.242 764C341.968 772.381 336.762 782.822 333.784 794.137C333.242 796 333.242 796 332.242 797C330.615 797.097 328.984 797.124 327.355 797.123C326.291 797.125 325.226 797.127 324.13 797.129C322.354 797.125 322.354 797.125 320.542 797.12C319.296 797.121 318.05 797.122 316.766 797.123C313.29 797.125 309.815 797.121 306.34 797.116C302.598 797.112 298.857 797.113 295.115 797.114C288.627 797.114 282.139 797.111 275.651 797.106C266.27 797.098 256.89 797.095 247.509 797.094C232.292 797.092 217.074 797.085 201.856 797.075C187.07 797.066 172.283 797.059 157.497 797.055C156.13 797.055 156.13 797.055 154.737 797.054C150.168 797.053 145.599 797.052 141.03 797.05C103.101 797.04 65.171 797.022 27.2415 797C26.761 795.49 26.761 795.49 26.2708 793.949C25.8343 792.603 25.3974 791.256 24.9603 789.91C24.7511 789.25 24.542 788.589 24.3265 787.909C21.3811 778.898 16.3229 767.817 8.05622 762.628C4.5055 760.349 1.74784 758.549 0.402289 754.432C0.0833909 751.256 0.0492362 748.184 0.108933 744.992C0.0893113 743.172 0.0893121 743.172 0.0692942 741.316C0.0420814 737.944 0.0552054 734.577 0.085295 731.206C0.108118 727.541 0.0787897 723.876 0.0561049 720.21C0.0235808 713.785 0.0245961 707.361 0.0475295 700.936C0.0815389 691.383 0.0641852 681.829 0.0366538 672.276C-0.0107721 655.214 -0.00661544 638.152 0.0193656 621.091C0.0419905 606.16 0.0479223 591.229 0.0371611 576.298C0.0364737 575.309 0.0357866 574.319 0.0350783 573.299C0.0322763 569.282 0.0294102 565.264 0.0264399 561.247C-0.00110165 523.546 0.0238864 485.846 0.0723117 448.145C0.115023 414.638 0.111202 381.132 0.0681632 347.625C0.0199892 309.994 0.000851434 272.363 0.0286734 234.732C0.03156 230.722 0.0343756 226.712 0.0371611 222.702C0.0378728 221.714 0.0385851 220.727 0.0393183 219.709C0.0495629 204.787 0.037569 189.864 0.0148451 174.941C-0.0108595 157.976 -0.00451758 141.012 0.0443709 124.047C0.0708407 114.547 0.0724622 105.049 0.0385554 95.5498C0.0184155 89.2091 0.0308573 82.8691 0.0700991 76.5286C0.0915653 72.9126 0.0987194 69.2981 0.0664447 65.6821C0.0320584 61.79 0.0669663 57.9003 0.108933 54.0082C0.0878623 52.8815 0.0667913 51.7548 0.0450823 50.5939C0.206537 43.15 0.206538 43.15 3.21291 39.8095C5.48281 38.0407 7.80529 36.5264 10.2415 35C14.8814 30.8656 17.5783 25.784 20.3665 20.3125C20.6914 19.6777 21.0164 19.0429 21.3511 18.3889C24.3122 12.3381 26.057 6.55346 28.2415 0ZM31.2415 5C28.6015 11.6 25.9615 18.2 23.2415 25C19.286 31.8265 16.2451 36.3477 10.062 41.073C6.27374 44.4464 4.5542 46.5693 3.99031 51.6494C3.93894 53.814 3.94192 55.9803 3.98868 58.145C3.97474 59.3486 3.96081 60.5523 3.94645 61.7924C3.91793 65.1283 3.93407 68.4585 3.96923 71.7939C3.99645 75.4238 3.96556 79.0532 3.94213 82.683C3.90911 89.0424 3.91323 95.401 3.94178 101.76C3.98412 111.217 3.96924 120.672 3.94303 130.129C3.89811 147.017 3.91011 163.905 3.9459 180.793C3.97703 195.571 3.98875 210.348 3.98122 225.126C3.98075 226.106 3.98028 227.086 3.97979 228.096C3.97784 232.073 3.9758 236.051 3.97362 240.028C3.95345 277.346 3.98999 314.664 4.05306 351.981C4.10879 385.146 4.1187 418.311 4.08867 451.476C4.08103 459.969 4.07344 468.463 4.06633 476.956C4.06545 478.002 4.06458 479.047 4.06368 480.125C4.04121 507.827 4.05589 535.53 4.08209 563.232C4.08487 566.212 4.08763 569.192 4.09037 572.173C4.09219 574.15 4.09403 576.127 4.09591 578.104C4.10951 592.874 4.10417 607.645 4.09001 622.416C4.07409 639.207 4.08716 655.998 4.13836 672.789C4.16625 682.191 4.17213 691.591 4.14649 700.993C4.1316 707.268 4.14568 713.543 4.18361 719.818C4.20443 723.397 4.21255 726.974 4.18565 730.553C4.15701 734.405 4.18997 738.255 4.22919 742.107C4.21103 743.222 4.19287 744.337 4.17416 745.485C4.26027 751.25 4.26027 751.25 6.96686 756.168C8.97996 757.939 11.0487 759.461 13.2415 761C22.072 769.113 26.5176 780.828 30.2415 792C129.242 792 228.242 792 330.242 792C331.892 787.38 333.542 782.76 335.242 778C344.756 760.028 344.756 760.028 352.31 756.612C355.628 753.656 355.7 753.183 356.001 748.976C356.036 746.812 356.037 744.646 356.013 742.481C356.024 741.285 356.034 740.088 356.045 738.855C356.068 735.517 356.065 732.18 356.05 728.842C356.04 725.217 356.065 721.592 356.085 717.967C356.116 711.608 356.124 705.249 356.118 698.889C356.109 689.433 356.134 679.977 356.165 670.52C356.224 652.649 356.24 634.778 356.244 616.906C356.247 603.106 356.259 589.305 356.278 575.504C356.283 571.535 356.289 567.565 356.294 563.596C356.295 562.609 356.297 561.622 356.298 560.606C356.335 532.839 356.359 505.073 356.356 477.306C356.356 476.259 356.356 475.211 356.356 474.132C356.355 468.823 356.355 463.514 356.354 458.205C356.354 456.623 356.354 456.623 356.354 455.01C356.353 452.878 356.353 450.745 356.353 448.613C356.349 415.442 356.394 382.271 356.476 349.1C356.569 311.849 356.62 274.599 356.615 237.348C356.614 233.376 356.614 229.404 356.614 225.433C356.614 224.455 356.614 223.477 356.613 222.469C356.613 206.724 356.652 190.979 356.703 175.234C356.754 159.41 356.76 143.586 356.721 127.762C356.698 118.359 356.709 108.958 356.768 99.5547C356.804 93.273 356.797 86.9923 356.753 80.7106C356.73 77.1311 356.726 73.5543 356.774 69.975C357.713 55.2489 357.713 55.2489 352.625 42.0634C350.591 40.0264 348.683 38.6715 346.242 37.0688C336.498 30.3501 333.019 15.072 329.242 5C230.902 5 132.562 5 31.2415 5Z" fill="#C38310"/>
</svg>
