<svg width="28" height="28" viewBox="0 0 28 28" fill="none" xmlns="http://www.w3.org/2000/svg">
<path d="M24.4 16.8C22.2186 16.8 20.1763 17.444 18.4291 18.5626C19.9845 20.521 21.192 22.7709 21.9911 25.2H24.4V16.8ZM19.2052 25.2C16.6572 18.6228 10.6304 14 3.6 14V25.2H19.2052ZM3.6 11.2C8.579 11.2 13.1199 13.209 16.5662 16.5144C18.893 14.8695 21.6166 13.9953 24.4 14V2.8H25.7104C26.4228 2.8 27 3.423 27 4.1902V26.6098C26.9976 26.9775 26.861 27.3294 26.6197 27.5895C26.3784 27.8496 26.0518 27.9971 25.7104 28H2.2896C1.94746 27.9996 1.61945 27.853 1.37764 27.5923C1.13583 27.3317 1 26.9783 1 26.6098V4.1902C1.00238 3.82253 1.13897 3.47062 1.38027 3.2105C1.62156 2.95039 1.94819 2.80293 2.2896 2.8H6.2V0H8.8V5.6H3.6V11.2ZM21.8 0V5.6H11.4V2.8H19.2V0H21.8ZM19.85 12.6C19.3328 12.6 18.8368 12.3788 18.4711 11.9849C18.1054 11.5911 17.9 11.057 17.9 10.5C17.9 9.94305 18.1054 9.4089 18.4711 9.01508C18.8368 8.62125 19.3328 8.4 19.85 8.4C20.3672 8.4 20.8632 8.62125 21.2289 9.01508C21.5946 9.4089 21.8 9.94305 21.8 10.5C21.8 11.057 21.5946 11.5911 21.2289 11.9849C20.8632 12.3788 20.3672 12.6 19.85 12.6Z" fill="black"/>
</svg>
