<svg width="28" height="30" viewBox="0 0 28 30" fill="none" xmlns="http://www.w3.org/2000/svg">
<path d="M16.4 27.8462H11.6C7.0748 27.8462 4.8116 27.8462 3.4064 26.2927C2.0012 24.7393 2 22.2409 2 17.2426V14.5917C2 9.59347 2 7.09368 3.4064 5.54159C4.8128 3.98949 7.0748 3.98817 11.6 3.98817H16.4C20.9252 3.98817 23.1884 3.98817 24.5936 5.54159C25.9988 7.09501 26 9.59347 26 14.5917V17.2426C26 22.2409 26 24.7406 24.5936 26.2927C23.81 27.1596 22.76 27.5426 21.2 27.711M8 3.98817V2M20 3.98817V2M25.4 10.6154H12.5M2 10.6154H6.65" stroke="black" stroke-width="1.75" stroke-linecap="round"/>
<path d="M20.6167 21.219C20.6167 21.4335 20.539 21.6289 20.4161 21.7647C20.295 21.8985 20.1438 21.9611 20 21.9611C19.8562 21.9611 19.7051 21.8985 19.5839 21.7647C19.461 21.6289 19.3834 21.4335 19.3834 21.219C19.3834 21.0044 19.461 20.809 19.5839 20.6732C19.7051 20.5394 19.8562 20.4768 20 20.4768C20.1438 20.4768 20.295 20.5394 20.4161 20.6732C20.539 20.809 20.6167 21.0044 20.6167 21.219ZM13.5839 16.4629L13.1515 16.8544L13.5839 16.4629C13.461 16.3272 13.3834 16.1317 13.3834 15.9172C13.3834 15.7027 13.461 15.5072 13.5839 15.3715C13.7051 15.2376 13.8562 15.1751 14 15.1751C14.1438 15.1751 14.295 15.2376 14.4161 15.3715C14.539 15.5072 14.6167 15.7027 14.6167 15.9172C14.6167 16.1317 14.539 16.3272 14.4161 16.4629C14.295 16.5967 14.1438 16.6593 14 16.6593C13.8562 16.6593 13.7051 16.5967 13.5839 16.4629ZM20.6167 15.9172C20.6167 16.1317 20.539 16.3272 20.4161 16.4629C20.295 16.5967 20.1438 16.6593 20 16.6593C19.8562 16.6593 19.7051 16.5967 19.5839 16.4629C19.461 16.3272 19.3834 16.1317 19.3834 15.9172C19.3834 15.7027 19.461 15.5072 19.5839 15.3715C19.7051 15.2376 19.8562 15.1751 20 15.1751C20.1438 15.1751 20.295 15.2376 20.4161 15.3715C20.539 15.5072 20.6167 15.7027 20.6167 15.9172ZM14.6167 21.219C14.6167 21.4335 14.539 21.6289 14.4161 21.7647C14.295 21.8985 14.1438 21.9611 14 21.9611C13.8562 21.9611 13.7051 21.8985 13.5839 21.7647C13.461 21.6289 13.3834 21.4335 13.3834 21.219C13.3834 21.0044 13.461 20.809 13.5839 20.6732C13.7051 20.5394 13.8562 20.4768 14 20.4768C14.1438 20.4768 14.295 20.5394 14.4161 20.6732C14.539 20.809 14.6167 21.0044 14.6167 21.219ZM8.61669 21.219C8.61669 21.4335 8.53901 21.6289 8.41611 21.7647C8.29496 21.8985 8.1438 21.9611 8.00002 21.9611C7.85624 21.9611 7.70508 21.8985 7.58392 21.7647C7.46103 21.6289 7.38335 21.4335 7.38335 21.219C7.38335 21.0044 7.46103 20.809 7.58392 20.6732C7.70508 20.5394 7.85624 20.4768 8.00002 20.4768C8.1438 20.4768 8.29496 20.5394 8.41611 20.6732C8.53901 20.809 8.61669 21.0044 8.61669 21.219ZM8.61669 15.9172C8.61669 16.1317 8.53901 16.3272 8.41611 16.4629C8.29496 16.5967 8.14379 16.6593 8.00002 16.6593C7.85624 16.6593 7.70508 16.5967 7.58392 16.4629C7.46103 16.3272 7.38335 16.1317 7.38335 15.9172C7.38335 15.7027 7.46103 15.5072 7.58392 15.3715C7.70508 15.2376 7.85624 15.1751 8.00002 15.1751C8.14379 15.1751 8.29496 15.2376 8.41611 15.3715C8.53901 15.5072 8.61669 15.7027 8.61669 15.9172Z" stroke="black" stroke-width="1.16667"/>
</svg>
