<svg width="393" height="852" viewBox="0 0 393 852" fill="none" xmlns="http://www.w3.org/2000/svg">
<path d="M0 0C129.69 0 259.38 0 393 0C393 281.121 393 562.242 393 851.882C263.31 851.882 133.62 851.882 0 851.882C0 570.761 0 289.64 0 0ZM35 9.68048C34.7233 11.7381 34.4796 13.8009 34.25 15.8652C32.4879 28.482 28.5397 40.8165 19.0195 49.0368C14.6339 52.1847 11.3413 53.2146 6 54.856C6 300.837 6 546.818 6 800.253C9.63 801.672 13.26 803.092 17 804.555C27.039 811.99 31.3013 823.273 34 835.748C34.495 840.007 34.495 840.007 35 844.353C141.59 844.353 248.18 844.353 358 844.353C359.32 838.673 360.64 832.994 362 827.143C365.88 817.431 368.836 810.495 377 804.555C380.63 803.135 384.26 801.715 388 800.253C388 554.272 388 308.291 388 54.856C385.03 53.7912 382.06 52.7263 379 51.6292C369.024 45.738 364.032 35.6666 360.706 24.3446C359.912 21.16 359.399 17.9944 358.914 14.7392C358.741 13.5873 358.568 12.4355 358.389 11.2487C358.261 10.3762 358.132 9.50378 358 8.60487C316.996 8.58027 275.992 8.56131 234.988 8.54994C230.153 8.5486 225.317 8.5472 220.482 8.54578C219.519 8.5455 218.556 8.54522 217.564 8.54493C201.955 8.54024 186.345 8.53176 170.736 8.52188C154.731 8.51184 138.727 8.50585 122.723 8.50366C112.839 8.50219 102.955 8.4975 93.0712 8.48879C86.3031 8.48313 79.535 8.48138 72.7668 8.48278C68.8559 8.48348 64.945 8.48238 61.0341 8.47665C56.8043 8.4705 52.5745 8.47257 48.3446 8.47552C47.0946 8.47239 45.8447 8.46925 44.5568 8.46603C42.8714 8.46924 42.8714 8.46924 41.1518 8.47252C39.6852 8.4719 39.6852 8.4719 38.1889 8.47128C36.0231 8.34132 36.0231 8.34132 35 9.68048ZM7 10.7561C7 22.4695 7 34.1828 7 46.2512C17.2481 42.1176 21.4758 37.9089 26 27.344C28.2652 21.4431 29 17.2102 29 10.7561C21.74 10.7561 14.48 10.7561 7 10.7561ZM365 10.7561C365 20.9327 367.768 30.7641 374 38.7219C374.66 38.7219 375.32 38.7219 376 38.7219C376 39.4318 376 40.1417 376 40.8731C377.645 41.772 379.291 42.6678 380.938 43.5621C382.312 44.3109 382.312 44.3109 383.715 45.0747C385.728 46.3286 385.728 46.3286 387 46.2512C387 34.5378 387 22.8244 387 10.7561C379.74 10.7561 372.48 10.7561 365 10.7561ZM7 809.933C7 821.292 7 832.65 7 844.353C14.26 844.353 21.52 844.353 29 844.353C27.7898 831.336 24.5954 820.813 15.0898 812.231C12.5005 810.558 12.5005 810.558 7 809.933ZM375.867 815.109C368.343 823.48 365 832.781 365 844.353C372.26 844.353 379.52 844.353 387 844.353C387 832.639 387 820.926 387 808.857C383.047 808.857 378.748 812.476 375.867 815.109Z" fill="#E1A81F"/>
<path d="M45 27.9658C145.32 27.9658 245.64 27.9658 349 27.9658C351.31 34.7099 353.62 41.4539 356 48.4024C361.254 57.3727 367.005 65.2089 376 69.9145C376.189 137.986 376.363 206.057 376.466 274.128C376.467 275.135 376.469 276.142 376.47 277.18C376.503 299.067 376.534 320.955 376.562 342.842C376.575 353.576 376.59 364.309 376.604 375.042C376.606 376.11 376.607 377.178 376.609 378.279C376.656 412.911 376.738 447.543 376.839 482.176C376.943 517.759 377.011 553.342 377.033 588.926C377.036 593.95 377.04 598.973 377.044 603.997C377.044 604.986 377.045 605.975 377.046 606.993C377.059 622.922 377.11 638.85 377.175 654.779C377.24 670.785 377.265 686.791 377.249 702.797C377.24 712.312 377.263 721.825 377.329 731.34C377.37 737.693 377.371 744.045 377.34 750.399C377.324 754.022 377.33 757.64 377.374 761.263C377.63 783.97 377.63 783.969 373.556 788.726C370.76 790.93 368.18 792.359 365 793.799C358.989 800.636 355.283 808.828 352 817.462C351.01 819.947 350.02 822.432 349 824.992C248.35 824.992 147.7 824.992 44 824.992C42.02 819.312 40.04 813.633 38 807.782C31.0371 795.518 31.0371 795.518 20.4159 787.415C18 785.194 18 785.194 17.533 782.977C17.3447 779.857 17.3266 776.777 17.3541 773.65C17.345 772.441 17.336 771.233 17.3266 769.987C17.3021 765.894 17.3137 761.802 17.3248 757.709C17.3175 754.762 17.3027 751.815 17.2883 748.868C17.2609 742.439 17.2524 736.01 17.256 729.58C17.2613 720.019 17.2384 710.459 17.2099 700.898C17.1574 682.831 17.1395 664.763 17.133 646.696C17.128 632.745 17.1153 618.793 17.0973 604.842C17.0923 600.831 17.0872 596.819 17.0822 592.807C17.081 591.809 17.0797 590.812 17.0785 589.785C17.0438 561.72 17.0205 533.656 17.0195 505.592C17.0194 504.534 17.0194 503.475 17.0193 502.384C17.0191 497.018 17.0189 491.651 17.0188 486.285C17.0188 485.219 17.0187 484.153 17.0187 483.055C17.0186 480.9 17.0186 478.744 17.0185 476.589C17.0175 443.055 16.9729 409.521 16.8956 375.987C16.8088 338.333 16.7592 300.68 16.7617 263.027C16.7618 259.013 16.7618 255 16.7617 250.986C16.7617 249.998 16.7617 249.009 16.7617 247.991C16.7606 232.072 16.724 216.153 16.6751 200.233C16.6269 184.238 16.6196 168.244 16.654 152.249C16.6732 142.741 16.6619 133.235 16.607 123.727C16.5733 117.379 16.5795 111.032 16.6183 104.683C16.6393 101.063 16.6368 97.4478 16.5979 93.8275C16.3701 71.1164 16.3701 71.1164 20.5043 66.3538C23.2812 64.1752 25.8435 62.726 29 61.3097C29.33 60.5998 29.66 59.8899 30 59.1585C30.66 59.1585 31.32 59.1585 32 59.1585C32.3732 58.3494 32.3732 58.3494 32.754 57.524C33.7711 55.3463 34.8023 53.1781 35.8399 51.0116C36.5393 49.5369 37.2385 48.0621 37.9375 46.5873C38.2849 45.867 38.6324 45.1467 38.9903 44.4046C41.5694 38.9347 43.1556 33.9176 45 27.9658ZM48 33.3439C45.36 39.733 42.72 46.1221 40 52.7048C35.5077 60.6116 29.9361 68.8733 22 73.1414C21.8458 140.612 21.7027 208.083 21.619 275.554C21.6177 276.553 21.6165 277.551 21.6152 278.579C21.5883 300.272 21.5633 321.965 21.5405 343.658C21.5292 354.295 21.5176 364.933 21.5057 375.571C21.5045 376.629 21.5033 377.688 21.5021 378.779C21.4637 413.106 21.3961 447.432 21.3134 481.759C21.2285 517.027 21.1731 552.295 21.1548 587.564C21.1522 592.542 21.1493 597.521 21.1462 602.5C21.1455 603.48 21.1449 604.46 21.1443 605.469C21.1337 621.258 21.0919 637.047 21.0386 652.835C20.9856 668.699 20.9653 684.563 20.9785 700.427C20.9854 709.858 20.967 719.288 20.9129 728.719C20.8792 735.016 20.878 741.311 20.9036 747.607C20.9172 751.198 20.9115 754.786 20.8761 758.377C20.8402 762.243 20.8593 766.105 20.8926 769.971C20.869 771.088 20.8453 772.206 20.821 773.357C20.9113 777.97 21.0087 780.813 23.9926 784.287C26.2589 786.186 28.5769 787.842 31 789.497C39.152 798.251 43.4063 809.093 47 820.689C145.67 820.689 244.34 820.689 346 820.689C347.98 816.075 349.96 811.46 352 806.706C355.845 798.323 360.985 788.826 369.101 784.689C372.336 781.652 372.446 781.245 372.753 776.902C372.786 774.736 372.784 772.569 372.758 770.403C372.767 769.205 372.776 768.007 372.785 766.772C372.808 762.723 372.788 758.674 372.769 754.624C372.773 751.706 372.786 748.788 372.799 745.869C372.822 739.506 372.823 733.142 372.81 726.779C372.789 717.316 372.803 707.854 372.823 698.391C372.859 681.493 372.86 664.594 372.846 647.696C372.834 632.907 372.832 618.118 372.842 603.328C372.842 602.349 372.843 601.369 372.844 600.359C372.846 596.381 372.849 592.403 372.851 588.426C372.875 551.088 372.862 513.751 372.835 476.414C372.811 443.226 372.82 410.039 372.858 376.851C372.9 339.586 372.919 302.322 372.903 265.057C372.901 261.086 372.899 257.115 372.898 253.144C372.897 251.677 372.897 251.677 372.897 250.18C372.891 235.4 372.903 220.62 372.924 205.84C372.947 189.036 372.946 172.233 372.912 155.429C372.893 146.019 372.894 136.61 372.923 127.2C372.94 120.92 372.932 114.64 372.903 108.359C372.887 104.777 372.886 101.197 372.908 97.6145C372.93 93.7594 372.91 89.9072 372.878 86.0523C372.895 84.935 372.912 83.8177 372.929 82.6665C372.87 76.9634 372.87 76.9634 370.453 72.0557C367.176 68.7712 367.176 68.7712 363 67.7633C362.727 67.1311 362.453 66.4988 362.172 65.8474C361.034 63.531 359.786 61.7209 358.25 59.6963C352.595 51.7244 349.254 42.6766 346 33.3439C247.66 33.3439 149.32 33.3439 48 33.3439Z" fill="#B27405"/>
<path d="M0 0C129.69 0 259.38 0 393 0C393 281.121 393 562.242 393 851.882C281.79 851.882 170.58 851.882 56 851.882C56 851.527 56 851.172 56 850.806C71.4178 849.657 86.7967 849.602 102.246 849.657C105.812 849.668 109.378 849.672 112.943 849.677C119.034 849.686 125.125 849.697 131.215 849.711C147.176 849.746 163.137 849.756 179.098 849.76C180.29 849.76 180.29 849.76 181.506 849.761C210.881 849.769 240.252 849.621 269.625 849.26C270.596 849.248 271.566 849.236 272.567 849.224C302.714 848.852 332.86 848.359 363 847.579C362.67 847.224 362.34 846.869 362 846.504C361.934 838.522 363.54 832.003 367 824.992C367.66 824.992 368.32 824.992 369 824.992C368.795 825.758 368.59 826.525 368.379 827.315C367.975 828.86 367.975 828.86 367.562 830.437C367.296 831.448 367.029 832.458 366.754 833.5C365.945 837.067 365.483 840.718 365 844.353C372.59 844.353 380.18 844.353 388 844.353C388 845.772 388 847.192 388 848.655C388.99 848.655 389.98 848.655 391 848.655C391 569.664 391 290.672 391 3.22683C262.3 3.22683 133.6 3.22683 1 3.22683C0.67 2.16197 0.34 1.09712 0 0Z" fill="#9B5F00"/>
<path d="M4 54.856C4.66 54.856 5.32 54.856 6 54.856C6 300.837 6 546.818 6 800.253C8.31 800.608 10.62 800.963 13 801.328C22.583 806.013 28.1309 814.526 31.875 824.79C32.6151 826.996 33.3279 829.214 34 831.445C34.2088 832.115 34.4177 832.785 34.6328 833.475C35.2103 837.049 35 840.724 35 844.353C141.92 843.998 248.84 843.643 359 843.277C359.33 844.697 359.66 846.117 360 847.579C318.521 847.678 277.041 847.754 235.562 847.799C230.669 847.805 225.776 847.81 220.883 847.816C219.908 847.817 218.934 847.818 217.931 847.819C202.141 847.838 186.352 847.872 170.563 847.911C154.371 847.952 138.179 847.975 121.987 847.984C111.989 847.99 101.992 848.009 91.9946 848.044C85.1461 848.066 78.2977 848.073 71.4492 848.068C67.4933 848.065 63.5378 848.069 59.582 848.092C55.9641 848.113 52.3467 848.114 48.7288 848.1C46.7924 848.097 44.856 848.115 42.9197 848.135C41.2073 848.122 41.2073 848.122 39.4604 848.109C38.4712 848.11 37.4821 848.112 36.4629 848.114C34 847.579 34 847.579 32.2837 845.462C31.8601 844.741 31.4365 844.02 31 843.277C30.34 842.922 29.68 842.567 29 842.201C28.3672 839.743 28.3672 839.743 27.875 836.756C27.7074 835.767 27.5398 834.779 27.3672 833.76C27.246 832.996 27.1248 832.232 27 831.445C27.99 831.8 28.98 832.155 30 832.521C27.1567 822.095 22.9614 815.586 15 808.857C14.34 808.503 13.68 808.148 13 807.782C13 807.072 13 806.362 13 805.631C10.03 804.921 7.06 804.211 4 803.479C4 556.434 4 309.388 4 54.856Z" fill="#A26901"/>
<path d="M3 4.30243C12.9 4.30243 22.8 4.30243 33 4.30243C33 5.01234 33 5.72224 33 6.45365C33.66 6.45365 34.32 6.45365 35 6.45365C35 7.16355 35 7.87345 35 8.60487C34.34 8.60487 33.68 8.60487 33 8.60487C32.951 9.53939 32.902 10.4739 32.8516 11.4367C32.7768 12.6763 32.702 13.9159 32.625 15.193C32.5554 16.4159 32.4858 17.6388 32.4141 18.8988C32.0046 22.5472 31.1138 25.5822 30 29.0414C29.9072 31.0713 29.9072 31.0713 29.8125 33.1422C29.1201 40.1973 24.0727 45.2604 19.4375 49.8813C13.6981 53.9969 11.2538 54.856 4 54.856C4 301.902 4 548.947 4 803.479C6.97 804.189 9.94 804.899 13 805.631C13 806.341 13 807.05 13 807.782C13.7425 808.061 14.485 808.339 15.25 808.626C22.9338 812.277 26.9807 819.715 30.2852 827.664C31.0457 830.543 30.9558 831.905 30 834.672C26.9883 831.062 24.6739 827.705 22.625 823.378C18.8144 815.759 14.5998 812.658 7 809.933C7 821.292 7 832.65 7 844.353C14.26 844.353 21.52 844.353 29 844.353C29 843.643 29 842.933 29 842.201C30.32 842.201 31.64 842.201 33 842.201C33.33 843.621 33.66 845.041 34 846.504C141.58 846.859 249.16 847.214 360 847.579C359.34 845.805 358.68 844.03 358 842.201C358.829 829.506 363.802 815.775 372.5 807.042C377.539 802.738 382.331 799.6 389 800.253C389 801.317 389 802.382 389 803.479C388.34 804.189 387.68 804.899 387 805.631C387 806.341 387 807.05 387 807.782C387.66 807.782 388.32 807.782 389 807.782C389.33 807.072 389.66 806.362 390 805.631C390 818.764 390 831.897 390 845.428C387.982 841.088 387.721 839.144 387.621 834.428C387.587 833.142 387.553 831.855 387.518 830.529C387.478 828.52 387.478 828.52 387.438 826.471C387.378 823.812 387.314 821.154 387.246 818.496C387.222 817.318 387.198 816.14 387.174 814.926C387.173 812.109 387.173 812.109 386 809.933C378.988 813.109 373.486 817.493 370 824.992C369.01 825.347 368.02 825.702 367 826.067C364.056 832.645 363.046 839.21 363 846.504C363.33 847.214 363.66 847.924 364 848.655C244.87 848.655 125.74 848.655 3 848.655C3 570.019 3 291.382 3 4.30243ZM7 10.7561C7 22.4695 7 34.1828 7 46.2512C17.2481 42.1176 21.4758 37.9089 26 27.344C28.2652 21.4431 29 17.2102 29 10.7561C21.74 10.7561 14.48 10.7561 7 10.7561Z" fill="#CFA123"/>
<path d="M349 38.7219C352.293 40.493 353.13 44.3992 354.625 47.8646C359.053 57.7406 364.206 65.2228 373 70.9902C374.189 73.5488 374.125 75.0912 374.124 77.9467C374.128 79.4757 374.128 79.4757 374.131 81.0356C374.128 82.1654 374.126 83.2952 374.123 84.4593C374.124 85.6567 374.125 86.8541 374.127 88.0878C374.129 92.1482 374.125 96.2086 374.12 100.269C374.12 103.19 374.122 106.111 374.123 109.033C374.125 115.408 374.123 121.784 374.119 128.16C374.113 137.641 374.113 147.122 374.114 156.603C374.115 172.549 374.112 188.495 374.106 204.441C374.1 220.237 374.096 236.032 374.095 251.827C374.095 252.808 374.095 253.789 374.095 254.8C374.094 259.782 374.094 264.764 374.094 269.746C374.092 305.06 374.085 340.373 374.075 375.687C374.066 410 374.059 444.313 374.055 478.626C374.055 479.683 374.055 480.741 374.055 481.83C374.053 492.446 374.052 503.062 374.051 513.677C374.048 535.304 374.045 556.932 374.042 578.559C374.042 579.553 374.042 580.547 374.042 581.572C374.033 648.012 374.017 714.452 374 780.892C373.34 780.892 372.68 780.892 372 780.892C372 780.279 372.001 779.667 372.001 779.036C372.042 712.373 372.073 645.711 372.053 579.048C372.052 577.555 372.052 577.555 372.052 576.032C372.045 554.402 372.037 532.773 372.026 511.143C372.021 500.536 372.017 489.929 372.012 479.322C372.012 478.267 372.011 477.211 372.011 476.124C371.996 441.894 372.008 407.664 372.033 373.434C372.059 338.267 372.058 303.099 372.025 267.932C372.02 262.968 372.015 258.004 372.011 253.04C372.01 252.063 372.01 251.086 372.009 250.079C371.996 234.334 372.011 218.59 372.036 202.845C372.06 187.027 372.056 171.209 372.022 155.39C372.002 145.985 372.005 136.581 372.04 127.176C372.061 120.899 372.053 114.622 372.022 108.344C372.005 104.764 372.005 101.185 372.031 97.6046C372.057 93.7509 372.035 89.901 372 86.0475C372.019 84.9307 372.039 83.8139 372.059 82.6633C371.998 76.8827 371.998 76.8827 369.234 72.1463C367.218 70.5207 365.161 69.1506 363 67.7633C356.946 61.065 349.264 51.2296 348.844 41.5958C348.895 40.6474 348.947 39.699 349 38.7219Z" fill="#EDAC22"/>
<path d="M33 4.30243C139.92 4.30243 246.84 4.30243 357 4.30243C357 5.72224 357 7.14204 357 8.60487C251.07 8.95982 145.14 9.31477 36 9.68048C35.34 14.2948 34.68 18.9092 34 23.6634C32.9297 27.6171 32.9297 27.6171 31.875 30.4532C31.5218 31.4251 31.1686 32.3971 30.8047 33.3985C30.5391 34.0904 30.2736 34.7822 30 35.4951C29.67 35.4951 29.34 35.4951 29 35.4951C29.754 26.4112 31.3783 17.546 33 8.60487C33.66 8.60487 34.32 8.60487 35 8.60487C35 7.89497 35 7.18506 35 6.45365C34.34 6.45365 33.68 6.45365 33 6.45365C33 5.74375 33 5.03385 33 4.30243Z" fill="#C37A02"/>
<path d="M2 4.30243C2.33 4.30243 2.66 4.30243 3 4.30243C3 282.939 3 561.575 3 848.655C104.97 848.655 206.94 848.655 312 848.655C312 849.01 312 849.365 312 849.731C298.938 849.928 285.875 850.104 272.812 850.268C271.279 850.288 271.279 850.288 269.715 850.308C239.442 850.687 209.173 850.852 178.898 850.84C178.108 850.84 177.318 850.839 176.504 850.839C160.633 850.833 144.761 850.817 128.889 850.781C122.844 850.768 116.799 850.758 110.754 850.75C107.235 850.745 103.717 850.738 100.198 850.725C86.7941 850.678 73.4577 850.75 60.0773 851.638C54.0185 852.029 47.9624 852.017 41.8945 851.987C40.6784 851.985 39.4623 851.984 38.2094 851.982C34.4104 851.976 30.6115 851.963 26.8125 851.949C24.2012 851.944 21.5898 851.939 18.9785 851.934C12.6523 851.923 6.32617 851.905 0 851.882C0 850.817 0 849.752 0 848.655C0.66 848.655 1.32 848.655 2 848.655C2 570.019 2 291.382 2 4.30243Z" fill="#C78202"/>
<path d="M362 6.45365C369.92 6.45365 377.84 6.45365 386 6.45365C386 7.87345 386 9.29326 386 10.7561C379.07 10.7561 372.14 10.7561 365 10.7561C367.051 22.7441 367.051 22.7441 371.914 33.5918C373 35.4951 373 35.4951 374 38.7219C374.66 38.7219 375.32 38.7219 376 38.7219C376 39.4318 376 40.1417 376 40.8731C376.681 41.1615 377.361 41.4499 378.062 41.747C381.397 43.197 384.697 44.7188 388 46.2512C388 47.316 388 48.3809 388 49.478C382.238 49.9738 379.452 49.1491 375 45.1756C372.892 42.7528 370.915 40.2467 369 37.6463C371.639 43.3226 375.612 48.1335 381.234 50.3645C383.137 50.8762 385.068 51.2646 387 51.6292C387 52.3391 387 53.049 387 53.7804C387.99 53.7804 388.98 53.7804 390 53.7804C390 299.406 390 545.032 390 798.101C389.67 798.101 389.34 798.101 389 798.101C388.67 552.83 388.34 307.559 388 54.856C385.36 54.5011 382.72 54.1461 380 53.7804C369.874 48.3164 364.141 37.5888 360.312 26.6213C358.553 20.7469 358.28 14.7361 358 8.60487C358.99 8.24992 359.98 7.89497 361 7.52926C361.33 8.59411 361.66 9.65896 362 10.7561C362.66 10.7561 363.32 10.7561 364 10.7561C364 10.0462 364 9.33628 364 8.60487C363.34 8.60487 362.68 8.60487 362 8.60487C362 7.89497 362 7.18506 362 6.45365Z" fill="#D68303"/>
<path d="M366 789.497C366.66 789.851 367.32 790.206 368 790.572C367.273 791.321 367.273 791.321 366.531 792.085C358.058 801.479 353.732 813.115 349 824.992C248.35 824.992 147.7 824.992 44 824.992C42 818.538 42 818.538 42.1875 815.042C41.9219 809.328 39.5765 805.172 37 800.253C37.99 800.253 38.98 800.253 40 800.253C40.9884 802.444 41.9653 804.641 42.9375 806.841C43.4828 808.064 44.028 809.287 44.5898 810.547C46 814.236 46 814.236 47 820.689C146 820.689 245 820.689 347 820.689C348.32 817.14 349.64 813.59 351 809.933C354.834 802.442 359.291 794.308 366 789.497Z" fill="#AB6F06"/>
<path d="M389 800.253C389 801.317 389 802.382 389 803.479C388.34 804.189 387.68 804.899 387 805.631C387 806.341 387 807.05 387 807.782C387.66 807.782 388.32 807.782 389 807.782C389.33 807.072 389.66 806.362 390 805.631C390 818.764 390 831.897 390 845.428C387.982 841.088 387.721 839.144 387.621 834.428C387.587 833.142 387.553 831.855 387.518 830.529C387.478 828.52 387.478 828.52 387.438 826.471C387.378 823.812 387.314 821.154 387.246 818.496C387.222 817.318 387.198 816.14 387.174 814.926C387.173 812.109 387.173 812.109 386 809.933C378.988 813.109 373.486 817.493 370 824.992C369.01 825.347 368.02 825.702 367 826.067C364.056 832.645 363.046 839.21 363 846.504C363.33 847.214 363.66 847.924 364 848.655C318.427 848.729 272.854 848.786 227.281 848.82C221.906 848.824 216.531 848.828 211.156 848.832C210.086 848.833 209.016 848.834 207.913 848.835C190.565 848.849 173.216 848.874 155.868 848.904C138.079 848.934 120.291 848.952 102.502 848.959C91.5171 848.963 80.5324 848.977 69.5476 849.003C62.0245 849.02 54.5014 849.026 46.9782 849.021C42.6317 849.019 38.2853 849.023 33.9388 849.04C29.9651 849.055 25.9917 849.056 22.018 849.045C20.5752 849.044 19.1324 849.048 17.6896 849.058C15.7388 849.071 13.7879 849.062 11.8371 849.052C10.207 849.054 10.207 849.054 8.54389 849.056C7.7044 848.924 6.8649 848.791 5.99997 848.655C3.53892 844.684 3.74421 841.7 3.80466 837.113C3.80749 836.306 3.81032 835.499 3.81324 834.667C3.82442 832.092 3.84952 829.517 3.87497 826.941C3.885 825.194 3.89413 823.447 3.90232 821.7C3.92436 817.419 3.95887 813.138 3.99997 808.858C4.65997 808.503 5.31997 808.148 5.99997 807.782C5.66997 807.072 5.33997 806.362 4.99997 805.631C5.98997 805.986 6.97997 806.341 7.99997 806.706C7.66997 819.13 7.34 831.553 7 844.353C14.26 844.353 21.52 844.353 29 844.353C29 843.643 29 842.933 29 842.201C30.32 842.201 31.64 842.201 33 842.201C33.33 843.621 33.66 845.041 34 846.504C141.58 846.859 249.16 847.214 360 847.579C359.34 845.805 358.68 844.03 358 842.201C358.829 829.506 363.802 815.775 372.5 807.042C377.539 802.738 382.331 799.6 389 800.253Z" fill="#B68A21"/>
<path d="M367 824.992C367.66 824.992 368.32 824.992 369 824.992C368.693 826.142 368.693 826.142 368.379 827.315C367.975 828.86 367.975 828.86 367.562 830.437C367.162 831.953 367.162 831.953 366.754 833.5C365.945 837.067 365.483 840.718 365 844.353C372.59 844.353 380.18 844.353 388 844.353C388 845.772 388 847.192 388 848.655C389.65 849.01 391.3 849.365 393 849.731C393 850.441 393 851.15 393 851.882C281.79 851.882 170.58 851.882 56 851.882C56 851.527 56 851.172 56 850.806C71.4178 849.657 86.7967 849.602 102.246 849.657C105.812 849.668 109.378 849.672 112.943 849.677C119.034 849.686 125.125 849.697 131.215 849.711C147.176 849.746 163.137 849.756 179.098 849.76C180.29 849.76 180.29 849.76 181.506 849.761C210.881 849.769 240.252 849.621 269.625 849.26C270.596 849.248 271.566 849.236 272.567 849.224C302.714 848.852 332.86 848.359 363 847.579C362.67 847.224 362.34 846.869 362 846.504C361.934 838.522 363.54 832.003 367 824.992Z" fill="#B16D02"/>
<path d="M388 58.0829C388.33 58.0829 388.66 58.0829 389 58.0829C389.001 58.7246 389.001 59.3664 389.002 60.0276C389.08 129.87 389.158 199.712 389.244 269.554C389.245 270.597 389.246 271.639 389.248 272.713C389.275 295.371 389.303 318.028 389.331 340.685C389.345 351.796 389.359 362.906 389.372 374.017C389.374 375.122 389.375 376.228 389.376 377.367C389.421 413.229 389.462 449.091 389.501 484.954C389.541 521.795 389.585 558.636 389.633 595.477C389.64 600.676 389.646 605.875 389.653 611.074C389.655 612.609 389.655 612.609 389.657 614.175C389.678 630.672 389.696 647.169 389.712 663.667C389.729 680.237 389.749 696.807 389.773 713.377C389.787 723.231 389.798 733.086 389.805 742.94C389.811 749.514 389.819 756.089 389.831 762.663C389.838 766.414 389.843 770.166 389.843 773.917C389.845 777.95 389.852 781.982 389.861 786.015C389.86 787.779 389.86 787.779 389.858 789.578C389.862 790.649 389.866 791.719 389.869 792.822C389.87 793.745 389.872 794.668 389.873 795.618C389.996 798.025 390.411 800.086 391 802.404C391.083 803.98 391.118 805.559 391.114 807.138C391.113 808.064 391.113 808.989 391.113 809.943C391.108 810.932 391.103 811.922 391.098 812.941C391.096 813.962 391.095 814.982 391.093 816.034C391.088 819.289 391.075 822.544 391.062 825.798C391.057 828.007 391.053 830.216 391.049 832.424C391.038 837.835 391.021 843.245 391 848.655C390.01 848.655 389.02 848.655 388 848.655C386.842 844.707 386.886 840.994 386.902 836.874C386.904 835.809 386.904 835.809 386.907 834.722C386.912 832.464 386.925 830.207 386.938 827.95C386.943 826.415 386.947 824.88 386.951 823.345C386.962 819.591 386.979 815.838 387 812.084C387.33 812.084 387.66 812.084 388 812.084C388.33 821.668 388.66 831.252 389 841.126C389 830.122 389 819.119 389 807.782C388.34 807.782 387.68 807.782 387 807.782C387 807.072 387 806.362 387 805.631C385.68 805.276 384.36 804.921 383 804.555C384.98 804.2 386.96 803.845 389 803.479C388.505 801.882 388.505 801.882 388 800.253C387.909 798.535 387.876 796.814 387.876 795.093C387.874 794.022 387.871 792.951 387.869 791.847C387.872 790.665 387.874 789.483 387.877 788.265C387.876 787.008 387.875 785.751 387.873 784.456C387.871 780.947 387.874 777.437 387.878 773.927C387.881 770.117 387.879 766.307 387.877 762.497C387.875 755.812 387.877 749.127 387.881 742.442C387.887 732.502 387.887 722.562 387.886 712.622C387.885 695.903 387.888 679.184 387.894 662.465C387.9 645.905 387.904 629.345 387.905 612.785C387.905 611.756 387.905 610.727 387.905 609.667C387.906 604.444 387.906 599.22 387.906 593.996C387.908 556.97 387.915 519.945 387.925 482.92C387.934 446.945 387.941 410.97 387.945 374.995C387.945 373.886 387.945 372.778 387.945 371.636C387.947 360.505 387.948 349.374 387.949 338.243C387.952 315.567 387.955 292.891 387.958 270.215C387.958 269.172 387.958 268.129 387.958 267.055C387.967 197.398 387.983 127.74 388 58.0829Z" fill="#FFB522"/>
<path d="M306 5.31082C307.975 5.3122 307.975 5.3122 309.99 5.31361C325.66 5.32542 341.33 5.34628 357 5.37804C357 6.4429 357 7.50775 357 8.60487C266.58 8.60487 176.16 8.60487 83 8.60487C83.33 7.89497 83.66 7.18507 84 6.45365C106.812 6.26542 129.625 6.08695 152.438 5.91585C153.289 5.90945 154.141 5.90305 155.018 5.89646C205.346 5.51895 255.671 5.27537 306 5.31082Z" fill="#AB6A00"/>
<path d="M45 27.9658C46.32 27.9658 47.64 27.9658 49 27.9658C49 28.6757 49 29.3856 49 30.117C49.6277 30.1158 50.2554 30.1146 50.9021 30.1133C88.07 30.0412 125.238 29.9858 162.406 29.9523C166.865 29.9482 171.323 29.944 175.782 29.9398C176.67 29.9389 177.558 29.9381 178.472 29.9372C192.862 29.9232 207.252 29.8977 221.642 29.8681C236.398 29.8379 251.153 29.82 265.909 29.8134C275.021 29.809 284.132 29.795 293.244 29.7688C299.484 29.7518 305.725 29.7466 311.965 29.7508C315.571 29.7529 319.176 29.7496 322.781 29.7324C326.682 29.7139 330.583 29.7201 334.484 29.729C336.209 29.7149 336.209 29.7149 337.968 29.7005C339.007 29.7069 340.046 29.7134 341.116 29.72C342.468 29.7181 342.468 29.7181 343.847 29.7163C344.558 29.8485 345.268 29.9808 346 30.117C346.66 31.1819 347.32 32.2467 348 33.3439C347.01 33.3439 346.02 33.3439 345 33.3439C345 32.634 345 31.9241 345 31.1926C257.55 31.5476 170.1 31.9025 80 32.2683C80 32.6232 80 32.9782 80 33.3439C69.44 33.3439 58.88 33.3439 48 33.3439C47.01 36.8934 46.02 40.4429 45 44.0999C41.463 52.6316 37.1279 60.0564 31 66.6877C30.505 65.0904 30.505 65.0904 30 63.4609C31.5469 60.8223 31.5469 60.8223 33.75 57.814C39.2723 49.9011 41.4409 42.7228 43.3516 33.1212C44 30.117 44 30.117 45 27.9658Z" fill="#CD8508"/>
<path d="M362 6.45365C369.92 6.45365 377.84 6.45365 386 6.45365C386 7.87345 386 9.29326 386 10.7561C379.07 10.7561 372.14 10.7561 365 10.7561C367.051 22.7441 367.051 22.7441 371.914 33.5918C373 35.4951 373 35.4951 374 38.7219C374.66 38.7219 375.32 38.7219 376 38.7219C376 39.4318 376 40.1417 376 40.8731C376.681 41.1615 377.361 41.4499 378.062 41.747C381.397 43.197 384.697 44.7188 388 46.2512C388 47.316 388 48.3809 388 49.478C382.238 49.9738 379.452 49.1491 375 45.1756C373.362 43.287 371.811 41.3571 370.297 39.3521C368.943 37.5135 368.943 37.5135 367 35.4951C366.67 36.5599 366.34 37.6248 366 38.7219C360.375 28.9171 358.525 20.1033 358 8.60487C358.99 8.24992 359.98 7.89497 361 7.52926C361.33 8.59411 361.66 9.65896 362 10.7561C362.66 10.7561 363.32 10.7561 364 10.7561C364 10.0462 364 9.33628 364 8.60487C363.34 8.60487 362.68 8.60487 362 8.60487C362 7.89497 362 7.18506 362 6.45365Z" fill="#A16304"/>
<path d="M369 13.9829C371.646 13.954 374.291 13.9326 376.937 13.9157C377.692 13.9067 378.447 13.8976 379.224 13.8884C381.15 13.8791 383.075 13.9267 385 13.9829C386 15.0585 386 15.0585 386.113 17.5503C386.108 18.6262 386.103 19.702 386.098 20.8105C386.094 21.9717 386.091 23.1329 386.088 24.3293C386.079 25.5515 386.071 26.7738 386.062 28.033C386.058 29.2594 386.053 30.4858 386.049 31.7493C386.037 34.7906 386.02 37.8318 386 40.8731C380.753 40.1343 377.573 38.653 374 34.4194C369.447 27.4696 368.969 22.1876 369 13.9829Z" fill="#EA9B14"/>
<path d="M12.5979 13.8779C14.0862 13.885 15.5745 13.8979 17.0627 13.9157C17.8214 13.9205 18.58 13.9254 19.3616 13.9304C21.2412 13.9431 23.1207 13.9624 25.0002 13.9829C25.2379 22.6471 23.54 28.0796 19.1252 35.3606C16.6051 38.0713 14.3231 39.5043 11.0002 40.8731C10.0102 40.5182 9.02024 40.1632 8.00024 39.7975C7.97137 35.6968 7.95349 31.5961 7.93774 27.4952C7.92937 26.3243 7.92099 25.1534 7.91235 23.947C7.90913 22.8343 7.90591 21.7216 7.90259 20.5752C7.89735 19.5444 7.89211 18.5136 7.88672 17.4516C8.07737 13.4328 8.69936 13.9917 12.5979 13.8779Z" fill="#D49710"/>
<path d="M8.99997 814.236C15.004 815.888 18.13 818.554 21.4218 824.206C24.5058 830.272 25.2373 834.264 25 841.126C22.3541 841.155 19.7084 841.176 17.0625 841.193C16.3077 841.202 15.553 841.211 14.7754 841.22C12.85 841.23 10.9246 841.182 8.99997 841.126C7.3148 839.313 7.86989 837.052 7.86716 834.571C7.86523 832.91 7.86523 832.91 7.86325 831.214C7.86712 830.048 7.87099 828.882 7.87497 827.681C7.87111 826.515 7.86724 825.349 7.86325 824.147C7.86454 823.039 7.86583 821.931 7.86716 820.79C7.86829 819.766 7.86942 818.742 7.87058 817.687C7.99997 815.311 7.99997 815.311 8.99997 814.236Z" fill="#DA980C"/>
<path d="M386 815.311C386.029 819.412 386.047 823.513 386.062 827.614C386.071 828.784 386.079 829.955 386.088 831.162C386.093 832.831 386.093 832.831 386.097 834.534C386.105 836.08 386.105 836.08 386.113 837.657C386 840.05 386 840.05 385 841.126C382.303 841.205 379.633 841.225 376.937 841.193C376.179 841.188 375.42 841.183 374.638 841.178C372.759 841.166 370.879 841.146 369 841.126C368.678 831.822 370.878 825.696 376.562 818.538C381.889 813.837 381.889 813.837 386 815.311Z" fill="#9A5A01"/>
<path d="M357 4.30243C368.22 4.30243 379.44 4.30243 391 4.30243C391 19.9203 391 35.5381 391 51.6292C390.34 51.6292 389.68 51.6292 389 51.6292C389 52.3391 389 53.049 389 53.7804C388.34 53.7804 387.68 53.7804 387 53.7804C387 53.0705 387 52.3606 387 51.6292C386.134 51.7179 385.267 51.8067 384.375 51.8981C378.262 51.411 375.004 47.4901 371.125 42.7554C370.076 41.4173 369.032 40.075 368 38.7219C368.33 38.012 368.66 37.3021 369 36.5707C369.531 37.2445 370.062 37.9184 370.609 38.6127C371.316 39.4917 372.022 40.3708 372.75 41.2765C373.446 42.15 374.142 43.0235 374.859 43.9235C378.844 48.2559 382.443 48.7883 388 49.478C387.67 48.4131 387.34 47.3483 387 46.2512C386.846 43.2377 386.743 40.2461 386.684 37.2303C386.663 36.3516 386.642 35.4728 386.621 34.5674C386.555 31.7619 386.496 28.9563 386.438 26.1507C386.394 24.2481 386.351 22.3455 386.307 20.4429C386.199 15.7799 386.1 11.1169 386 6.45365C378.08 6.45365 370.16 6.45365 362 6.45365C362 7.16355 362 7.87345 362 8.60487C362.66 8.60487 363.32 8.60487 364 8.60487C364 9.31477 364 10.0247 364 10.7561C363.34 10.7561 362.68 10.7561 362 10.7561C361.67 11.466 361.34 12.1759 361 12.9073C360.67 11.4875 360.34 10.0677 360 8.60487C359.01 8.60487 358.02 8.60487 357 8.60487C357 7.18506 357 5.76526 357 4.30243Z" fill="#F0B22E"/>
<path d="M4.0002 10.7561C4.9902 10.7561 5.98 10.7561 7 10.7561C7.33 22.1145 7.6602 33.4729 8.0002 45.1756C18.6597 39.4428 22.259 33.8026 27.0002 22.5878C27.3302 22.5878 27.6602 22.5878 28.0002 22.5878C28.7337 30.28 25.3221 36.3793 21.8127 42.8227C19.9384 45.9309 19.9384 45.9309 19.6213 48.4654C19.0002 50.5536 19.0002 50.5536 17.3283 51.9149C10.3958 55.447 10.3956 55.447 6 54.856C6 54.1461 6.0002 53.4362 6.0002 52.7048C5.3402 52.7048 4.6802 52.7048 4.0002 52.7048C4.3302 51.64 4.6602 50.5751 5.0002 49.478C4.6702 48.7681 4.3402 48.0582 4.0002 47.3268C3.91361 44.5801 3.88457 41.8632 3.90254 39.1169C3.90396 38.3082 3.90537 37.4995 3.90683 36.6663C3.91243 34.0798 3.92499 31.4934 3.9377 28.907C3.94271 27.1549 3.94727 25.4028 3.95137 23.6508C3.9624 19.3525 3.97967 15.0543 4.0002 10.7561Z" fill="#AC7305"/>
<path d="M366 789.497C366.99 790.029 366.99 790.029 368 790.572C367.273 791.321 367.273 791.321 366.531 792.085C358.101 801.432 353.648 813.146 349 824.992C348.34 824.637 347.68 824.282 347 823.916C344.443 823.813 341.914 823.776 339.357 823.787C338.559 823.786 337.761 823.785 336.938 823.784C334.25 823.782 331.561 823.788 328.873 823.794C326.951 823.794 325.03 823.794 323.108 823.793C317.879 823.793 312.65 823.799 307.421 823.807C301.961 823.814 296.501 823.814 291.041 823.816C280.696 823.819 270.351 823.828 260.006 823.839C248.231 823.851 236.457 823.857 224.682 823.862C200.454 823.873 176.227 823.892 152 823.916C152 823.561 152 823.206 152 822.84C216.02 822.485 280.04 822.131 346 821.765C348.64 816.086 351.28 810.406 354 804.555C361.231 793.004 361.231 793.004 366 789.497Z" fill="#C37B00"/>
<path d="M389 800.253C389 801.317 389 802.382 389 803.479C388.34 804.189 387.68 804.899 387 805.631C387 806.341 387 807.05 387 807.782C387.66 807.782 388.32 807.782 389 807.782C389.33 807.072 389.66 806.362 390 805.631C390 818.764 390 831.897 390 845.428C387.982 841.088 387.721 839.144 387.621 834.428C387.587 833.142 387.553 831.855 387.518 830.529C387.491 829.19 387.465 827.851 387.438 826.471C387.378 823.812 387.314 821.154 387.246 818.496C387.222 817.318 387.198 816.14 387.174 814.926C387.173 812.109 387.173 812.109 386 809.933C385.397 810.231 384.793 810.529 384.172 810.837C383.372 811.226 382.573 811.616 381.75 812.017C380.961 812.404 380.172 812.791 379.359 813.189C377.238 814.13 375.218 814.717 373 815.311C367.55 818.859 365.008 824.544 362 830.37C360.835 826.612 361.429 825.414 362.943 821.941C367.18 812.887 371.971 805.824 380.75 801.328C383.733 800.341 385.911 799.951 389 800.253Z" fill="#C67D05"/>
<path d="M3 802.404C6.3 803.469 9.6 804.534 13 805.631C13 806.341 13 807.05 13 807.782C13.7425 808.061 14.485 808.339 15.25 808.626C22.9338 812.277 26.9807 819.715 30.2852 827.664C31.0457 830.543 30.9558 831.905 30 834.672C26.9883 831.062 24.6739 827.705 22.625 823.378C19.3005 816.71 14.749 812.282 8 809.933C7.67 809.578 7.34 809.223 7 808.857C6.01 808.857 5.01997 808.858 3.99997 808.858C4.11824 814.007 4.24252 819.156 4.37231 824.305C4.41563 826.057 4.45731 827.808 4.49731 829.56C4.55511 832.078 4.61877 834.596 4.68359 837.113C4.70031 837.897 4.71702 838.68 4.73424 839.487C4.82467 842.805 5.01721 845.484 5.99997 848.655C5.00997 848.655 4.02 848.655 3 848.655C3 833.392 3 818.129 3 802.404Z" fill="#ECC640"/>
<path d="M4.99997 805.631C5.98997 805.986 6.97997 806.341 7.99997 806.706C7.66997 819.13 7.34 831.553 7 844.353C14.59 844.353 22.1802 844.353 30.0002 844.353C30.3302 845.417 30.6602 846.482 31.0002 847.579C22.4202 847.579 13.8402 847.579 5.00019 847.579C3.46722 844.282 3.87888 840.834 3.90254 837.218C3.90395 836.41 3.90537 835.601 3.90682 834.768C3.91243 832.181 3.92498 829.595 3.93769 827.008C3.94271 825.256 3.94727 823.504 3.95136 821.752C3.9624 817.454 3.97945 813.156 3.99997 808.858C4.65997 808.503 5.31997 808.148 5.99997 807.782C5.66997 807.072 5.33997 806.362 4.99997 805.631Z" fill="#AA7205"/>
<path d="M33 4.30243C51.48 4.30243 69.96 4.30243 89 4.30243C89 4.65738 89 5.01234 89 5.37804C83.0594 5.68769 77.1186 5.99393 71.1777 6.29714C69.1604 6.40056 67.1432 6.50489 65.126 6.61016C62.2117 6.76209 59.2973 6.91068 56.3828 7.05868C55.4939 7.10574 54.6049 7.15279 53.689 7.20127C47.7884 7.49673 41.9067 7.58288 36 7.52926C35.902 8.55667 35.8041 9.58409 35.7031 10.6426C34.7529 19.4804 33.2838 27.2478 30 35.4951C29.67 35.4951 29.34 35.4951 29 35.4951C29.754 26.4112 31.3783 17.546 33 8.60487C33.66 8.60487 34.32 8.60487 35 8.60487C35 7.89497 35 7.18506 35 6.45365C34.34 6.45365 33.68 6.45365 33 6.45365C33 5.74375 33 5.03385 33 4.30243Z" fill="#D28203"/>
<path d="M23.9375 782.753C29.2926 786.298 34.6053 791.33 38 797.026C38.3474 799.175 38.6797 801.326 39 803.48C39.6688 804.803 40.3799 806.103 41.125 807.379C43 811.009 43 811.009 42.75 813.631C42.5025 814.185 42.255 814.74 42 815.311C39.8608 813.01 39.1498 811.274 37.9375 808.32C34.0028 799.655 27.1604 790.659 19 786.27C19 785.205 19 784.14 19 783.043C22 781.967 22 781.967 23.9375 782.753Z" fill="#AD7603"/>
<path d="M383 819.614C383 824.938 383 830.262 383 835.748C378.38 836.103 373.76 836.458 369 836.823C370.056 831.142 370.343 830.749 374 827.143C374.887 826.011 375.762 824.868 376.625 823.714C379.844 819.614 379.844 819.614 383 819.614Z" fill="#F1A51D"/>
<path d="M12 19.361C15.3 19.361 18.6 19.361 22 19.361C23.6871 27.6566 23.6871 27.6566 21.7305 31.6002C20.2302 33.7127 18.6923 35.71 17 37.6463C16.67 36.2265 16.34 34.8067 16 33.3439C14.68 33.6988 13.36 34.0538 12 34.4195C12 29.4502 12 24.4808 12 19.361Z" fill="#FCB517"/>
<path d="M377 813.16C375.788 816.123 374.256 818.763 372.563 821.429C372.151 822.076 371.74 822.724 371.316 823.391C370 824.992 370 824.992 367 826.067C364.056 832.645 363.046 839.21 363 846.504C363.33 847.214 363.66 847.924 364 848.655C362.35 848.655 360.7 848.655 359 848.655C357.449 842.484 358.272 836.41 360 830.37C361.434 828.66 361.434 828.66 363 827.143C363.802 825.774 364.571 824.383 365.313 822.975C368.082 818.097 371.286 813.16 377 813.16Z" fill="#FAE579"/>
<path d="M367 824.992C367.66 824.992 368.32 824.992 369 824.992C368.795 825.758 368.59 826.525 368.379 827.315C368.109 828.345 367.84 829.375 367.562 830.437C367.162 831.953 367.162 831.953 366.754 833.5C365.945 837.067 365.483 840.718 365 844.353C372.59 844.353 380.18 844.353 388 844.353C388 845.417 388 846.482 388 847.579C383.854 847.61 379.708 847.63 375.562 847.647C373.786 847.66 373.786 847.66 371.975 847.674C370.85 847.677 369.725 847.681 368.566 847.684C367.003 847.693 367.003 847.693 365.408 847.702C363 847.579 363 847.579 362 846.504C361.934 838.522 363.54 832.003 367 824.992Z" fill="#A16100"/>
<path d="M369 13.9829C371.646 13.954 374.291 13.9326 376.937 13.9157C377.692 13.9067 378.447 13.8976 379.224 13.8884C381.15 13.8791 383.075 13.9267 385 13.9829C386 15.0585 386 15.0585 386.114 17.3528C386.108 18.3386 386.103 19.3243 386.098 20.3399C386.094 21.4041 386.091 22.4682 386.088 23.5646C386.08 24.6843 386.071 25.8039 386.062 26.9574C386.058 28.0812 386.053 29.205 386.049 30.3628C386.037 33.1492 386.021 35.9355 386 38.7219C385.01 38.012 384.02 37.3021 383 36.5707C382.616 33.5884 382.397 30.8234 382.312 27.8314C382.261 26.6147 382.261 26.6147 382.209 25.3734C382.126 23.3698 382.062 21.3654 382 19.3609C381.229 19.2958 380.458 19.2306 379.664 19.1635C378.16 19.0283 378.16 19.0283 376.625 18.8904C375.627 18.803 374.63 18.7157 373.602 18.6257C371 18.2853 371 18.2853 369 17.2097C369 16.1449 369 15.08 369 13.9829Z" fill="#A54D00"/>
<path d="M389 800.253C389 801.317 389 802.382 389 803.479C388.039 803.852 388.039 803.852 387.059 804.232C376.243 808.618 371.533 813.174 365.797 823.958C364.334 826.55 363.103 828.401 361 830.37C362.263 819.841 367.207 811.859 374.762 805.194C379.244 801.761 383.353 799.7 389 800.253Z" fill="#A06201"/>
<path d="M366 789.497C366.66 789.851 367.32 790.206 368 790.572C367.515 791.071 367.031 791.57 366.531 792.085C358.101 801.432 353.648 813.146 349 824.992C348.34 824.637 347.68 824.282 347 823.916C345.406 823.826 343.808 823.801 342.211 823.811C340.799 823.816 340.799 823.816 339.359 823.821C338.375 823.83 337.39 823.84 336.375 823.849C335.382 823.854 334.39 823.858 333.367 823.863C330.911 823.876 328.456 823.894 326 823.916C326 823.561 326 823.206 326 822.84C335.9 822.308 335.9 822.308 346 821.765C347.155 819.169 348.31 816.574 349.5 813.899C353.623 804.883 358.108 795.3 366 789.497Z" fill="#B87B0C"/>
<path d="M41 39.7975C42.1446 42.8246 42.0365 43.994 40.9609 47.1167C38.048 53.1825 35.1771 58.344 31 63.4609C30.7113 64.3705 30.4225 65.28 30.125 66.2171C28.4251 70.1788 25.3652 71.9426 22 74.217C21.67 73.5071 21.34 72.7972 21 72.0658C20.01 72.0658 19.02 72.0658 18 72.0658C19.2139 68.1488 20.2429 67.7232 23.4375 65.6121C26.5363 63.5577 27.9378 62.4857 30 59.1585C30.66 59.1585 31.32 59.1585 32 59.1585C32.2553 58.6094 32.5105 58.0603 32.7734 57.4946C35.5156 51.5956 38.2578 45.6965 41 39.7975Z" fill="#B27706"/>
<path d="M388 798.101C388.66 798.101 389.32 798.101 390 798.101C390.821 801.193 391.122 803.927 391.114 807.138C391.113 808.064 391.113 808.989 391.113 809.943C391.108 810.932 391.103 811.922 391.098 812.941C391.096 813.962 391.095 814.982 391.093 816.034C391.088 819.289 391.075 822.544 391.062 825.798C391.057 828.007 391.053 830.216 391.049 832.424C391.038 837.835 391.021 843.245 391 848.655C390.01 848.655 389.02 848.655 388 848.655C386.842 844.707 386.886 840.994 386.902 836.874C386.904 835.809 386.904 835.809 386.907 834.722C386.912 832.464 386.925 830.207 386.938 827.95C386.943 826.415 386.947 824.88 386.951 823.345C386.962 819.591 386.979 815.838 387 812.084C387.33 812.084 387.66 812.084 388 812.084C388.33 821.668 388.66 831.252 389 841.126C389 830.122 389 819.119 389 807.782C388.34 807.782 387.68 807.782 387 807.782C387 807.072 387 806.362 387 805.631C385.68 805.276 384.36 804.921 383 804.555C384.98 804.2 386.96 803.845 389 803.479C388.67 801.705 388.34 799.93 388 798.101Z" fill="#F3B634"/>
<path d="M11 819.614C16.1629 821.835 16.7632 822.251 19.3125 827.076C19.8243 828.017 20.336 828.959 20.8633 829.928C22 832.521 22 832.521 22 835.748C18.7 835.748 15.4 835.748 12 835.748C11.67 830.423 11.34 825.099 11 819.614Z" fill="#FBB91F"/>
<path d="M48 30.117C47.258 41.8223 41.601 53.2394 35 62.3853C33.3742 63.8727 31.7159 65.3224 30 66.6877C30.6194 62.7713 32.1833 60.367 34.375 57.2089C39.3103 49.7663 41.4344 42.742 43.1562 33.8565C43.4347 32.9774 43.7131 32.0983 44 31.1926C47 30.117 47 30.117 48 30.117Z" fill="#D89716"/>
<path d="M29 12.9073C29.66 12.9073 30.32 12.9073 31 12.9073C31.3638 25.3626 31.4464 35.5325 23.7539 45.415C22 47.3268 22 47.3268 19 49.478C19.7097 45.5084 21.3003 42.3106 23 38.7219C25.8651 32.6471 27.2341 28.4371 27 21.5122C27.5288 18.5853 28.2498 15.782 29 12.9073Z" fill="#F7D551"/>
<path d="M362 6.45365C369.92 6.45365 377.84 6.45365 386 6.45365C386 7.87345 386 9.29326 386 10.7561C375.11 11.2885 375.11 11.2885 364 11.8317C364 10.7668 364 9.70199 364 8.60487C363.34 8.60487 362.68 8.60487 362 8.60487C362 7.89497 362 7.18506 362 6.45365Z" fill="#B97100"/>
<path d="M29 842.201C30.32 842.201 31.64 842.201 33 842.201C33.33 843.621 33.66 845.041 34 846.504C49.18 846.859 64.36 847.214 80 847.579C80 847.934 80 848.289 80 848.655C55.58 848.655 31.16 848.655 5.99997 848.655C5.99997 848.3 6 847.945 6 847.579C14.25 847.579 22.5002 847.579 31.0002 847.579C30.3402 845.805 29.68 844.03 29 842.201Z" fill="#C38F22"/>
<path d="M5 6.45365C12.59 6.45365 20.18 6.45365 28 6.45365C28 7.87345 28 9.29326 28 10.7561C21.07 10.7561 14.14 10.7561 7 10.7561C6.34 9.33628 5.68 7.91648 5 6.45365Z" fill="#C78403"/>
<path d="M8.99997 814.236C15.0164 815.891 18.1896 818.56 21.4219 824.282C23.9013 829.263 25.709 833.179 25 838.975C22.0175 836.246 20.8593 833.252 19.3125 829.429C16.5616 823.272 13.7966 820.184 8 817.462C8.33 816.398 8.65997 815.333 8.99997 814.236Z" fill="#AE7405"/>
<path d="M22 38.7219C22.66 39.0769 23.32 39.4318 24 39.7975C23.3606 40.7736 22.7212 41.7497 22.0625 42.7554C19.933 45.8913 19.933 45.8913 19.6055 48.4696C19 50.5536 19.0002 50.5536 17.3283 51.9149C10.3958 55.447 10.3956 55.447 6 54.856C6 54.1461 6.0002 53.4362 6.0002 52.7048C5.3402 52.7048 4.6802 52.7048 4.0002 52.7048C4.0002 51.9949 4 51.285 4 50.5536C4.73605 50.2929 5.47211 50.0323 6.23047 49.7637C12.9374 47.2859 17.9438 45.2662 22 38.7219Z" fill="#B87F09"/>
<path d="M9 13.9829C14.28 13.9829 19.5602 13.9829 25.0002 13.9829C25.0002 23.6634 25 23.6634 23 27.9658C22.67 27.9658 22.34 27.9658 22 27.9658C22 24.7713 22 21.5767 22 18.2853C21.157 18.2978 20.3139 18.3103 19.4453 18.3232C18.3496 18.3329 17.2539 18.3426 16.125 18.3526C15.0345 18.365 13.9439 18.3775 12.8203 18.3904C10 18.2853 10 18.2853 8 17.2097C8.33 16.1449 8.66 15.08 9 13.9829Z" fill="#BB5D03"/>
<path d="M38 799.177C40.7833 801.794 42.1131 804.511 43.625 808.118C44.0504 809.112 44.4758 810.106 44.9141 811.131C46 814.236 46 814.236 47 820.689C56.57 820.689 66.14 820.689 76 820.689C76 821.044 76 821.399 76 821.765C66.1 821.765 56.2 821.765 46 821.765C46 821.055 46 820.345 46 819.614C45.01 819.969 44.02 820.323 43 820.689C42.8556 819.735 42.7113 818.781 42.5625 817.798C42.3769 816.623 42.1912 815.447 42 814.236C41.8969 813.393 41.7938 812.55 41.6875 811.681C40.6871 807.573 38.8522 803.987 37 800.253C37.33 799.898 37.66 799.543 38 799.177Z" fill="#AB6600"/>
<path d="M0 848.655C24.75 848.655 49.5 848.655 75 848.655C75 849.01 75 849.365 75 849.731C51.24 849.731 27.48 849.731 3 849.731C3 850.441 3 851.15 3 851.882C2.01 851.882 1.02 851.882 0 851.882C0 850.817 0 849.752 0 848.655Z" fill="#DC8600"/>
<path d="M377 835.546C378.072 835.531 379.145 835.516 380.25 835.5C383 835.748 383 835.748 385 837.899C385 838.964 385 840.029 385 841.126C379.72 841.126 374.44 841.126 369 841.126C369 839.706 369 838.286 369 836.823C371.725 835.358 373.961 835.566 377 835.546Z" fill="#CC8810"/>
<path d="M374 780.892C374.33 782.311 374.66 783.731 375 785.194C368.592 790.329 368.592 790.329 365.375 791.648C362.183 793.094 360.323 795.389 358 798.101C357.67 797.392 357.34 796.682 357 795.95C368.371 780.892 368.371 780.892 374 780.892Z" fill="#A36805"/>
<path d="M44 819.614C44.66 819.614 45.32 819.614 46 819.614C46 820.323 46 821.033 46 821.765C46.6485 821.759 47.297 821.754 47.9651 821.748C60.3549 821.655 72.6521 821.648 85 822.84C85 823.195 85 823.55 85 823.916C83.8646 823.91 82.7292 823.905 81.5593 823.899C77.3494 823.879 73.1394 823.867 68.9294 823.857C67.1068 823.852 65.2843 823.844 63.4617 823.835C60.8429 823.822 58.2242 823.816 55.6055 823.811C54.7897 823.805 53.974 823.8 53.1336 823.794C49.8299 823.794 47.1568 823.86 44 824.992C43.4375 822.908 43.4375 822.908 43 820.689C43.33 820.334 43.66 819.979 44 819.614Z" fill="#CE7A00"/>
<path d="M45 27.9658C46.32 27.9658 47.64 27.9658 49 27.9658C49 29.0307 49 30.0955 49 31.1926C50.2487 31.1757 50.2487 31.1757 51.5227 31.1585C54.6145 31.1218 57.7062 31.0949 60.7981 31.0745C62.7932 31.0583 64.7882 31.031 66.7832 31.0036C68.6636 30.9932 68.6636 30.9932 70.582 30.9826C71.7394 30.9713 72.8967 30.96 74.0891 30.9484C77 31.1926 77 31.1926 80 33.3439C69.44 33.3439 58.88 33.3439 48 33.3439C47.67 32.634 47.34 31.9241 47 31.1926C46.01 30.8377 45.02 30.4827 44 30.117C44.33 29.4071 44.66 28.6972 45 27.9658Z" fill="#D77400"/>
<path d="M387 10.7561C387.99 10.7561 388.98 10.7561 390 10.7561C390 22.4695 390 34.1828 390 46.2512C387.578 42.3439 387.696 40.3076 387.586 35.6505C387.567 34.9389 387.547 34.2272 387.527 33.494C387.468 31.2256 387.421 28.9572 387.375 26.6885C387.337 25.1486 387.298 23.6087 387.258 22.0689C387.162 18.2982 387.078 14.5273 387 10.7561Z" fill="#C87C03"/>
<path d="M23 816.387C27.1515 820.055 29.5309 824.863 31 830.37C30.6055 832.823 30.6055 832.823 30 834.672C25.5233 829.444 22.7755 823.89 20 817.462C20.99 817.107 21.98 816.752 23 816.387Z" fill="#D58D08"/>
<path d="M382 19.3609C382.33 19.3609 382.66 19.361 383 19.361C383.049 20.5534 383.098 21.7458 383.148 22.9743C383.223 24.5485 383.299 26.1227 383.375 27.6969C383.406 28.4817 383.437 29.2665 383.469 30.075C383.675 34.1392 383.915 37.4091 386 40.8731C382.159 40.5849 380.264 40.0184 377.188 37.4446C374.795 34.1355 374.268 32.0973 374 27.9658C374.763 28.831 375.526 29.6962 376.312 30.5876C378.794 33.5246 378.794 33.5246 382 34.4195C382 29.4502 382 24.4808 382 19.3609Z" fill="#EAB835"/>
<path d="M349 38.7219C352.412 40.5568 353.412 44.7546 355 48.3352C355.705 49.9155 356.413 51.494 357.125 53.0703C357.437 53.7732 357.749 54.4761 358.07 55.2003C359.002 57.2075 359.002 57.2075 361 59.1585C360.625 61.4441 360.625 61.4441 360 63.4609C349.308 48.9575 349.308 48.9575 348.688 41.3437C348.791 40.4785 348.894 39.6133 349 38.7219Z" fill="#B27203"/>
<path d="M3 802.404C5.78392 803.901 5.97899 805.798 7 808.857C6.01 808.857 5.01997 808.858 3.99997 808.858C4.11824 814.007 4.24252 819.156 4.37231 824.305C4.41563 826.057 4.45731 827.808 4.49731 829.56C4.55511 832.078 4.61877 834.596 4.68359 837.113C4.70031 837.897 4.71702 838.68 4.73424 839.487C4.82467 842.805 5.01721 845.484 5.99997 848.655C5.00997 848.655 4.02 848.655 3 848.655C3 833.392 3 818.129 3 802.404Z" fill="#FAC432"/>
<path d="M19 783.043C22.9396 784.495 25.5531 786.353 28.625 789.362C29.3804 790.091 30.1358 790.821 30.9141 791.572C32.8437 793.632 34.4375 795.714 36 798.101C35.67 798.811 35.34 799.521 35 800.253C34.4921 799.772 33.9842 799.29 33.4609 798.795C26.6709 791.854 26.6709 791.854 19 786.27C19 785.205 19 784.14 19 783.043Z" fill="#F4CF43"/>
<path d="M33 8.60487C33.66 8.60487 34.32 8.60487 35 8.60487C35.6672 17.4364 34.042 25.128 31 33.3439C30.34 34.0538 29.68 34.7637 29 35.4951C29.754 26.4112 31.3783 17.546 33 8.60487Z" fill="#B77503"/>
<path d="M369 18.2853C370.891 18.529 370.891 18.529 373 19.361C374.047 21.4702 374.047 21.4702 374.75 24.0667C374.992 24.9181 375.235 25.7694 375.484 26.6465C376.053 29.2853 376 31.7234 376 34.4195C375.34 34.4195 374.68 34.4194 374 34.4194C370.654 28.8469 369.432 24.9027 369 18.2853Z" fill="#C17402"/>
<path d="M366 789.497C366.66 789.851 367.32 790.206 368 790.572C367.481 791.171 366.961 791.77 366.426 792.387C362.405 797.119 358.914 801.709 356.008 807.316C355.675 807.824 355.343 808.333 355 808.857C354.34 808.857 353.68 808.857 353 808.857C354.279 803.983 355.949 800.66 358.938 796.757C359.627 795.842 360.317 794.927 361.027 793.984C363 791.648 363 791.648 366 789.497Z" fill="#F9E97D"/>
<path d="M29 842.201C30.32 842.201 31.64 842.201 33 842.201C33.33 844.331 33.66 846.461 34 848.655C24.76 848.655 15.52 848.655 5.99997 848.655C5.99997 848.3 6 847.945 6 847.579C14.25 847.579 22.5002 847.579 31.0002 847.579C30.3402 845.805 29.68 844.03 29 842.201Z" fill="#BE942D"/>
<path d="M27 32.2683C27.66 33.3331 28.32 34.398 29 35.4951C27.9327 41.2353 23.5837 45.3245 20 49.478C19.67 48.4131 19.34 47.3483 19 46.2512C20.3984 43.4235 20.3984 43.4235 22.375 40.2681C23.3457 38.702 23.3457 38.702 24.3359 37.1043C24.8851 36.2183 25.4342 35.3323 26 34.4195C26.33 33.7096 26.66 32.9997 27 32.2683Z" fill="#FEF889"/>
<path d="M40 48.4024C40.6992 50.2133 40.6992 50.2133 41 52.7048C39.707 55.3644 39.707 55.3644 37.8125 58.1501C36.894 59.5331 36.894 59.5331 35.957 60.9441C34.12 63.3066 32.3616 64.9698 30 66.6877C30.6253 62.7166 32.2562 60.174 34.4375 56.94C35.055 56.018 35.6724 55.0959 36.3086 54.146C36.8668 53.3154 37.4249 52.4849 38 51.6292C38.66 50.5643 39.32 49.4995 40 48.4024Z" fill="#FBF493"/>
<path d="M366 32.2683C367.701 34.5141 368.914 36.2599 369.688 39.058C371.753 43.6072 375.382 46.3377 379 49.478C378.34 50.1879 377.68 50.8978 377 51.6292C367.818 43.4892 367.818 43.4892 366 38.7219C365.812 35.1589 365.812 35.1589 366 32.2683Z" fill="#FBB11B"/>
<path d="M356 797.026C356.66 797.026 357.32 797.026 358 797.026C356.342 801.859 354.15 806.289 351.875 810.807C351.502 811.552 351.13 812.298 350.746 813.065C349.833 814.891 348.917 816.715 348 818.538C347.67 817.828 347.34 817.118 347 816.387C348.109 813.307 348.109 813.307 349.75 809.597C350.547 807.773 350.547 807.773 351.359 805.912C352.797 802.837 354.195 799.868 356 797.026Z" fill="#9C6404"/>
<path d="M346 34.4195C348.289 34.5287 348.289 34.5287 351 35.4951C352.836 38.5454 352.836 38.5454 354.375 42.3521C354.898 43.6027 355.422 44.8534 355.961 46.1419C357 49.478 357 49.478 356 52.7048C354.02 48.4454 352.04 44.186 350 39.7975C349.34 40.5074 348.68 41.2173 348 41.9487C347.34 39.4641 346.68 36.9794 346 34.4195Z" fill="#965400"/>
<path d="M11 837.899C14.96 837.899 18.92 837.899 23 837.899C23.33 838.964 23.66 840.029 24 841.126C19.38 841.126 14.76 841.126 10 841.126C10.33 840.061 10.66 838.996 11 837.899Z" fill="#B87F01"/>
<path d="M8 17.2097C8.99 17.5647 9.98 17.9196 11 18.2853C10.67 24.3195 10.34 30.3537 10 36.5707C9.34 36.5707 8.68 36.5707 8 36.5707C8 30.1816 8 23.7925 8 17.2097Z" fill="#FEC93A"/>
<path d="M363 831.445C364.102 835.002 363.901 836.971 363.5 840.655C362.901 844.807 362.901 844.807 364 848.655C362.35 848.655 360.7 848.655 359 848.655C358.67 846.525 358.34 844.396 358 842.201C358.66 842.201 359.32 842.201 360 842.201C360.99 838.652 361.98 835.102 363 831.445Z" fill="#E8C149"/>
<path d="M27 831.445C27.99 831.8 28.98 832.155 30 832.521C30 833.231 30 833.941 30 834.672C30.66 834.672 31.32 834.672 32 834.672C32.33 837.157 32.66 839.641 33 842.201C32.01 842.734 32.01 842.734 31 843.277C30.34 842.922 29.68 842.567 29 842.201C28.3672 839.743 28.3672 839.743 27.875 836.756C27.7074 835.767 27.5398 834.779 27.3672 833.76C27.246 832.996 27.1248 832.232 27 831.445Z" fill="#B77507"/>
<path d="M44 819.614C44.66 819.614 45.32 819.614 46 819.614C46 820.323 46 821.033 46 821.765C53.92 821.765 61.84 821.765 70 821.765C70 822.12 70 822.475 70 822.84C68.9785 822.881 68.9785 822.881 67.9363 822.922C64.8532 823.047 61.7703 823.179 58.6875 823.311C57.6156 823.353 56.5438 823.396 55.4395 823.439C53.8974 823.507 53.8974 823.507 52.3242 823.576C51.3764 823.615 50.4285 823.655 49.4519 823.695C46.8638 823.824 46.8639 823.824 44 824.992C43.4375 822.908 43.4375 822.908 43 820.689C43.33 820.334 43.66 819.979 44 819.614Z" fill="#C4850D"/>
<path d="M377 807.782C379 808.857 379 808.857 381 812.084C378.968 813.255 377.202 814.19 374.938 814.706C372.594 815.438 371.581 816.582 370 818.538C369.34 818.183 368.68 817.828 368 817.462C370.79 813.711 373.252 810.469 377 807.782Z" fill="#C77E08"/>
<path d="M34 799.177C37.5877 800.714 38.9651 802.42 40.8125 806.034C41.4719 807.278 41.4719 807.278 42.1445 808.547C43.1162 811.343 42.9527 812.558 42 815.311C39.8059 812.951 38.8034 810.836 37.4375 807.849C37.0031 806.908 36.5687 805.966 36.1211 804.996C35 802.404 35 802.404 34 799.177Z" fill="#DB9209"/>
<path d="M8 817.462C8.99 817.817 9.98 818.172 11 818.538C10.67 824.217 10.34 829.896 10 835.748C9.34 835.748 8.68 835.748 8 835.748C8 829.714 8 823.679 8 817.462Z" fill="#FECA3C"/>
<path d="M374 813.16C374.99 813.16 375.98 813.16 377 813.16C375.333 817.399 372.773 820.463 370 823.916C369.01 823.561 368.02 823.206 367 822.84C367.978 821.428 368.958 820.016 369.938 818.605C370.483 817.819 371.028 817.033 371.59 816.223C373 814.236 373 814.236 374 813.16Z" fill="#FEF172"/>
<path d="M361 61.3097C362.273 62.3147 363.543 63.3239 364.812 64.3348C365.52 64.8964 366.228 65.4579 366.957 66.0365C368.785 67.5819 370.399 69.1811 372 70.9902C371.67 72.055 371.34 73.1199 371 74.217C369.704 73.2152 368.413 72.2052 367.125 71.1918C366.406 70.6303 365.686 70.0687 364.945 69.4902C363 67.7633 363 67.7633 361 64.5365C361 63.4717 361 62.4068 361 61.3097Z" fill="#F7C234"/>
<path d="M371 837.899C374.63 837.899 378.26 837.899 382 837.899C382.33 838.964 382.66 840.029 383 841.126C378.71 841.126 374.42 841.126 370 841.126C370.33 840.061 370.66 838.996 371 837.899Z" fill="#B07400"/>
<path d="M0 848.655C8.91 848.655 17.82 848.655 27 848.655C27 849.01 27 849.365 27 849.731C19.08 849.731 11.16 849.731 3 849.731C3 850.441 3 851.15 3 851.882C2.01 851.882 1.02 851.882 0 851.882C0 850.817 0 849.752 0 848.655Z" fill="#DB9406"/>
<path d="M41 39.7975C42.2194 45.0439 41.3649 46.1727 39.0625 50.8225C38.4966 51.9816 37.9307 53.1408 37.3477 54.335C36.9029 55.2169 36.4582 56.0987 36 57.0072C35.01 57.0072 34.02 57.0072 33 57.0072C35.64 51.328 38.28 45.6488 41 39.7975Z" fill="#AA6D04"/>
<path d="M22 38.7219C22.66 39.0769 23.32 39.4318 24 39.7975C23.3606 40.7736 22.7212 41.7497 22.0625 42.7554C20.3857 45.5974 19.4631 47.3159 19 50.5536C17.68 50.9085 16.36 51.2635 15 51.6292C15.33 50.5643 15.66 49.4995 16 48.4024C15.67 48.0474 15.34 47.6925 15 47.3268C15.9787 46.0938 16.9579 44.8615 17.9375 43.6294C18.4828 42.943 19.028 42.2567 19.5898 41.5496C20.368 40.5828 21.1594 39.6261 22 38.7219Z" fill="#D99617"/>
<path d="M363 21.5122C366.36 26.9332 367.293 32.2651 367 38.7219C364.424 36.6641 364.016 35.6009 363.488 32.1212C363.43 30.8608 363.372 29.6005 363.312 28.3019C363.247 27.0333 363.181 25.7646 363.113 24.4575C363.076 23.4855 363.039 22.5136 363 21.5122Z" fill="#C37E0A"/>
<path d="M354 50.5536C356.612 53.2229 358.965 55.9534 361 59.1585C360.609 61.4819 360.609 61.4819 360 63.4609C358.988 62.1266 357.991 60.7795 357 59.4274C356.443 58.6786 355.886 57.9299 355.312 57.1585C354 54.856 354 54.856 354 50.5536Z" fill="#D99515"/>
<path d="M20 24.739C21.125 26.5541 21.125 26.5541 22 29.0414C21.023 33.3499 19.4479 35.2975 16 37.6463C16.665 32.9256 18.1876 29.0617 20 24.739Z" fill="#FEF48F"/>
<path d="M352 808.857C352.99 809.212 353.98 809.567 355 809.933C354.408 811.351 353.801 812.761 353.188 814.168C352.851 814.954 352.515 815.741 352.168 816.551C351 818.538 351 818.538 348 819.614C348.476 818.021 348.956 816.431 349.438 814.841C349.704 813.955 349.971 813.069 350.246 812.156C351 809.933 351 809.933 352 808.857Z" fill="#D1891D"/>
<path d="M16 31.1926C17 33.3439 17 33.3439 16.3125 36.1001C15 38.7219 15 38.7219 12.875 39.5958C12.2563 39.6624 11.6375 39.7289 11 39.7975C10.6875 37.3102 10.6875 37.3102 11 34.4195C13.5 32.4699 13.5 32.4699 16 31.1926Z" fill="#BE7E04"/>
<path d="M31 7.52926C31.66 7.88421 32.32 8.23916 33 8.60487C32.67 13.2192 32.34 17.8336 32 22.5878C31.67 22.5878 31.34 22.5878 31 22.5878C31 19.3932 31 16.1987 31 12.9073C30.34 12.9073 29.68 12.9073 29 12.9073C29.66 11.1325 30.32 9.35779 31 7.52926Z" fill="#D59E20"/>
<path d="M25 789.497C27.9922 790.963 30.2903 792.669 32.75 795.009C33.6704 795.878 33.6704 795.878 34.6094 796.765C35.0683 797.206 35.5272 797.647 36 798.101C35.67 798.811 35.34 799.521 35 800.253C33.7045 799.07 32.4137 797.881 31.125 796.69C30.4057 796.028 29.6864 795.367 28.9453 794.686C27 792.723 27 792.723 25 789.497Z" fill="#FBCB17"/>
<path d="M29 64.5365C29.33 65.6014 29.66 66.6662 30 67.7633C27.36 69.893 24.72 72.0227 22 74.217C21.67 73.1521 21.34 72.0873 21 70.9902C25.75 67.7633 25.75 67.7633 28 67.7633C28.33 66.6985 28.66 65.6336 29 64.5365Z" fill="#EAB724"/>
<path d="M374 827.143C374.33 827.853 374.66 828.563 375 829.294C374.223 831.151 374.223 831.151 373.062 833.193C372.382 834.391 371.701 835.589 371 836.823C370.34 836.823 369.68 836.823 369 836.823C369.479 832.183 370.746 830.191 374 827.143Z" fill="#FBE878"/>
<path d="M372 783.043C372.99 783.043 373.98 783.043 375 783.043C373.547 787.162 371.571 788.551 368 790.572C367.34 789.862 366.68 789.152 366 788.421C366.804 787.933 367.609 787.445 368.438 786.942C371.089 785.466 371.089 785.466 372 783.043Z" fill="#CF8A11"/>
<path d="M385 806.706C385 807.771 385 808.836 385 809.933C382.625 810.605 382.625 810.605 380 811.009C379.34 810.299 378.68 809.589 378 808.857C381 806.706 381 806.706 385 806.706Z" fill="#A26400"/>
<path d="M360 16.1341C360.66 16.1341 361.32 16.1341 362 16.1341C362 18.9737 362 21.8133 362 24.739C361.34 24.739 360.68 24.739 360 24.739C359.619 22.237 359.287 19.7261 359 17.2097C359.33 16.8548 359.66 16.4998 360 16.1341Z" fill="#925900"/>
<path d="M29 12.9073C29.66 12.9073 30.32 12.9073 31 12.9073C30.67 16.4568 30.34 20.0063 30 23.6634C29.34 22.9535 28.68 22.2436 28 21.5122C28.0329 18.5772 28.564 15.815 29 12.9073Z" fill="#FEFC9F"/>
<path d="M29 842.201C30.32 842.201 31.64 842.201 33 842.201C33.33 844.331 33.66 846.461 34 848.655C32.68 848.3 31.36 847.945 30 847.579C29.67 845.805 29.34 844.03 29 842.201Z" fill="#EBC549"/>
<path d="M14 809.933C19.75 813.832 19.75 813.832 22 817.462C18.6598 816.821 16.4953 815.652 14 813.16C14 812.095 14 811.03 14 809.933Z" fill="#FECA22"/>
<path d="M48 30.117C48 31.8918 48 33.6665 48 35.4951C47.34 35.4951 46.68 35.4951 46 35.4951C45.34 36.5599 44.68 37.6248 44 38.7219C44 36.2372 44 33.7526 44 31.1926C47 30.117 47 30.117 48 30.117Z" fill="#F1C53D"/>
<path d="M366 32.2683C369.15 35.9506 369.562 39.198 370 44.0999C368 42.4193 368 42.4193 366 39.7975C365.75 35.764 365.75 35.764 366 32.2683Z" fill="#E49414"/>
<path d="M28 6.45365C30.31 6.45365 32.62 6.45365 35 6.45365C35 7.16355 35 7.87345 35 8.60487C34.4019 8.76016 33.8037 8.91545 33.1875 9.07545C31.4385 9.55919 29.7132 10.1418 28 10.7561C28 9.33628 28 7.91648 28 6.45365Z" fill="#EEC23A"/>
<path d="M23 816.387C25.7987 819.106 27.4577 820.909 28 824.992C27.34 824.992 26.68 824.992 26 824.992C24.02 821.265 24.02 821.265 22 817.462C22.33 817.107 22.66 816.752 23 816.387Z" fill="#E6BD33"/>
<path d="M372 817.462C372.33 818.172 372.66 818.882 373 819.614C372.01 821.033 371.02 822.453 370 823.916C369.01 823.561 368.02 823.206 367 822.84C368.65 821.066 370.3 819.291 372 817.462Z" fill="#FFFDAA"/>
<path d="M375 809.933C375.33 810.643 375.66 811.353 376 812.084C375.34 812.084 374.68 812.084 374 812.084C373.752 812.75 373.505 813.415 373.25 814.101C371.794 816.764 370.622 817.41 368 818.538C368.786 817.302 369.579 816.07 370.375 814.841C370.816 814.154 371.257 813.468 371.711 812.761C373 811.009 373 811.009 375 809.933Z" fill="#D09724"/>
</svg>
